/* XPM */
static char *result[] = {
/* columns rows colors chars-per-pixel */
"50 50 215 2 ",
"   c #020305",
".  c #04060A",
"X  c #0B040D",
"o  c #06090D",
"O  c #090A0E",
"+  c #140709",
"@  c #090710",
"#  c #070A11",
"$  c #0A0D13",
"%  c #0B0F18",
"&  c #120D13",
"*  c #150D17",
"=  c #0D1116",
"-  c #0E121B",
";  c #171218",
":  c #11141C",
">  c #14191D",
",  c #23140D",
"<  c #220F1E",
"1  c #28191A",
"2  c #0F1522",
"3  c #0F1A22",
"4  c #121622",
"5  c #1B1520",
"6  c #141A23",
"7  c #1B1C24",
"8  c #151C2A",
"9  c #1B1E29",
"0  c #310C22",
"q  c #261726",
"w  c #361925",
"e  c #0F2026",
"r  c #13252A",
"t  c #14242A",
"y  c #1B222C",
"u  c #1D2331",
"i  c #1B2A33",
"p  c #1A2D36",
"a  c #1A3339",
"s  c #212223",
"d  c #24242B",
"f  c #39232A",
"g  c #232A34",
"h  c #272936",
"j  c #242C3C",
"k  c #352839",
"l  c #24313B",
"z  c #2D353C",
"x  c #373739",
"c  c #710F13",
"v  c #703C19",
"b  c #481C2C",
"n  c #4F2A2A",
"m  c #522C2E",
"M  c #4E342D",
"N  c #583B39",
"B  c #70322F",
"V  c #704B29",
"C  c #1B3A40",
"Z  c #262C41",
"A  c #2A3444",
"S  c #273B45",
"D  c #313D4B",
"F  c #2F3F50",
"G  c #54384A",
"H  c #793546",
"J  c #1B4143",
"K  c #25424A",
"L  c #2D454D",
"P  c #354246",
"I  c #2C4952",
"U  c #354956",
"Y  c #354C5A",
"T  c #2B565B",
"R  c #38535D",
"E  c #2E5963",
"W  c #395965",
"Q  c #2C6468",
"!  c #35616A",
"~  c #3A6E77",
"^  c #39797D",
"/  c #5A4849",
"(  c #454857",
")  c #554C50",
"_  c #584A5A",
"`  c #644844",
"'  c #685456",
"]  c #79535F",
"[  c #435965",
"{  c #46636D",
"}  c #59676A",
"|  c #436574",
" . c #466873",
".. c #466D7A",
"X. c #496C7B",
"o. c #49717D",
"O. c #52767C",
"+. c #6A6169",
"@. c #766664",
"#. c #696672",
"$. c #667179",
"%. c #7B7F73",
"&. c #8B191A",
"*. c #8E3325",
"=. c #8F4414",
"-. c #AB431B",
";. c #964D31",
":. c #B84C33",
">. c #CD551A",
",. c #E3703E",
"<. c #833841",
"1. c #83584F",
"2. c #98595C",
"3. c #AC5946",
"4. c #956B50",
"5. c #B96E49",
"6. c #A47B58",
"7. c #975766",
"8. c #916B70",
"9. c #AC7373",
"0. c #D2574A",
"q. c #C85967",
"w. c #C26E69",
"e. c #D67D78",
"r. c #B48337",
"t. c #FD8F2E",
"y. c #BB836C",
"u. c #C98155",
"i. c #F09753",
"p. c #D88865",
"a. c #CD8578",
"s. c #D5917D",
"d. c #E48E67",
"f. c #E49C75",
"g. c #DDAA78",
"h. c #F9C173",
"j. c #3B7D82",
"k. c #4A7481",
"l. c #497985",
"z. c #567A82",
"x. c #527E8D",
"c. c #657087",
"v. c #D27981",
"b. c #3C888C",
"n. c #3D8D91",
"m. c #3FA7A6",
"M. c #49888A",
"N. c #53838E",
"B. c #468A93",
"V. c #4B8B94",
"C. c #548495",
"Z. c #568897",
"A. c #578798",
"S. c #598799",
"D. c #568C9B",
"F. c #598B9B",
"G. c #45949A",
"H. c #4D939D",
"J. c #55929F",
"K. c #5A8FA0",
"L. c #459DA1",
"P. c #4F9BA4",
"I. c #4D9EA5",
"U. c #5495A1",
"Y. c #5991A1",
"T. c #529AA4",
"R. c #549EA9",
"E. c #45A2A6",
"W. c #4DA0A7",
"Q. c #47A6AA",
"!. c #4DA4AA",
"~. c #4AAAAE",
"^. c #52A1AA",
"/. c #4BAEB1",
"(. c #53AAB2",
"). c #4AB2B4",
"_. c #4CB9BA",
"`. c #51B3B8",
"'. c #48C1BE",
"]. c #4BC2C2",
"[. c #4AC8C6",
"{. c #49CECA",
"}. c #B39196",
"|. c #C68883",
" X c #D19589",
".X c #C79798",
"XX c #EE948F",
"oX c #EB9D91",
"OX c #DFAA88",
"+X c #DEAC90",
"@X c #EFAB97",
"#X c #DE98A6",
"$X c #D2B0AF",
"%X c #FAAAAF",
"&X c #EBB4A8",
"*X c #ECBAB9",
"=X c #EDC491",
"-X c #F8D89F",
";X c #EBCBAA",
":X c #FFE9BA",
">X c #FEB4CC",
",X c #F5B8CF",
"<X c #EAB8E6",
"1X c #DBC1CC",
"2X c #FDC8CE",
"3X c #FCDBCA",
"4X c #FFEDCE",
"5X c #FBEADC",
"6X c #EAD7E8",
"7X c #F9CBF1",
"8X c #EAE7E9",
"9X c #FFF4E4",
"0X c #FDEEF9",
"qX c #FFFCF6",
"wX c #FFFEFE",
/* pixels */
"S.S.F.F.S.S.S.S.D.S.S.S.F.F.F.F.F.F.F.Y.Y.F.F.F.F.Y.K.K.K.K.K.F.F.F.Y.F.F.F.Y.F.F.F.F.F.S.F.F.S.A.S.",
"S.D.D.S.S.D.S.D.S.S.S.D.F.F.F.K.F.Y.F.Y.F.Y.F.Y.F.Y.K.K.K.K.K.K.F.F.F.F.Y.F.F.F.F.F.F.F.S.F.F.A.S.D.",
"S.S.S.S.F.S.S.S.S.S.S.D.F.F.F.F.F.S.F.F.F.F.F.Y.K.Y.F.F.F.F.F.F.F.F.F.F.F.F.F.F.F.F.F.F.F.A.S.S.S.S.",
"S.D.D.S.Z.S.D.F.F.F.C.k.W R Y P S L W  ...o.x.Z.F.F.F.F.F.F.F.F.F.D.F.S.F.F.F.F.F.F.F.F.F.F.A.S.S.D.",
"F.F.S.S.S.F.F.F.x.[ d * O O = o   o . $ O O = y U  .N.S.F.S.S.S.D.S.S.S.F.F.F.F.J.K.F.F.F.F.F.F.S.F.",
"F.F.F.F.F.F.Z.{ d &     > s > > $ : = = O O - - 9 : 7 I O.S.S.Z.S.S.S.D.F.F.K.Y.Y.Y.Y.J.F.F.F.F.F.F.",
"F.F.Y.K.F.k.l & > . = - ; > > 7 h 6 6 > = $ - - : : = * q S ..C.A.C.A.K.F.U.R.W.^.^.~.T.Y.F.Y.K.K.K.",
"F.Y.Y.D.{ 7 O . o o = = = o $ o : = y d : . . - : $ o 8 u 7 > y l l Z F Y ..G.W.^.^.W.T.Y.S.$.#.#.} ",
"Y.Y.F.( ; 6 @       . o O o . o O = 8 h e $ . % : ; k G ( z ; . > : $ = % : 9 L k.K.Y.x.#.}.#XoXp.*.",
"Y.F.( * o . .         . .       O O > g > = q N G ' / f d $       $ . = % % % : 5 Y c.}.,X2X>X#X3.B ",
"K.W q . ; K p         > +       O   O ; 1 m 7.9.` x 7 > 7 o     O = . $ % 8 u 9 4 * 8.>X%X,X>X&Xe.;.",
"F.q q D o...=     = R L   & , , + O N 4.2.7.}.@.> @ : % - > $ = O . . # $ : 8 4 $ % k $X2X%X@Xe.q.<.",
"F.[ k.S.S.z $ o r M.V.> ) $X;XOXs.6.OX&Xa.6.] d O . O O - - - $ $ O o - % % 6 4 $ : - _ *X%X@X Xw.<.",
"S.A.S.S.X.* X 9 n.!. ./ 8X8X6XqXqX3X-X-X@X9.f = . . = : $ - - o $ o > $ # # 2 6 % 4 % * 7.XXe.3.:.*.",
"F.F.F.F.Y : ; X.c.2.5.1X1XN ` 7XwXwX9X:X-X|.< o .   o % o . o u g $ 4 - 7 4 % 4 % 6 y $ m *XXX0.3.H ",
"F.F.F.A.a & Y 1.,.t.i.,X<XH q.0XwXwXqX:X=Xs.1   o . . : $ $ . - j - - y A j u j 4 4 6 4 * .X%XoXq.B ",
"F.F.F.N.> h M.;.>.=.-.oX0X7X6XwXwXwXwX4Xg.u.n . o o     . - o . : - > g 6 8 j A 4 $ % $ o 7.v.8.@.} ",
"F.Z.F.X.; { x.n M n *.f.9XwXwXwXwXwXwX5X+Xg.;.o .     .   $ # = - $ o % 8 Z 8 4 % % : o @ ] e.H l.U.",
"F.F.F.X.D V.M.d ^ G.M.$..X5XqXqXwXwXwX4Xp.f.y.;           - > - > o o % u Z Z % : $ o : * w +.z.Z.F.",
"F.Z.Z.C.Z.W.n.L m.E.E.Q.M.%.}.;X1X$X#X2Xd.d.p.n         o > 6 - > o . o 6 p F u > . o % O b +.~.T.F.",
"F.F.Z.F.D.J.V.o.V.J.H.U.J.T.V.z.O.M.M.8.3.0.0.c .     o 4 o o $ o % % % 2 u j 8 : - $ @ o d O.J.J.F.",
"F.F.S.S.S.D.S.S.S.S.F.F.J.J.!.~.Q.'.[.'.M.` &.c +     o % . . . o - - % 3 2 - # $ g $ . . g F.F.F.F.",
"F.F.Z.F.S.S.S.S.S.D.S.S.H.!.~.!.Q././.).).Q.M.[ &       % - 2 - > - # - 8 2 $ - o - @ .   i S.F.F.F.",
"F.F.F.F.F.F.S.C.S.U.I.R.W.~.~.!.Q././././.~.~.I.e   X X . # - # % % # # - 6 # %   o @   X l F.F.J.F.",
"F.F.F.F.K.F.F.F.F.J.~.(.!.~.(.).)./././.~.~.I.$.f   0 1 O O $ .   - - o - % - o . . & . X L F.F.F.F.",
"F.F.F.K.K.K.K.K.K.K.J.Y.J.^.'.{.'.).~.~.~.G.` >.v   n n O X $ . # % # # - - o       X O > ! F.F.F.F.",
"F.F.F.K.K.K.K.K.K.K.K.K.K.K.(.`.`.^.W.~.m.} ) :.v   *.V     o o o # o % . #     .   = = U N.F.F.K.F.",
"F.F.F.F.F.F.K.K.K.K.K.K.K.F.K.K.J.J.P.~.j.x P M 1   r.4.    O . . . o     o         7 e o.D.F.F.F.F.",
"S.F.F.F.K.F.K.K.K.K.K.K.F.F.J.J.^.!.!.~.Q x Q } d > p.r.. . X o . . o O   % X .     g l C.F.S.S.F.F.",
"S.F.F.F.F.F.K.K.K.K.K.F.F.F.F.J.^.^.W.^.^ K R P = n d.;.. $ @ .   . o = =   o @ . . Z L S.S.S.F.F.F.",
"Z.F.S.F.F.F.F.F.F.K.J.F.F.J.J.F.F.F.J.F.D.W l ! > ;.h.N . 3 3     O O - >   o i o   R C.C.S.S.S.F.Z.",
"F.S.S.S.S.S.F.F.F.^.^.!.!.^.^.W.I.F.F.F.S.S.W A x |. X( @ p t o .     6 i   o L = o | S.S.C.C.C.C.C.",
"Z.S.Z.F.F.F.S.S.F.J.!.^.!.^.!.!.^.J.F.F.J.U.V.j ) +.} W   T p . #     r I . = W 6 - k.S.S.C.x.C.Z.C.",
"F.F.F.F.F.F.F.S.F.J.F.J.J.K.J.F.F.F.F.F.^.~.~.^ T ^ ~.Q - j.r   e . % C T   e l.y g x.S.A.S.A.A.F.F.",
"F.F.F.F.F.K.K.F.F.F.F.F.F.F.F.F.F.F.F.F.J.^.~.~.~.Q.~.Q p m.r % J . # C I   a x.Z Z S.F.K.A.K.A.F.F.",
"F.F.F.F.F.F.F.F.F.F.F.F.K.F.F.F.F.J.J.J.F.T.~.~././.Q.E Q m.- e T o # Y U   Y C.g Y K.F.F.A.K.K.F.F.",
"F.F.F.F.F.F.F.F.F.F.F.F.F.F.F.S.D.P.!.!.!.!.~.~.~.~.~.E n.j.% p I o $ | K % ..A.A X.F.F.F.K.K.K.Y.F.",
"F.F.F.F.F.K.F.F.F.F.F.F.S.S.S.Z.D.J.P.H.P.H.T.R.T.T.T.B.T.W % I L - r B.C i P.P.~ P.R.U.K.K.K.F.F.F.",
"F.F.F.F.F.K.F.F.S.F.D.S.S.Z.F.D.D.J.D.S.Z.Z.S.F.A.F.F.F.D.S 4 k.K % I Q.K W )././././.R.K.K.F.F.F.F.",
"F.F.F.F.F.F.F.F.S.Z.S.S.S.D.H.L.G.I.T.D.S.S.S.S.A.A.F.F.H.r A G.p # ~ ~.K n.~./././.R.U.F.F.F.F.F.F.",
"F.F.F.F.F.F.S.F.F.S.J.J.J.I.E.E.E.I.U.D.S.S.S.S.F.F.F.D.l.2 ~ L.r - n.~.b.Q.~.~././.`.(.U.U.U.F.F.F.",
"F.F.K.F.F.S.F.F.F.F.J.W./.~.~././.T.D.K.D.D.J.F.F.F.F.D.E y x.B.6 a E.W.!.!.~.~.~./.].].(.!.I.F.F.F.",
"F.F.F.K.F.F.F.J.!.!.!.~.~./.'.{.]./.I.!._._.W.I.W.W.U.D.U W S.k.8 W J.J.J.J.J.U.U.U.^.R.R.U.U.F.F.F.",
"F.K.F.K.F.F.F.J.^.!.^.^.!.).'.[.[.).~.~._.].~.~.Q.I.D.A.x.F.D.[ u x.S.S.Z.Z.S.F.S.F.F.F.K.F.F.F.F.F.",
"F.F.K.F.F.F.F.F.J.F.F.F.T././.~./.!.~.W.Q.Q.W.!.W.V.x.C.S.F.F.W W D.D.F.F.F.F.Y.F.F.F.F.F.F.F.F.Y.F.",
"F.F.F.F.F.F.K.F.K.F.F.F.J.J.J.J.U.U.U.U.U.U.U.U.U.D.C.D.F.F.F.V.I.W.I.I.^.U.F.F.F.F.F.F.S.F.F.F.F.F.",
"F.F.F.F.F.F.F.F.F.F.F.F.J.J.J.J.U.F.F.S.A.S.F.F.K.F.K.K.F.F.F.T.!.!.!.!.!.U.F.F.F.F.F.S.F.F.F.F.F.F.",
"Z.F.Z.F.S.S.F.S.S.F.F.F.R.!.~./.W.U.F.F.F.F.F.F.D.D.D.K.Y.Y.Y.Y.Y.K.Y.Y.U.F.S.S.S.F.S.F.F.F.F.F.F.F.",
"F.Z.S.S.F.S.F.Z.C.C.C.C.D.I.!.~.~.!.U.F.F.F.Y.F.F.K.K.K.K.Y.R.^.R.F.S.F.S.F.D.S.S.S.D.F.F.F.F.F.F.F.",
"S.S.Z.F.Z.S.S.Z.N.N.N.C.C.D.W.Q.~.~.W.J.F.Y.Y.Y.K.Y.K.K.F.U.~./.W.K.F.F.S.S.S.S.S.D.S.F.F.F.F.Y.F.S."
};
