/* XPM */
static char *_80c3f8c213b4928cb85a35a0b0a54denDm8kiwlfG9K1ElF[] = {
/* columns rows colors chars-per-pixel */
"50 50 230 2 ",
"   c #020204",
".  c #0A0403",
"X  c #0E0907",
"o  c #04050A",
"O  c #0A060C",
"+  c #06090D",
"@  c #090A0E",
"#  c #170B09",
"$  c #070A11",
"%  c #0B0D13",
"&  c #0B0B16",
"*  c #130E14",
"=  c #0C1115",
"-  c #0E131B",
";  c #0C1A1C",
":  c #12141C",
">  c #13191F",
",  c #20100C",
"<  c #33241D",
"1  c #0E1821",
"2  c #131621",
"3  c #141A24",
"4  c #181C25",
"5  c #151C29",
"6  c #1A1E29",
"7  c #161F30",
"8  c #231823",
"9  c #15232B",
"0  c #17262A",
"q  c #1B222C",
"w  c #1D2433",
"e  c #1A2B33",
"r  c #193539",
"t  c #1B343A",
"y  c #2B232F",
"u  c #332427",
"i  c #232737",
"p  c #212936",
"a  c #262D3D",
"s  c #25343C",
"d  c #363338",
"f  c #570F12",
"g  c #441A1D",
"h  c #54231B",
"j  c #672416",
"k  c #732817",
"l  c #44182A",
"z  c #462827",
"x  c #58272A",
"c  c #57382C",
"v  c #423437",
"b  c #593738",
"n  c #6B342C",
"m  c #743438",
"M  c #5F4236",
"N  c #6F452E",
"B  c #69473B",
"V  c #794236",
"C  c #243B43",
"Z  c #283845",
"A  c #363743",
"S  c #483843",
"D  c #7C3B46",
"F  c #27454C",
"G  c #37434A",
"H  c #294951",
"J  c #2D4C53",
"K  c #334954",
"L  c #334E5A",
"P  c #29565B",
"I  c #35505C",
"U  c #345764",
"Y  c #385561",
"T  c #395A66",
"R  c #2E6569",
"E  c #37646D",
"W  c #3C6974",
"Q  c #377378",
"!  c #4D4950",
"~  c #5E595D",
"^  c #664B44",
"/  c #714B4C",
"(  c #784B57",
")  c #6A5259",
"_  c #795958",
"`  c #4B5864",
"'  c #5B5C66",
"]  c #6C5964",
"[  c #4F616C",
"{  c #436572",
"}  c #416C75",
"|  c #4D6A77",
" . c #466D7B",
".. c #546B77",
"X. c #48717F",
"o. c #5C727E",
"O. c #63696D",
"+. c #686471",
"@. c #6F7376",
"#. c #BA1D1C",
"$. c #9A311C",
"%. c #BA290C",
"&. c #8F312C",
"*. c #943537",
"=. c #AA2727",
"-. c #B72A25",
";. c #AF372E",
":. c #C31C23",
">. c #CD342E",
",. c #D13531",
"<. c #E33537",
"1. c #A5411E",
"2. c #93452E",
"3. c #93533D",
"4. c #AF4B39",
"5. c #AB593B",
"6. c #8A603E",
"7. c #A06A35",
"8. c #CA4A0C",
"9. c #CD4F32",
"0. c #D47031",
"q. c #EC712C",
"w. c #884B4D",
"e. c #8F5150",
"r. c #855853",
"t. c #A95747",
"y. c #AF534C",
"u. c #9D6848",
"i. c #846051",
"p. c #926A5A",
"a. c #A76854",
"s. c #B76654",
"d. c #B26F50",
"f. c #9A776B",
"g. c #B16E67",
"h. c #AD7B66",
"j. c #BC7878",
"k. c #CD5249",
"l. c #CC6B56",
"z. c #CA7971",
"x. c #77817D",
"c. c #E98A2D",
"v. c #AF8A53",
"b. c #BD8165",
"n. c #BB8776",
"m. c #D29550",
"M. c #EA8E46",
"N. c #ED924E",
"B. c #F2A550",
"V. c #D5876C",
"C. c #CA8873",
"Z. c #CA8C70",
"A. c #D6937A",
"S. c #E98675",
"D. c #E2AE64",
"F. c #FFCF6C",
"G. c #4B7483",
"H. c #487784",
"J. c #4D7A89",
"K. c #577786",
"L. c #517D8C",
"P. c #617888",
"I. c #DA7886",
"U. c #3B8488",
"Y. c #3B9696",
"T. c #46858E",
"R. c #55818D",
"E. c #4E8292",
"W. c #448992",
"Q. c #4D8D98",
"!. c #548394",
"~. c #568797",
"^. c #578798",
"/. c #598799",
"(. c #568C9B",
"). c #598B9B",
"_. c #47959B",
"`. c #55919E",
"'. c #668591",
"]. c #5A8FA0",
"[. c #499DA3",
"{. c #4D9EA5",
"}. c #5495A2",
"|. c #5990A0",
" X c #529BA5",
".X c #529FA9",
"XX c #48A2A6",
"oX c #46A6A9",
"OX c #4EA2A9",
"+X c #4CA5AA",
"@X c #4AAAAE",
"#X c #51A4AC",
"$X c #46AFB0",
"%X c #4BADB1",
"&X c #52ABB3",
"*X c #4AB2B4",
"=X c #4AB5B7",
"-X c #4BBCBC",
";X c #50B1B6",
":X c #4AC0BF",
">X c #4AC3C2",
",X c #49C8C6",
"<X c #4ACDCA",
"1X c #A58D8D",
"2X c #A8AD98",
"3X c #BE9BB1",
"4X c #D68D82",
"5X c #CA9086",
"6X c #D89687",
"7X c #E79495",
"8X c #DDA689",
"9X c #DAA596",
"0X c #E0A49E",
"qX c #C8A2AE",
"wX c #DABABA",
"eX c #E4B6AA",
"rX c #EBB0AD",
"tX c #DFCB9E",
"yX c #EECDB4",
"uX c #DE9DC4",
"iX c #C9B8C6",
"pX c #DCBAC3",
"aX c #EAD1C6",
"sX c #FDE0CE",
"dX c #EFDEE8",
"fX c #EAE8E3",
"gX c #FFFBEA",
"hX c #FAEDF7",
"jX c #FFF0F6",
"kX c #FFFEFF",
/* pixels */
"/./.)././.).).L.G././././.).`.].).].).].].).).).].].].].].].].).|.).).).|.).).`.].)./././.).)./.)./.",
").).(././.)./.X.F /././.).).).).]./.).].].).].).].).].].).].].].).).).).).).).`.).).).).).).)./.)./.",
")./././.~.).).X.4 J./.).).).).).).).).).].].`.).].).).).).).).).).).).).).).).).`.).).).)./././././.",
"~.^.).^./././.X.% T ).).|.).`.).).].).).).].].).).).].).(.(.'.)./.(.).).).).).|.).).).).)./.)./.).~.",
"/././././.).).J.* Z /.].}.}.}._.}.}. X`.`.).).).).).).).(.~.)./././././.).).).).].).).)././.).)./.).",
"`.).].).).).).E.2 2 J.|.{.@XU.XX@X&X@X+X X).(.(./././.).)./.)././././.).).).].|.].].].`.`.).).).).).",
").].].].`.`.).).w o Y .X@X%XP Y.>X*XoX@XOXOXOX`./.(.~././.).).).).).).).).}.OXOX#XOXOX X].].].].(.).",
").].].].].).).).Z   6 W.OXOXr P >X*XoXoXoX+X{.Q.~./././.).).).).].).].].). XOXOX#X#XOX X].].].X.K ).",
"].].].].~.!.).).` o o I (./.t ; [.oXoX[.oXXX(.~.R.).).~./.).|.|.].].(.(.).].(.(.(.).(.).`.).).F q ~.",
"].].]. XW.P %X;XW.=   i L./.Z o R }.`.Q.Q.).(.^.(.`..X{.OX.X.X.X.X X|.^././.).)././.).^.~.).L.3 0 ).",
"].].).#XXXr R :XXXe   O K /.K   C (.|.} W  X|.`.}.@X@X@X@X*X*X*X=X*X#X|.|.(.Q.~./.^./.Y I ).T % s (.",
").).).).`.J = } (.L   @ > L.{ o 1 W.+XR P -X@XOX@X@X@X@X@X=X,X<X<X,X,X-X@X[.[.E.G.!. .; L /.s + H L.",
").).).)./.| @ > T.T.= @ % K X.% o P OXR r =X$XoX@X@X@X@X@X*X:X:X=X%X&X%X{.[.}.J.Z L.Z 2 {  .- & { L ",
"/.)././.(.!.0   r [.P   + : { 6 o 5 Q.R - U.@X@X@XY.oX@X*X%X@X@X{.(.).(./.(.!.L t T 7 7 X.e $ 3 X.> ",
").).).).(.).K   @ Y T.3   o a p + & Q R + R $X-X:XP $X<X<X:X@X@X@XOXOX.X).J.Z 5 5 r 2 C P $ 3 P J   ",
").).).L.~.).H.> + -  .Y     + = o + Z E $ e _.*XXX0 Y.>X,X=X@X*X-X-X*XoXQ.C & 2 1 - & H 5 = 5 P @   ",
"|.).).Z C J./.F   o 0 H.0       o o - K - + W ).W & Q @X*X@X%X-X<X<X$XQ r @ & * w & - - + o e - o = ",
"/.).).{ @ 4 { H.;     r R +   o o   o w > o Z ).Y o L  X@X@X%X=X-X-XR 1 & +   - 5 - $   & O & + @ e ",
"/.).).!.s o @ J P $ o   r 0   o o     $ 3 o $ U.U + C OX@X%X%X%X@XU.9 2 = + o - w 2 o = - 2 - + = W ",
"/./.).).H.-     9 1 + o   = o     o $ + =     F P & e XX%X%X@X@XY.e & 2 > $ + > 5 - $ - - ; w & C ).",
").)./.(.(.J   o   % o o     o O     +       o - H + + U.>X-X%X_.w & & & 2 - + 2 3 3 : 1 3 5 p 9 H.).",
").)././.^.K.9   o + & o o   + &         o   & + ; +   P -X;XU.Z A Z & 1 3 & : : 3 5 5 5 p 5 = { ).).",
").)./.(.~.L.Y $   o @ O o               o     +   o   0 `.{ : q Z 2 $ 5 - ; = = 5 6 a i q = H /.).`.",
").)././.!.C $ @ O o   o $ o             $ o   +       o e = o : Z 5 = - i i 4 q 3 2 2 i 2 p R.).).).",
").| S w.r.S X o                 o +   o o   o o =       +   @ ; 4 2 - 3 Z w w w q @ $ - C J.).).`.).",
").X.c 5.9X9Xy.l o   + +       o         o     o             o @ : - & - - : * 2 q : $ C !.).).).).).",
")...g k a.7Xg.z O   o 2 + o o                         o X     @ > : @ + - 6 2 > > q T ).).).).).`.).",
").).! h s.rXwX~ O   o * +   o - o     + $           o = o o # * * = + + % : * 5 K R.).).).).).).).].",
"/.K.v j s.4XrXqXy O * :     o + o   o     o         X   X o @ B p.i.c N 6.p.@.{ ).).`.|.).).(.).).).",
"/.o.d j t.j.eXpX!   o O               +     .           X @ = u b.S.8XyXgXkXkXiXo.).).).~.)././././.",
"/.` z k a.z.wXpXpX] = o o o o           .       X .     X , < < 5.tXgXkXkX3X1XfXqXx.P./.(.).~.~././.",
"^.~.` j &.y.h.C.j.j.e.S $     @           . . . X . o X , n N N l.sXkXkXhX*.f qXtXB.m.u.@.!.!.!.!.~.",
"/.~.! k 2.5.t.l.z.5X9XeXf.^ G q &         . # # z b B B i.7.&.y.7XjXkXkXkXuXqXdXF.c.c.c.v.E.!.E.L.~.",
"/./.~...b f j 5.5X9XA.8XZ.n.aXwXd   . o < z V e.I.7Xh.v.8XV.s.y.9XkXkXkXkXkXkXaXm.8.k N 7.J.~.~.).).",
").).).).! u z n e.g.4XV.2.d.8X1X: & - - / p.d.A.9XyXeX9XA.S.l.;.7XhXkXkXkXgXgXtXd._ o.X.B L././.).).",
").).).).`.R.G j s.C.z.e.e.s.d.b - 3 - w d p.Z.A.5XeXaXeX6Xl.9.4.I.uXiXaXfXaX2XP.E.(.`.(.L !.).).).].",
").).).).).R.d c ^ / ' L.( =.4.m 2 2 & 5 w x 4.V.C.l.S.z.k.>.,.*.( P.L.P.P.P.L.].).).).).R.).].).).).",
").).).).).(.).~.L.L.].].[ >.9.&.* & = 1 4 < $.&.4.-.>.=.&.*.] K.L.]. X X.X.X.X.X X X#X}.(.(.`.|.].).",
").).).).).).).).].L.|.L.L.*.<.=.: * $ 2 Z y f g x b ( +.K.(.}.(. X#X@X@X&X@X%X%X&X%X&X#X|.|.).).).).",
").).).).).).).)./.].|.L.).D <.9.x $ o & 6 y | J.!.(.).].|.[.OXOX&X@X@X@X@X@X@X@X%X%X X|.).).).`.).).",
").).].).).)././.].L.(.}.}.Q.w.<.*.* O & $ 2 X.).^.K.+.f.E..X{.@X@X@X@X@X@X@X@X@X%X%X&X&X). X|.(./.).",
").).).).).)./.).].].}.+X%X@XL.:.k.m & O - - H.`.+.m.N.z.s.) E.}.@XXXXXOXXX@X@X@X&X%X>X>X&X#XOX(.).].",
").).].).).).).`..X#X#X$X@X%X-X] <.;.x 8 & : } O.Z.D.d.q.9./ ..).`.`.(.`.`.`.`.`.`.`.#X#X X`.`.(.).).",
").].).).).].).`..X.X.X.XOX%X>XOX*.#.-.2.m m 0.N.F.D.r.k k ! d { ~.~.).~.~.).'.).(.).).).|.).).(.).).",
").).].).).).].].`.).|.)..X%X@X@XW.( :.:.;.8.q.q.B.M.c.3.! Z d L /./.).).).).).].).).).).).).).).).].",
").).).).).`.).).`.).(.).(.}.}.}.}.(.+.D -.&./ ' 5.q.%.$.d K F Q OXOXOXOXOX`.).`.).).).).).).).).).).",
").).).).).).).).).).).).).}.].}.].]././...K./.).] q.1.O.G.s J Q.#X@X#XOXOX X).).).).)./.).).).).).].",
"/././.)././.)././././.)..XOX@X+X#X].].L.].]./.(.K.8.0...J.T J.`.|.).`.).`.)././.).).).).).).).).).).",
")./.)././././.~.~.!.!.!.`._.OX@X@XOX X).).`.`.].`.r.V ' s H..X.X X).).)./.).~.~./././.).).`.).`.).).",
")./././.~.)./.~.E.R.E.E.~.).XX@X@X@XOX).).).].].).).Y K { }.@X@XOX|.).).).).~.)./.~.).).).).).)./.)."
};
