/* XPM */
static char *abccd1420ec04fe9c8fe74e4191d91e0Tt9xjWuZadVcxvlj[] = {
/* columns rows colors chars-per-pixel */
"50 50 217 2 ",
"   c None",
".  c #020204",
"X  c #0A0303",
"o  c #0E0907",
"O  c #05050A",
"+  c #0A050C",
"@  c #06090D",
"#  c #0A0A0E",
"$  c #180907",
"%  c #0B0612",
"&  c #070A11",
"*  c #0A0D12",
"=  c #0B0E15",
"-  c #0D0E16",
";  c #0B0C13",
":  c #0B0F1A",
">  c #130E14",
",  c #140A1B",
"<  c #0E1116",
"1  c #0E121A",
"2  c #0E121B",
"3  c #12141C",
"4  c #15181E",
"5  c #151619",
"6  c #290905",
"7  c #3D0707",
"8  c #20130F",
"9  c #261A19",
"0  c #33241D",
"q  c #0F1522",
"w  c #131622",
"e  c #141924",
"r  c #1A1A22",
"t  c #161C29",
"y  c #1A1E29",
"u  c #161F30",
"i  c #221526",
"p  c #1E2127",
"a  c #1D212C",
"s  c #1D2433",
"d  c #242326",
"f  c #322428",
"g  c #212836",
"h  c #262C3D",
"j  c #272A35",
"k  c #3A363B",
"l  c #312236",
"z  c #4B0605",
"x  c #59060B",
"c  c #4A180F",
"v  c #56140C",
"b  c #451C19",
"n  c #501513",
"m  c #691C04",
"M  c #781608",
"N  c #631710",
"B  c #651F14",
"V  c #6C0204",
"C  c #49281B",
"Z  c #662214",
"A  c #752916",
"S  c #74360F",
"D  c #44182A",
"F  c #452727",
"G  c #5A272A",
"H  c #403B3C",
"J  c #5A3433",
"K  c #5E3B28",
"L  c #633626",
"P  c #713425",
"I  c #743438",
"U  c #792727",
"Y  c #70422E",
"T  c #69473B",
"R  c #794235",
"E  c #363642",
"W  c #2E3344",
"Q  c #483843",
"!  c #5A565B",
"~  c #514750",
"^  c #60504C",
"/  c #6E4650",
"(  c #685250",
")  c #634E45",
"_  c #685563",
"`  c #7B686C",
"'  c #971516",
"]  c #8E1212",
"[  c #A61519",
"{  c #B91B1D",
"}  c #96291D",
"|  c #A83611",
" . c #BA290B",
".. c #971426",
"X. c #AD1A2F",
"o. c #84392A",
"O. c #96372A",
"+. c #933737",
"@. c #922E2F",
"#. c #A92B28",
"$. c #B32A24",
"%. c #BA382A",
"&. c #B03A30",
"*. c #A7322B",
"=. c #C91218",
"-. c #C41C23",
";. c #C82624",
":. c #CD342E",
">. c #C43C33",
",. c #D93D38",
"<. c #DE262B",
"1. c #E33537",
"2. c #B66115",
"3. c #93452D",
"4. c #9B4D3A",
"5. c #8F5637",
"6. c #AA583B",
"7. c #B1513B",
"8. c #AE4839",
"9. c #8A603E",
"0. c #B86429",
"q. c #D44C12",
"w. c #D4563B",
"e. c #C5492C",
"r. c #CF6021",
"t. c #D07031",
"y. c #E86A24",
"u. c #EE7F31",
"i. c #F17131",
"p. c #953D42",
"a. c #845F4D",
"s. c #855853",
"d. c #965050",
"f. c #99424C",
"g. c #A14F46",
"h. c #A95747",
"j. c #A95250",
"k. c #BC524A",
"l. c #926A5A",
"z. c #9C6147",
"x. c #AE604B",
"c. c #A76854",
"v. c #B76654",
"b. c #B9735A",
"n. c #AE745C",
"m. c #9A776B",
"M. c #AE6C62",
"N. c #AD7B66",
"B. c #BC7878",
"V. c #B3706B",
"C. c #C35244",
"Z. c #D9514E",
"A. c #C86658",
"S. c #CF6F55",
"D. c #C8776E",
"F. c #CC7C74",
"G. c #DD953E",
"H. c #CD8B3A",
"J. c #E98A2D",
"K. c #BD8165",
"L. c #BB8776",
"P. c #D99A56",
"I. c #EB8E46",
"U. c #ED924E",
"Y. c #DDAC57",
"T. c #EDA35E",
"R. c #F9A640",
"E. c #C6836B",
"W. c #D5876C",
"Q. c #D6926B",
"!. c #CA8873",
"~. c #D28F76",
"^. c #D6937A",
"/. c #C8947F",
"(. c #E98675",
"). c #E7B071",
"_. c #FFCF6C",
"`. c #CC7B86",
"'. c #E77486",
"]. c #A58D8D",
"[. c #BE9BB1",
"{. c #D68D82",
"}. c #CF9182",
"|. c #D89687",
" X c #C48E89",
".X c #E4908D",
"XX c #E9969A",
"oX c #DDA689",
"OX c #DDA494",
"+X c #D6A799",
"@X c #C3BA97",
"#X c #F1BA98",
"$X c #CF8EA4",
"%X c #DABABA",
"&X c #CCA3AE",
"*X c #E9AAA6",
"=X c #E4B6AA",
"-X c #EFBEBB",
";X c #E3CD9E",
":X c #EBC480",
">X c #EECDB4",
",X c #DE91C3",
"<X c #DCBAC3",
"1X c #D7B4D0",
"2X c #E7A8C7",
"3X c #CFC2C2",
"4X c #E6C9C5",
"5X c #E7DAC5",
"6X c #F2D2CA",
"7X c #FDE0CE",
"8X c #EFDEE8",
"9X c #FEFCEC",
"0X c #FFF5E4",
"qX c #FAEDF7",
"wX c #FFFEFF",
"eX c #FFF0F6",
"rX c #ECEAE4",
/* pixels */
"                                                                                                    ",
"              .                                                                                     ",
"              .                                                                                     ",
"              .                                                                                     ",
"              O ,                                                                                   ",
"              O %                                                                                   ",
"              O O i       O                                                                         ",
"              O . ,       O .                                                                 ;     ",
"                . O       . .                                                               O #     ",
"                + O ,     . .                                                               O @     ",
"        .       % . +       . +                                                             @ @     ",
"          .       . # +     . O       .                                             @     @ @       ",
"          O .     . # ; +   O O       O                                       e   : q     ; @     # ",
"          O . O   . . @ #   + O @     +                                     w 3   e w   . & @   X + ",
"            . @     . . O , + O ;     @         @                         1 3 = = 2 @ # ; w w   . O ",
"            @ @ +     . O O O . @ w   & ;       ;                       . 3 , : & # 3 1 = 2   . .   ",
"    + O     % O O .   . . . . O . ;   ; O       =                     # + ; 2 s : & * @ O & . O O   ",
"      O O     . . . .   . . @ . . O O O . %     O                   * ; * . 2 t : % O & ; & & O .   ",
"      O O X     . @ . . . . O . . . O O O .     O .               ; 2 < @ O 1 s 2 O < 1 e & & O     ",
"        . . . . . @ O . . O . . O % O . . . .   & =             O = 4 4 * @ 3 p 1 & < 1 q s < .     ",
"        O O O . % + O . . O O . . + O . . O O . & @           # q : & e 1 @ e e e 2 q e t s @       ",
"          O . . @ % @ O . @ % O . . . O . * @ . . . .       y E W & q e & 1 1 q t t s s a =         ",
"            . . . @ + O . . . . . . . O . . @ . . . .     . i W t & e 1 q < 2 s p j s p < O         ",
"        % . O @ O . @ % . . . . . . O & O . O . . . . O . O w W e : 2 s h y p e 4 e g w .           ",
"  N O.+.b X O . . . . . . . O O @ . . O . . @ # . . O . . * 3 p e 1 e W s s a p * @ 1 <             ",
"  n h.OXOXj.D O O @ @ . . . . . . . . O . . @ . . . . O . . @ 1 1 = 2 2 q & r p < @ .               ",
"  7 A x.{.M.F + . . 3 @ O O . . O . . O . . . . . . @ O O O @ 4 ; # @ 3 p e 4 4 3                   ",
"    v v.-X%X! + O O ; O . O 3 . . . O < . . . . . . * @ X $ > > 5 @ @ ; 3 1 @                       ",
"  7 B v.|.*X&Xl . ; 3 . . . @ O . O . . . . . . . O . X @ o ) l.a.J K 9.m.`                         ",
"  6 Z g.F.=X<X~ . @ + O . . . . . O @ . . X . X . . . o o @ 0 K.W.oX>X9XwXwX3X                      ",
"  v S x.D.%X4X1X_ % O @ . . . . . . . X . X X X X . . X 8 9 0 0.#X9XwXwX[.].8X&X                    ",
"    N +.h.V./.B.B.s.Q < . . * . . . . . . X X X X o o 8 K Y 3.E.7XwXwXqXf.n &X;XT.G.0.              ",
"  z A 3.7.h.A.D. XOX=Xm.( H d < . . . . X 6 $ F J T T a.z.o.h..XeXwXwXwX2X$X8X_.H.t.J.H.            ",
"      n v Z 7.{.+X}.oX!.L.4X3Xk . . . 0 F Y d. XXXN.K.oX~.A.k.*XeXwXwXwXwXwX5XI.q.m S 2.            ",
"        6 c P g.V.}.W.3.n.OXL.: < 1 2 ( l.b.~.+X6X=XoX~.Q.A.&.XXqXwXwXwX9X9X;Xt.      m             ",
"          $ Z b.!.D.4.p.v.c.) : t 1 s E l.E.^./.=X6X=X~.S.w.>.'.,X1X6XrX5X@X                        ",
"          $ c P L     ] $.7.Y 2 q < e s C 6.F.!.A.(.F.w.:.>.*...                                    ",
"                        -.,.o.> & 1 e t b } O.8.$.:.#.[ '                                           ",
"                        [ 1.*.5 : & , h f x z x V                                                   ",
"                        ..<.w.G O @ : g y                                                           ",
"                          X.1.p.> @ * ; ;                                                           ",
"                            =.Z.I o @ 1 =       P.U.(.C.U                                           ",
"                            ' ,.*.G i + ;     Q.).t.i.w./ ~                                         ",
"                              [ { $.+.I I t.U._.T.3.M m ~ E                                         ",
"                                ' ;.;.>.e.i.y.R.I.J.4.E 5 k                                         ",
"                                    ' { ] '   r.t. .| j j 5                                         ",
"                                                y.|     # .                                         ",
"                                                q.r.                                                ",
"                                                  R ! r                                             ",
"                                                    p                                               "
};
