/* XPM */
static char *result[] = {
/* columns rows colors chars-per-pixel */
"50 50 220 2 ",
"   c #020305",
".  c #04060A",
"X  c #0B040D",
"o  c #06090D",
"O  c #090A0E",
"+  c #160607",
"@  c #090710",
"#  c #070A11",
"$  c #0A0D13",
"%  c #0B0F18",
"&  c #140A12",
"*  c #150F19",
"=  c #0D1116",
"-  c #0E121B",
";  c #131115",
":  c #11151C",
">  c #1A131B",
",  c #14191E",
"<  c #23140D",
"1  c #220F1E",
"2  c #281A1A",
"3  c #0F1822",
"4  c #111621",
"5  c #141A23",
"6  c #1A1B24",
"7  c #151D2A",
"8  c #1B1E29",
"9  c #310C22",
"0  c #261724",
"q  c #361825",
"w  c #15262B",
"e  c #1B242D",
"r  c #1C2331",
"t  c #1C2B33",
"y  c #192934",
"u  c #1C383D",
"i  c #212223",
"p  c #23252B",
"a  c #392329",
"s  c #232A34",
"d  c #272B37",
"f  c #242D3B",
"g  c #342839",
"h  c #22323B",
"j  c #29373D",
"k  c #373739",
"l  c #710F13",
"z  c #703C19",
"x  c #481C2C",
"c  c #4F2A2A",
"v  c #532E2C",
"b  c #4A3336",
"n  c #593837",
"m  c #6F312F",
"M  c #704B29",
"N  c #1C3B42",
"B  c #272D41",
"V  c #2B3343",
"C  c #273A43",
"Z  c #253A45",
"A  c #333D48",
"S  c #4D3A48",
"D  c #5A3747",
"F  c #7C2A4A",
"G  c #773B45",
"H  c #23454C",
"J  c #2C434D",
"K  c #384248",
"L  c #2E4551",
"P  c #2C4B53",
"I  c #344855",
"U  c #344C59",
"Y  c #2A585E",
"T  c #35525D",
"R  c #39525C",
"E  c #2C5D61",
"W  c #385A65",
"Q  c #2D6569",
"!  c #39626B",
"~  c #386B73",
"^  c #38777B",
"/  c #4B4749",
"(  c #5A4849",
")  c #494555",
"_  c #5A4956",
"`  c #5C5358",
"'  c #644541",
"]  c #685456",
"[  c #78585F",
"{  c #465C6A",
"}  c #555F74",
"|  c #655F65",
" . c #47636B",
".. c #5B696E",
"X. c #466776",
"o. c #436A75",
"O. c #4A6D7C",
"+. c #586776",
"@. c #4B727D",
"#. c #55777C",
"$. c #68616B",
"%. c #6C6A6B",
"&. c #666B77",
"*. c #8B1518",
"=. c #9F2F25",
"-. c #863526",
";. c #AA3D3A",
":. c #8F4414",
">. c #AB431B",
",. c #964E31",
"<. c #B84C33",
"1. c #CA5A12",
"2. c #D04F21",
"3. c #E3703E",
"4. c #833841",
"5. c #90564D",
"6. c #AC5946",
"7. c #956B50",
"8. c #B86F4A",
"9. c #A47B58",
"0. c #885D64",
"q. c #9C5665",
"w. c #966366",
"e. c #946873",
"r. c #B07470",
"t. c #D2574A",
"y. c #D57358",
"u. c #C85967",
"i. c #C26E69",
"p. c #D67D78",
"a. c #7A8073",
"s. c #B48337",
"d. c #FD8F2E",
"f. c #BB836C",
"g. c #C98155",
"h. c #F09753",
"j. c #D88865",
"k. c #CD8578",
"l. c #D5917D",
"z. c #E48E67",
"x. c #E49C75",
"c. c #DDAA78",
"v. c #F9C073",
"b. c #3C7E84",
"n. c #4B7584",
"m. c #477A86",
"M. c #587787",
"N. c #517C8C",
"B. c #D27981",
"V. c #3E848A",
"C. c #3F8D91",
"Z. c #3B9192",
"A. c #3BA09F",
"S. c #47878D",
"D. c #50828F",
"F. c #4F8092",
"G. c #458D94",
"H. c #4D8B96",
"J. c #548494",
"K. c #568897",
"L. c #578798",
"P. c #598798",
"I. c #568B9B",
"U. c #598B9B",
"Y. c #48959C",
"T. c #55919E",
"R. c #638C8F",
"E. c #5A8FA0",
"W. c #489EA4",
"Q. c #4D9DA5",
"!. c #5495A1",
"~. c #5991A1",
"^. c #529AA5",
"/. c #539FA9",
"(. c #46A5A7",
"). c #4DA0A6",
"_. c #4CA4AA",
"`. c #4AAAAE",
"'. c #51A1AA",
"]. c #47AEB0",
"[. c #4BAEB1",
"{. c #53AAB3",
"}. c #49B1B3",
"|. c #49B8B8",
" X c #50B1B6",
".X c #4BC3C2",
"XX c #4AC9C7",
"oX c #B29498",
"OX c #C68883",
"+X c #D6908D",
"@X c #C89798",
"#X c #EB9D91",
"$X c #D3A789",
"%X c #DFAA88",
"&X c #EFAB97",
"*X c #DD9AA6",
"=X c #D2B0AF",
"-X c #FAAAAF",
";X c #EBB4A8",
":X c #ECBAB9",
">X c #F8B6B7",
",X c #EDC491",
"<X c #F8D89F",
"1X c #EBCBAA",
"2X c #FFE9BA",
"3X c #FEB4CC",
"4X c #F5B8CF",
"5X c #EAB8E6",
"6X c #DBC1CC",
"7X c #FDC8CE",
"8X c #FCDBCA",
"9X c #FFEDCE",
"0X c #FBEADC",
"qX c #EAD7E8",
"wX c #F9CBF1",
"eX c #EAE7E9",
"rX c #FFF4E4",
"tX c #FDEEF9",
"yX c #FFFCF6",
"uX c #FFFEFE",
/* pixels */
"P.P.U.I.P.I.P.P.P.P.P.P.P.E.U.E.U.U.E.E.~.U.U.U.U.E.E.E.E.E.E.U.U.U.U.U.U.U.~.U.U.U.U.U.P.I.U.I.U.P.",
"P.I.I.P.P.P.I.P.I.P.I.P.U.U.U.U.U.U.U.E.U.~.~.U.E.E.E.E.E.E.E.E.U.U.E.U.~.U.U.U.U.U.U.I.P.U.U.P.P.P.",
"P.P.P.P.I.P.P.P.L.P.L.L.U.U.U.U.U.U.U.U.U.~.U.~.E.U.U.~.U.U.U.U.U.U.U.U.U.U.U.U.U.U.U.U.U.P.P.U.P.P.",
"P.I.P.I.P.P.I.U.P.I.E.I.E.E.U.U.E.U.U.U.U.~.U.U.U.U.U.U.U.P.U.P.U.U.P.I.I.U.U.U.U.U.I.U.P.P.U.U.P.I.",
"U.U.U.P.I.I.U.U.I.E.E.E.~.^.!.!.!.^.!.!.T.P.P.I.I.U.U.P.U.P.P.I.L.I.P.L.P.P.U.U.U.~.U.U.U.U.U.U.U.I.",
"U.U.U.E.U.U.U.U.E.E.E.E./.`.[.[.[.`.`.`.^.U.I.K.P.I.P.P.K.#.O.X. .R J j J R R W N.I.T.U.U.U.U.U.U.U.",
"U.U.E.E.E.~.U.U.U.E.!./._.}..XXX.X}.`._._.Q.Q.T.P.D.o.L e = o O $ O o   O > O O = d ! H.U.U.~.E.U.U.",
"U.E.E.E.E.~.U.U.E.L.E.Q./.'.|..X.X}.(.(.`.`.W.n.I 6 : 0 = : $ o = = : = - , i ,     & p  .P.U.~.E.~.",
"E.~.~.~.~.U.U.U.U.U.I.U.U.U.U.^.`.(.(.Y.W.S.C 6 * $ ; - - - $ = , 5 4 s , , , ; : % o , ; f n.E.E.~.",
"E.....&.+.M.`. X'.'.'.U.P.N.{ U A h u f w > 6 e 7 o = = - o . - i e - : O = O = - $ o . . @ 5 { U.~.",
"U.v ,.y.#X*XoXR.Y.'.'.m.L 8 4 $ % $ - , . : j _ S g > : ;   O 7 s e = O o . . O o . .     o 5 > ) K.",
"U.D m 6.+X4X7X4XoX&.W 6 * % % % % o O       O p k D ] D b i ; , s , O o                     . . & ) ",
"U.] ,.p.;X4X3X-X7Xe.* 5 8 r 7 % # . = O .   o w , i k ( r.0.v 0 * o   o .   . O >         w j > . 1 ",
"I.+.F u.B.&X>X7X=Xg % $ 4 7 4 # # . o O = # , = = ; O , %.@Xq.q.7./ & + < < <   J T -     = o.@.A 0 ",
"I.} m p.+X#X-X>X_ - 4 @ 5 4 - $ - o # $ o - , - o o . O i ] r.k.;X%X9.f.%X1X=X/ , Y.S.w O O j W.!.n.",
"U._ -.<.t.p.#Xw.* * 4 % 5 4 # # = : o # # - - o , = O   ; a r.&X<X<X8XyXyXeXeXeX` o.].Z.w o ; V.Q.^.",
"E.+.G <.t.B.:Xb $ 8 4 % 4 - 4 8 - - % s e o o o $ #     O 1 k.1X2XrXyXuXqX4.n 6X6X8.w.M.^ i ; E `._.",
"U.n.m i.-X-X@X* 4 5 4 3 f r f V e - : d - . # # : O   o   q l.,X9XyXuXuXtXu.F 5X4Xh.d.3.[ R = h T.^.",
"L.N.` [ w.p.q.@ % % @ 3 B f 7 7 s : - , o O % o     . O   c g.c.9XuXuXuXuXwXwXtX#X>.:.1.,.S.d , D.U.",
"L.L.K.O.F p.[ @ o - % 4 4 7 B 7 = o # : = # #   o     .   5.c.%X0XuXuXuXuXuXuXrXx.=.a b v ).^ > m.U.",
"P.U.P.J.M.| q * ; o $ - % B B 7 - O o 4 - , -           > f.x.j.8XuXuXyXyXyX0X@X%.M.K.m.p H.T.J @.U.",
"U.U.P.P.K.[ x # = $ . : y A B 3 o . o - 3 : : o         c j.z.z.7X=X=X6X1XoXa.S.Q.T.T.H.A N.U.J.J.I.",
"U.U.P.P.P...0 o O % - : 7 B r 3 $ % $ o # o # 4 o       l t.y.;.e.+.@.#.@.G.(.`.`.).(.Q.O.D.U.U.U.U.",
"U.U.U.U.I.K.s . . % s $ # % 3 5 - - - o . . . % .     + l *.m { D.K.T.T.^.Y.!.!.T.^.T.T.P.P.U.U.U.U.",
"U.U.U.U.U.U.s o X O : . % $ 4 7 - % - , - 3 - %       & / +.J.I.I.P.P.P.I.P.U.I.P.I.P.U.U.U.U.U.U.U.",
"U.U.U.~.~.~.j     X o   % # 4 - o # - $ # - # . X X   7 J.P.P.I.U.U.U.U.U.P.P.P.I.U.U.U.U.U.U.U.U.U.",
"U.U.U.~.~.U.P   X $ .   O - $ % . - -   o # . $ 9 9   q $.N.P.I.L.U.U.U.U.P.U.U.U.~.U.U.U.U.U.U.U.E.",
"U.~.U.U.U.U.W 5 $ o       o : - # # % o . % o # c c   z 2.' n.H.K.U.P.U.U.U.U.~.~.U.~.~.U.U.U.U.U.T.",
"I.U.U.U.U.U.J.U = ; . .     O o $ # # # o @     M :.  z <.`  .W.'._.^.U.E.E.~.U.U.E.U.~.U.U.U.P.U.U.",
"P.U.U.I.U.U.U.n.4 w         o   . . . o . @   . 7.s.  2 v k / ^ '.'.~.~.E.E.E.U.U.U.U.U.U.P.P.I.P.U.",
"P.P.P.P.U.U.U.K.s t   .   o # . $ o . . @ @ . . s.j., p %.E j E ~.~.~.~.U.U.U.U.U.U.U.U.P.L.P.K.P.P.",
"P.I.P.P.P.U.I.P.L V . . $ o   % = .     . # # # ,.h.c O K R H b.'.'.'.^.U.U.U.U.U.P.U.P.P.J.J.J.J.J.",
"P.P.U.U.U.U.I.P.J.W   O t o   3 - $ o     4 3 o n v.,.- ! h ^ (.}.}.`.`.^.T.T.I.P.P.I.U.P.J.J.J.J.J.",
"P.I.U.U.U.U.I.P.I.o.O - P .   t -     o o w y . R $XOXk H Q ].`.`.`.`.`.).(.).T.P.P.P.P.P.P.I.K.U.U.",
"U.U.U.U.R.U.U.E.I.n.* : { $   J w .   #   t Y . Q #.$.) V |.XX.X|.}.Q.T.!.^.T.P.P.U.U.U.U.U.P.P.~.U.",
"U.U.U.U.U.U.U.U.I.D.s r n.w . P h %   5   w ^ - Q [.^ E Z.XX.XXX|._.T.P.I.P.P.U.I.U.U.U.U.~.U.U.U.U.",
"U.U.U.E.U.U.U.U.E.I.V B J.s   P Z @ . u = 5 C.y Q `.`.`.}.{.^.~.!.~.P.P.I.I.I.U.U.U.U.U.U.~.~.U.U.U.",
"T.U.U.U.U.U.U.U.P.P.U r J.P   L I @ o H 3 - m.P U ^.^.'.^.T.U.U.U.^.^.^.^.^./.^.'.^.'.^.~.U.U.~.U.U.",
"E.U.P.U.E.U.U.U.P.P.O.V J.X.$ J ~ $ . L t - W n.I P.U.U.T.U.T.U.^.`.`.`.`.`.[.[. X`.{.'.~.E.U.U.U.U.",
"U.U.U.U.U.U.U.U.P.I.J. .K.J.y N Z.w - J L - W L.m.K.U.U.'._._._._.`.`.`.`.[.`.[.`.[.^.~.U.E.U.U.U.U.",
"U.U.U.U.U.U.P.P.P.P.U.!.!.!.E Z W.P % Z X.4 Z L.I.P.U.I.^.Q._._.`.`.`.`.`.`.`.[.[. X{.{.~.^.T.U.U.I.",
"U.U.E.U.U.P.U.P.E.E.!._.`.`.C.H [.! # y J.B 7 H.U.~.U.P.U.P.P.Q.(._.(._._._.`._.`.[..X.X[.'.).U.U.U.",
"U.U.U.U.U.U.U.!.Q._._.[.`.}.|.A..XC.% w `.b.3 b._.).!.I.P.P.P.I.T.T.T.T.T.T.T.T.T.!.'./.!.^.T.U.U.U.",
"U.U.E.U.U.U.U.!./._.Q.'._.}..XXX.X].N 5 (.].w Q `.Q.T.J.I.P.U.U.P.K.P.P.P.K.U.U.P.U.E.U.U.U.U.U.R.E.",
"U.U.U.U.U.U.E.U.E.I.I.E.^.`.`.[.`._.~ 7 V.`.^ Y W.H.F.J.P.U.U.U.U.U.P.U.U.U.U.U.U.U.U.U.U.U.U.U.U.T.",
"~.U.U.U.U.U.U.U.I.E.I.L.!.!.!.!.!.!.H.y W T.T.H.T.K.K.K.U.U.U.^.'.).'.).'.T.T.U.U.U.U.U.U.U.U.U.U.U.",
"U.U.U.U.E.U.U.U.P.P.I.E.E.!.E.!.E.U.J.W W L.U.U.E.I.U.E.U.U.U.^._._._._.'.^.U.U.U.U.U.P.P.E.U.U.U.U.",
"U.U.I.U.P.P.P.I.P.P.L.E.^._._._._.!.U.K.N.U.U.U.U.U.U.E.~.~.~.~.~.T.T.U.T.U.P.P.U.U.P.P.U.E.T.U.U.U.",
"P.P.P.P.P.P.I.P.J.J.K.H.I.Q._.[._._.!.I.U.U.E.U.E.U.E.E.E.~.^./.^.U.P.E.P.P.P.U.P.U.P.U.U.U.T.U.U.U.",
"P.P.I.P.I.P.P.K.F.J.N.F.J.U.W.`._.]._.E.U.E.~.~.E.E.E.E.U.^.`.[.'.T.U.U.P.P.P.P.P.U.U.U.U.U.U.U.U.U."
};
