/* XPM */
static char *_1ae1fc5b04044198c35d1177c55387eLO1jUKph9MUPWuD6[] = {
/* columns rows colors chars-per-pixel */
"50 50 225 2 ",
"   c #020204",
".  c #0A0403",
"X  c #0E0907",
"o  c #04050A",
"O  c #0A060C",
"+  c #06090D",
"@  c #090A0E",
"#  c #170B09",
"$  c #070A11",
"%  c #0B0D13",
"&  c #0B0B16",
"*  c #130E14",
"=  c #0C1216",
"-  c #0E121B",
";  c #0E191D",
":  c #101017",
">  c #12141C",
",  c #13191F",
"<  c #20100C",
"1  c #33241D",
"2  c #0F1621",
"3  c #0E1A21",
"4  c #121621",
"5  c #141A24",
"6  c #191D27",
"7  c #161C29",
"8  c #161F30",
"9  c #231823",
"0  c #0F2123",
"q  c #14232A",
"w  c #1B212B",
"e  c #19252A",
"r  c #1D2432",
"t  c #142A31",
"y  c #1D2C34",
"u  c #1A373C",
"i  c #342427",
"p  c #232737",
"a  c #212936",
"s  c #262D3D",
"d  c #302C35",
"f  c #28353B",
"g  c #570F12",
"h  c #461A1D",
"j  c #631E19",
"k  c #56241A",
"l  c #672417",
"z  c #732817",
"x  c #44182A",
"c  c #462826",
"v  c #5A262A",
"b  c #4F3B32",
"n  c #553434",
"m  c #6F352E",
"M  c #5F4235",
"N  c #70422E",
"B  c #6A4839",
"V  c #794236",
"C  c #1E3C40",
"Z  c #243C44",
"A  c #283844",
"S  c #373A43",
"D  c #483843",
"F  c #703A42",
"G  c #1F434A",
"H  c #214448",
"J  c #24454A",
"K  c #2C444D",
"L  c #38464C",
"P  c #2B4C54",
"I  c #324B56",
"U  c #334A57",
"Y  c #29565A",
"T  c #35525C",
"R  c #3D4F63",
"E  c #2C5E64",
"W  c #385A67",
"Q  c #2C676A",
"!  c #36646D",
"~  c #376B72",
"^  c #39777D",
"/  c #534D53",
"(  c #664B44",
")  c #6D4B4C",
"_  c #774D54",
"`  c #665459",
"'  c #7A5856",
"]  c #545C66",
"[  c #675A66",
"{  c #735962",
"}  c #4C626C",
"|  c #446A77",
" . c #556974",
".. c #5C6A75",
"X. c #47717F",
"o. c #6F6971",
"O. c #667979",
"+. c #BA1D1C",
"@. c #99311C",
"#. c #BA290C",
"$. c #8F312C",
"%. c #943738",
"&. c #B52826",
"*. c #AD342C",
"=. c #C31C22",
"-. c #CD342E",
";. c #D13531",
":. c #E33537",
">. c #A5401E",
",. c #93452E",
"<. c #93543E",
"1. c #AF4B39",
"2. c #AB593B",
"3. c #8A603E",
"4. c #A06B35",
"5. c #CA4A0C",
"6. c #CD4F32",
"7. c #D47030",
"8. c #EC712C",
"9. c #823C44",
"0. c #8D4F4F",
"q. c #855853",
"w. c #A95747",
"e. c #AF534C",
"r. c #936851",
"t. c #A76854",
"y. c #B76654",
"u. c #B26F51",
"i. c #9A776B",
"p. c #B16E67",
"a. c #AD7B66",
"s. c #BC7878",
"d. c #CD5249",
"f. c #CC6B56",
"g. c #CA7971",
"h. c #77827E",
"j. c #DA983E",
"k. c #E98A2D",
"l. c #AF8B53",
"z. c #BB8776",
"x. c #EA8E46",
"c. c #F2A550",
"v. c #D5876C",
"b. c #CA8B70",
"n. c #D28F76",
"m. c #D6937A",
"M. c #E98675",
"N. c #E2AE64",
"B. c #FFCF6C",
"V. c #3A7C82",
"C. c #4B7483",
"Z. c #487B87",
"A. c #4D7B8A",
"S. c #597786",
"D. c #537A85",
"F. c #527E8D",
"G. c #617A87",
"H. c #DA7886",
"J. c #388688",
"K. c #3C8D91",
"L. c #3D999A",
"P. c #3EA5A5",
"I. c #43858D",
"U. c #56818B",
"Y. c #4B8894",
"T. c #548494",
"R. c #568797",
"E. c #568798",
"W. c #588798",
"Q. c #568B9B",
"!. c #598B9B",
"~. c #429598",
"^. c #4C939C",
"/. c #54929F",
"(. c #658691",
"). c #5A8FA0",
"_. c #489CA3",
"`. c #4D9EA5",
"'. c #5495A2",
"]. c #5991A1",
"[. c #529AA5",
"{. c #529FA9",
"}. c #45A2A6",
"|. c #4CA0A6",
" X c #47A7AA",
".X c #4CA4AA",
"XX c #4AAAAE",
"oX c #51A2AA",
"OX c #4BADB1",
"+X c #52ABB3",
"@X c #4AB2B4",
"#X c #4BB7B9",
"$X c #4ABBBC",
"%X c #50B6BB",
"&X c #4AC0BF",
"*X c #4AC3C2",
"=X c #4AC9C7",
"-X c #4ACBC9",
";X c #A58D8D",
":X c #A8AE98",
">X c #D68D82",
",X c #CA9086",
"<X c #D89687",
"1X c #E79495",
"2X c #DDA689",
"3X c #DAA596",
"4X c #E0A49E",
"5X c #C8A2AE",
"6X c #DABABA",
"7X c #E4B6AA",
"8X c #EBB0AD",
"9X c #DFCB9E",
"0X c #EBC480",
"qX c #EECDB4",
"wX c #DE9DC4",
"eX c #C9B8C6",
"rX c #DCBAC3",
"tX c #EAD1C6",
"yX c #FDE0CE",
"uX c #EFDEE8",
"iX c #EAE9E3",
"pX c #FFFBEA",
"aX c #FAEDF7",
"sX c #FFF0F6",
"dX c #FFFEFF",
/* pixels */
"W.W.!.Q.W.W.Q.W.W.W.W.Q.!.!.!.).!.!.].].].!.).!.].).).).).).).).!.!.].!.!.].!.!.!.].!.!.K C.!.W.W.!.",
"Q.W.!.W.W.!.W.W.W.W.W.W.!.!.!.!.!.!.).!.!.].!.!.).).).).!.).).!.!.!.!.!.!.Q.!.].!.!.W.D.0 C.W.W.W.W.",
"W.!.Q.W.W.W.W.!.W.!.W.E.!.!.!.!.!.!.!.!.!.].!.!.).).!.).!.!.!.!.!.!.!.!.!.!.!.!.!.!.!.W & X.W.W.!.W.",
"W.W.W.W.!.W.Q.!.!.!.!.).).).!.!.!.!.!.!.!.].!.!.!.!.!.!.!.W.!.!.Q.!.!.W.!.!.!.!.!.!.!.A = C.W.W.Q.Q.",
"!.!.W.!.Q.!.!.!.).Q.).).'.'.'.'.[.[.'.'./.!.Q.Q.!.!.!.!.W.W.W.W.W.W.W.W.Q.U.| !.!.!.C.4 4 F.W.!.W.Q.",
"!.!.!.!.R.!.!.!.).).).).{.OXXXOXXX+XXX.X'.!.Q.Q.W.W.W.!.W.!.!.W.!.W.!.!.!.| Z ).].].R O w W.!.!.!.!.",
"!./.!.!.L C./.!.).!.].{..X@X&X=X*X@X X X.XoX[./.W.!.W.W.W.!.!.!.!.!.!.!.!.J u [.oX~.6   K ).!.).!.!.",
"!.).].R.e K !.!.Q.Q.].`.`..X%X*X*X@X X X X X|./.R.!.W.W.!.!.!.!.!.!.].Q.T.5 u oXoXW o . W ].].W.W.].",
"].).).W.t 5 U.!.R.T.Q.Q.).W.].`.XX X}.}. X|.Q.R.F.R.!.R.!.!./.!.^.T.].Q.!   Z !.F.r o : C.Q.Q.I F.].",
").).].[.Z $ V.@X! ! [.Q.W.W.E.E./.'.^./././.!.!.Q.[.|.[.oXoXoX{.^ V.].Q.A   U R.I + o r T.Q.T y W.!.",
")./.| Y.Y $ G #XE 2 I.].F.Q.W.W.Q./.!./.'.[.'./.[..XXXXXXX@X@X@XY Q oXA.> o ! F., @   I W.| % K !.!.",
"!.Q.e T ~ % - C.| 2 Z T.U U.!.'..X X.X.X$X#X.X.X.XXXXXXXXX#X=X=XC ~ =XQ   & V.A * @ = C.C., + | W.W.",
"!.W.e , X.5 $ y Z.q 7 ! r T Q./.[.oXoXOX$X#XXX X X X}.L. X@X&X~.- Q `.q o q ~ > +   K F.y   e T.W.!.",
"!.W.a   K U 5 $ E G - C 7 7 Z A.!.].[.OX@XXX XXX@XXXK.G XX@XXXQ o W ! & + s s     , A.T @   U Q.!.W.",
"!.!.T   @ U 6 % 4 K % = 4 - : s T.oXXXXXXXXX@X&X-X=XP.t P.$X_.t $ ! Z o   > +   o Q V.2 + ; I. X/.C.",
"!.!.X.%   ; e + + - = & r - & O r ! ^.[.[.oXoX+X$X*XJ.; J.#X^ % 2 Q - o o       t K.t o o P @X~.H K ",
"!.!.T.y + + & $ $   $ - 7 - o + % * T !.!.].].].'.+XE o Q XXH   0 C o   o o   + Q C     ; I.V.q $ V.",
"!.W.!.| % + - 5 > =   2 r - o o = > q X.!.W.W.!.).'.Z o Q J.% + q %       o   q y   o $ Y U %   A '.",
"Q.W.Q.R.Z % r 4 - - $ - w 4 + % , > % w C.W.'.'.'.Q.t $ Q G     - $ O       o -   o o 2 q     = C.!.",
"W.W.Q.W.Z.q a 7 4 2 - 4 4 5 + - 5 % > > a I..XOX+XJ.% % G - o       $       o   o + O %       Y [.!.",
"!.!.W.Q.Q.! = 6 a 8 7 7 > - - % 4 > & A A A L.-X*XY   + ; + @   o         & $ o o o & O     q Y.'.!.",
"!.!.W.W.Q.W.K = w r s w p * % > - 5 & 2 S w 3 L.$Xq       +     o                 + + +   % R A.!.!.",
"!.!.W.W.W.W.T.y > p 5 > , w w s r - & 7 A 4 O % C o       +     $ o             & +     $ O % u Y.Q.",
"!.!.!.!.!.R.Q.C.A = @ * w w w p A 4 & 7 4 & &   o o     @ + +   o o o +                     O / _ 0.",
"!.!.!.!.).!.!.!.U.H % = w 6 * , - - = - ; @     o o     o +     +       o o       + O     x e.3X2Xw.",
"!.).!.).].).).).].!.W r > 5 , w = + + - , @ o o . o                           o @ > o   O x p.1Xe.z ",
"!./.!.].).).).).).).!.U.U q * * % + + = * # # o + @   o         % +     o - o   + & o   O ] 6X8Xy.k ",
"!.!.!.!.!.!.).).).).].!.!.} o.i.3.n M q.r.( X . X o o         o     o     $       > *   d 5X8X<Xy.l ",
"!.!.!.!.!.!.).).!.].).!.S.eXdXsXpXqX2Xv.b.1 . X X       .   .     .               O o   F rX6Xg.w.l ",
"W.!.!.!.!.!.!.).!.Q.(.h.5XuX;X5XdXdXdX0X4.1 1 # .     . .             o       o + o & [ 6XtX6Xg.w.z ",
"W.W.!.W.!.!.!.!.O.r.j.N.9X5Xg 9.aXdXdXyXf.,.N l < X   . X . . .           + o   & D 0.s.s.;Xa.w.,.j ",
"!.W.W.W.W.W.!.W.l.k.7.k.0XaX5XwXdXdXdXsX1Xw.N t.q.B N n c # < .         * w d ` i.7X3X,Xg.f.w.w.,.z ",
"Q.W.!.Q.!.!.W.U.4.B l 5.j.tXdXdXdXdXdXdX4Xd.y.v.2Xa.a.1XH.q.B c i X o   d 6XtXz.b.2X,X3X>X1.l g b } ",
"W.W.!.!.!.!.!.U.B D.U.' u.9XpXpXdXdXdXaX1X*.f.v.n.2X7XqX4Xn.y.t.` ; = % : ;X3Xu.,.b.>Xp.<.m k 1 / !.",
"!.!.!.!.!.!.!.F.U R.!.!.Y.O.:XtXiXuXeXwXH.-.d.g.m.7XyX4X,Xm.a.r.S e ; 5 - B u.y.0.0.g.z.u.l L U.!.].",
"!.!.!.!.!.!.!.Q.U.!.!.!.!.Q.J.h.G.S.A.S.0.%.;.-.d.g.M.f.b.v.2.v r 6 = - 4 V 1.&._ A.` ( ) b f A.!.!.",
"!.!.!.!.!.).!./.!.!.!.!.!.E.W.W.Q.`.|. X|.Y...%.@.&.-.*.1.@.$.h 7 4 & % * $.:.=.[ !.!.!.R.!.!.!.!.!.",
"!.!.!.!.!.!.!.!.!.!.W.Q.!.Q.W.W.Q./.`./.`.`.[./.F. .[ F v h g i s 2 $ & > *.:.9.^.oXoX/.!.!.).).!.!.",
"!.!.!.!./.).!.!.W.Q.W.W.W.W.Q.Q.Q.Q.Q.W.W.Q.W.W.W.W.!.W.T.T.X.a r = + + n ;.;.{ @XOX+XoX!.).!.!.!.!.",
"!.!.!.!.).!.!.(.W.W.Q.W.W.W._._._._.'.Q.W.W.!.!.D.o.o.S.`..XJ.4 @ $ $ & %.:.0.`.OXOXoX/.!.!.).!.!.!.",
"!.!.!.!.!.!.W.!.!.W.W.'.'.`._.}. X|./.!.Q.W.U.` y.M.c.b.O.`.Z.4 - + O F d.=.U.OXOXOX+X+X'.[./.!.!.!.",
"!.!.!.!.!.W.!.!.!./.'..XXXXXOXOXXX'.!./.!.Q.} ( 6.8.4.N.b.[ } 4 & 9 v *.:.' |..XXXOX*X*X+XoX|.!.!.!.",
"].).!.!.!.!.!.'.oX.X.XXXXXOX*X=X*X@X|..X%XJ.S / z m r.c.B.x.7.<.m %.&.+.@.S././././.oXoX[.'./.!.!.].",
"!.!.!.!.!.!.!.'.oX.X[..X.X@X&X=X*X@XXXOX$XQ f U / 0.8.k.c.7.8.>.6.=.=.9.S.W.!.!.!.!.!.!.).!.!.!.!.!.",
"!.!.!.!./.!.!.!.!.].!.).`..XOXOXOXXX.XXX X^ J T d @.#.7.2.` _ $.+.F [ W.!.!.!.!.!.!.!.!.!.!.!.!.!.!.",
").!.!.).!.!.!.!.!.!.!.!.].'.'.'.'././././.Y.P f Z.] >.8.{ !.!.U.A.`.{.{.oX[./.!.!.!.!.!.!.!.!.!.!.!.",
"!.!.!.!.!.!.!.!.!.!.!.!.Q.'./.'./.!.!.W.!.Q.C.W C. .7.5.S.!.!.{..X.X.X.X.X/.!.!.!.!.!.W.!.!.!.!./.!.",
"W.W.!.!.!.W.W.Q.W.W.!.!.[..X.X XoX/.!.!.!.!.!.C.f ] V ' ).).].'.].].].).!.!.!.W.!.!.!.!.!.!.!.!.!.!.",
"!.W.!.W.W.W.W.W.F.T.T.T.Q.`. XXXXX|./.].Q./.!.).| K T W.!.'.[.[.[.!.!.W.!.W.W.!.W.Q.W.!.!.!.!.!.!.!.",
"!.W.W.W.W.W.W.R.Y.R.Y.F.T.Q.`.XXXXXXoX].!.!.).).).).!.].!.[.+XOX.X).W.W.W.W.W.W.!.W.!.!.!.!.].!.!.W."
};
