/* XPM */
static char *fcde4e55136f4ef5f6a930db2944d477ZnB4R6SVVh3PbTrs[] = {
/* columns rows colors chars-per-pixel */
"50 50 242 2 ",
"   c #6C0115",
".  c #760415",
"X  c #1F5E24",
"o  c #285E27",
"O  c #246329",
"+  c #256D2A",
"@  c #27742D",
"#  c #297A2F",
"$  c #276735",
"%  c #386437",
"&  c #2C7C31",
"*  c #387637",
"=  c #677A16",
"-  c #60722A",
";  c #2C6D45",
":  c #346F4E",
">  c #3A7963",
",  c #546847",
"<  c #676B50",
"1  c #657B5A",
"2  c #4C7971",
"3  c #890918",
"4  c #900F18",
"5  c #AA101C",
"6  c #8D261B",
"7  c #B3361B",
"8  c #8A0D24",
"9  c #990426",
"0  c #980B30",
"q  c #98153B",
"w  c #A6072A",
"e  c #B3022D",
"r  c #AA182B",
"t  c #AC0432",
"y  c #AA0A37",
"u  c #B8053A",
"i  c #A9153A",
"p  c #B5193A",
"a  c #94262C",
"s  c #A72B2C",
"d  c #C00339",
"f  c #C22A2A",
"g  c #BD5239",
"h  c #887A3C",
"j  c #C95032",
"k  c #D0723D",
"l  c #9A1841",
"z  c #AE0E43",
"x  c #B90843",
"c  c #BC0A44",
"v  c #A81A48",
"b  c #BA164A",
"n  c #BB0D52",
"m  c #BB1655",
"M  c #953150",
"N  c #AC2A49",
"B  c #A92756",
"V  c #B62559",
"C  c #A9315B",
"Z  c #BE1F68",
"A  c #BA2A66",
"S  c #B5336A",
"D  c #B9356A",
"F  c #B93976",
"G  c #C3084A",
"H  c #C4124D",
"J  c #C40C55",
"K  c #C61855",
"L  c #C5225B",
"P  c #C13255",
"I  c #C61D68",
"U  c #C62668",
"Y  c #C92B75",
"T  c #CD3470",
"R  c #C93777",
"E  c #C43C7D",
"W  c #8B4D57",
"Q  c #BE4E46",
"!  c #97536D",
"~  c #B04D76",
"^  c #93716E",
"/  c #976B77",
"(  c #977476",
")  c #AF7175",
"_  c #C7554A",
"`  c #D26C50",
"'  c #CB4B72",
"]  c #D76662",
"[  c #2B8232",
"{  c #668816",
"}  c #6D8C19",
"|  c #75892A",
" . c #769627",
".. c #7FA329",
"X. c #35866C",
"o. c #6F8A52",
"O. c #79A35F",
"+. c #4C8278",
"@. c #658677",
"#. c #729070",
"$. c #848D39",
"%. c #8AAC3A",
"&. c #8C8C52",
"*. c #91AF4E",
"=. c #8B8B71",
"-. c #9A877B",
";. c #97A470",
":. c #A6B26A",
">. c #4E7F83",
",. c #6E7387",
"<. c #76768D",
"1. c #6E7E93",
"2. c #C63C81",
"3. c #D83C91",
"4. c #9B5982",
"5. c #B64F88",
"6. c #B85786",
"7. c #987387",
"8. c #997597",
"9. c #BA6787",
"0. c #BB6995",
"q. c #A97490",
"w. c #BB7695",
"e. c #C64988",
"r. c #C35688",
"t. c #C3548C",
"y. c #C85994",
"u. c #D05093",
"i. c #CC6794",
"p. c #C66899",
"a. c #C3759E",
"s. c #CA6CA3",
"d. c #D469A8",
"f. c #C978A4",
"g. c #D476A9",
"h. c #CF78B2",
"j. c #D47EB3",
"k. c #4B8584",
"l. c #56838C",
"z. c #55908B",
"x. c #4F8694",
"c. c #538495",
"v. c #598894",
"b. c #578798",
"n. c #598799",
"m. c #568C9B",
"M. c #598B9B",
"N. c #49979B",
"B. c #55919E",
"V. c #5A979F",
"C. c #668889",
"Z. c #66918A",
"A. c #668898",
"S. c #7B849B",
"D. c #749093",
"F. c #49A29B",
"G. c #75A28A",
"H. c #5A8FA0",
"J. c #499CA3",
"K. c #4E9EA6",
"L. c #5495A1",
"P. c #5991A1",
"I. c #529AA5",
"U. c #529FA9",
"Y. c #5F9CA8",
"T. c #6A8FA0",
"R. c #6994A4",
"E. c #7899A6",
"W. c #49A2A6",
"Q. c #4DA4AA",
"!. c #4AAAAE",
"~. c #51A2A9",
"^. c #58A0A8",
"/. c #4BAEB1",
"(. c #51ADB4",
"). c #4BB5B7",
"_. c #6EA6AD",
"`. c #49C0BE",
"'. c #4BC3C2",
"]. c #4AC9C6",
"[. c #9F8784",
"{. c #84879B",
"}. c #A7878A",
"|. c #A6968C",
" X c #BD839A",
".X c #AC9796",
"XX c #B6959C",
"oX c #92A68D",
"OX c #ACAF96",
"+X c #988BA0",
"@X c #839DA9",
"#X c #BA8CA3",
"$X c #BD95A8",
"%X c #B198B1",
"&X c #8CA4AF",
"*X c #B7A8A6",
"=X c #B9B6AA",
"-X c #ADAEB5",
";X c #C1829B",
":X c #CB9097",
">X c #C4BA94",
",X c #C987AB",
"<X c #D38FAF",
"1X c #C396AB",
"2X c #CD8BB4",
"3X c #D588B7",
"4X c #CB96B6",
"5X c #D397BA",
"6X c #CAA7BA",
"7X c #CDB8B1",
"8X c #C5BAB8",
"9X c #B9C3AB",
"0X c #D0D8A3",
"qX c #C9CEB0",
"wX c #C6C5B9",
"eX c #ADB7C2",
"rX c #B7B7C3",
"tX c #D99DC2",
"yX c #CEA9C1",
"uX c #D8A8C8",
"iX c #C6B9C3",
"pX c #D6B6CA",
"aX c #DDB8D2",
"sX c #E0B1CC",
"dX c #E2B8D2",
"fX c #ABC5CD",
"gX c #CACAC6",
"hX c #D5C8CA",
"jX c #CDD1C2",
"kX c #D4D9CA",
"lX c #CFC2D5",
"zX c #D8CAD6",
"xX c #DBDBD5",
"cX c #E3C5DB",
"vX c #E2D4D9",
"bX c #D9E2D4",
"nX c #E4E9D5",
"mX c #DFDCE3",
"MX c #ECCEE8",
"NX c #E4D9E4",
"BX c #E9E9E8",
"VX c #EAF2E6",
/* pixels */
"n.n.M.n.n.n.n.m.n.m.n.m.M.M.M.M.M.H.M.P.H.M.M.M.M.P.m.P.H.P.H.M.H.n.M.M.M.M.m.M.H.M.M.n.n.m.M.n.M.n.",
"n.m.n.m.m.n.n.n.n.n.n.n.M.M.H.M.M.M.M.H.H.M.H.M.M.P.R.P.m.H.P.M.m.H.H.m.H.M.M.M.M.M.M.M.M.m.n.n.n.n.",
"n.n.n.n.n.m.m.n.n.m.n.n.M.M.M.M.P.M.M.M.H.H.H.H.H.H.M.M.M.M.M.M.H.n.H.n.M.M.m.M.M.M.M.M.m.n.M.n.M.n.",
"m.n.m.n.n.n.n.M.M.M.M.H.H.M.m.M.M.M.M.M.m.m.m.m.M.M.M.M.A.n.M.M.n.n.b.H.n.M.m.H.M.m.M.M.M.n.n.n.n.n.",
"M.M.n.n.m.M.M.M.H.H.M.H.L.I.L.L.L.I.I.V.B.n.m.n.m.m.P.S.1X+Xn.M.H.b.b.b.M.M.M.M.H.M.M.M.n.M.M.n.n.n.",
"M.M.M.M.M.M.M.B.H.H.H.H.U.Q././.(.!.!.Q.I.M.m.m.n.b.A.#X6X5X{.n.b.b.b.b.M.m.H.m.P.P.P.H.m.M.M.M.m.B.",
"M.M.H.H.H.M.M.M.m.M.P.U.!./.'.].'./.!.Q.W.K.K.B.n.n.8.4X6XuX1XA.H.1.8.{.M.I.~.~.~.~.!.I.P.H.m.H.P.P.",
"M.P.H.H.H.V.M.M.m.m.H.K.K.Q.).'.'./.I.8.7.I.K.B.b.1.f.yXuXaXyX{.1.6.g.}.n.L.Q.Q.~.~.~.I.H.H.H.H.H.P.",
"P.H.H.R.m.m.H.P.m.M.n.m.m.M.m.I.!.F.D.p.e.4.,.>.>.8.2XuXpXaXuXw.~ i.<X;XA.m.B.M.m.m.H.H.1.B.P.P.H.P.",
"P.H.H.I.U.Q.(.(.~.~.I.B.n.n.n.m.B.N.^ w.p.5.~ ,.1.0.s.j.uXaXtXy.r.a.5Xg.<.n.c.m.c.1.b.H.J.L.1.P.M.M.",
"H.H.m.K.Q.!.).).!.~.~.P.M.M.m.x.k.+.7.0.0.y.E ! ,.5.F U i.sXd.E t.g.<Xd.<.m.m.b.x.H.R.R.H.1.B.>.M.M.",
"m.m.m.H.P.P.L.P.m.B.P.P.H.H.m.+.O $ / w.y.6.e.F F F x U L g.E E i.i.g.d.4.B.N.m.T.-XrXlXeXB.1.H.n.n.",
"n.M.M.n.M.n.m.m.L.I.I.U.I.M.c.+.X O ^ 0.5.t.e.F A u u L K K U e.y.i.u.T R <.&XeXpXzXmXmXeX>.H.>.n.n.",
"n.n.n.n.n.M.m.L.~.~.!.(.I.2 $ $ * , ! 0.y.2.E Y m u p K H G K R e.U U T 2.a.pXaXzXmXVXmXR.H.H.H.m.n.",
"m.M.M.M.m.M.R.%X%X%X8.<.A.2 X X , S m F e.Z U V z i p u u K T Y U b T T 2.2XiXzXmXBXVXfX!.Q.Q.K.L.n.",
"m.M.V.M.M.M.E.lXlX6X4X#Xw.7.< % , F m z V m m T p y p e p P ' m x H Y R E 5XaXNXBXBXBX_.Y._.Y.(.~.I.",
"M.B.M.M.m.m.V.9XNXcXpXtXf.a.p./ < ~ U n i y H ] p r ` 5 _ p L N p b I U ' uXcXNXNXdX2X0.a.,X4X_.!.!.",
"n.M.M.M.m.m.Z.:.gXMXcXsX4X,Xp.0.r.R U m z y N ] p s ` 6 j g _ _ y z b H t.aXaX3Xy.t.5.s.2XuX%XR.P.L.",
"n.M.B.M.Z.#.O...*.hXMXMXdXtX2Xf.p.r.I H u N L ] j 3 j g 7 k _ 4 9 t t w p.j.u.e.5.p.s.3XsX5X{.L.m.M.",
"n.n.z.Z.*.%.....| ) g.d.h.d.s.f.a.i.T d t p K L s a 7 6 4 j 7 s ] a 9 y ' 2.2.y.s.h.2XsX3X8.U.Q.I.m.",
"M.M.n.@.| { } { h i.e.' Y Z Z Y ' e.u.H w b H K x 5 6 6 6 7 5 j Q 6 9 t Z Z F y.y.h.tXj.0.A.I.L.P.M.",
"M.M.m.@. . . .{ $.) t.s.y.2.Y m n m R R w e d K c 5 a 6 6 _ f j a . 3 0 V A F 2.y.h.d.5.1.H.H.n.M.M.",
"M.M.M.v.Z.o.= = } :.a.i.h.y.2.I n u x U i 9 e H c e 5 q A P H p . . 8 v A V A 2.u.y.5.1.H.H.n.H.M.M.",
"M.M.M.M.m.@.{ = = $.>X:Xd.d.u.Y H x u x b 9 w d u e b U U A b e   . z V V B Z Y 3.5.1.N.c.n.H.n.V.M.",
"M.M.M.M.P.M., = } $.$.>X:Xe.3.Y J u u u G z 9 d e c K I U A B w   0 V B C A U Y ! 1.n.n.M.M.M.M.M.M.",
"M.M.M.M.P.M.>.1 - &.) ;X:X' ' Y J G d u d x w u e H H I L D B 9 8 V V C A I C W 2 m.m.n.M.M.M.M.M.M.",
"M.M.M.V.H.H.T.+X.X$X1X1XXXw.9.' U G n G G G u e e u G K m A B 0 v N B V A ~ }.=.#.<.C.c.M.M.M.M.M.H.",
"M.V.M.M.M.&X-XyX6X6X6X1X1X X Xa.r.T J J J J n t w t G G m V v q l i ~ ) #X=X8X=X=XOXoX=.#.@.v.z.M.M.",
"M.M.M.M.@XrXeXrXgXzXlXiX6X1XXX Xw.i.~ U K m n y w 9 t u u v q l M ~ q.XXXX7XwXjXjXqXjX9XOXOX;.#.@.v.",
"n.M.M.M.@XE.R.R.R.@XeXiXhX6X4X,Xa.p.g.d.d.u.E U v q y z i q q B F 6.9.a.;X1XpXkXxXbXbXbXbXkXkXqX:.@.",
"n.n.n.n.n.E.E.@XE.@X@X-XaXuX5X,Xf.p.j.<X,Xi.u.t.t.E S A v q M F 5.y.p.,X4X1X6XpXxXnXVXVXBXnX0X:.o.>.",
"n.M.m.n.b.n.M.H.T.E.Y._.%X1X,X,Xf.p.p.a.1Xa.i.r.5.~ F C M B F 5.p.p.s.f.2X5X5X5XpXnXnXkX0X:.o.>.>.n.",
"b.n.n.m.M.M.n.n.m.I.~.~.I.+.% , < < , , @.}.;X9.~ ~ W M ~ F 5.u.d.d.d.h.3X5XuXuXaX7X;.&.o.+.>.c.c.c.",
"M.m.M.M.M.M.M.n.n.M.H.m.m.2 X X @ @ & & # 1 ( / ( / ! W ! 6.a.,X3X3Xj.j.tXuXaXdXcXiXC.v.m.m.n.n.M.M.",
"M.M.M.M.M.M.M.M.M.M.M.M.M.> X X @ # [ [ # =.( 7.7.( ( ^ ^ ^ }.1X6XsXdXsXdXdXcXcXNXvX@XM.H.n.H.n.M.M.",
"M.M.M.M.P.M.M.M.M.M.V.M.m.+.> : + + # # * =.}.}.|.q.-.-.-.( < * #.oX-XiXhXhXvXxXvXkX@Xv.n.m.H.H.M.M.",
"B.M.M.M.M.M.M.M.M.M.m.H.M.M.n.2 X X @ @ * -..X}.XX}..X}.[.-.< @ @ O O : E.E.@X&X@XD.M.m.H.H.H.H.H.M.",
"M.M.M.M.V.M.M.M.M.m.n.m.M.n.H.k.: ; $ + * oX.XXX*XXXXX.X|.-., + @ $ ; > ^.Q.I.~.^.U.U.L.H.M.H.M.H.M.",
"M.M.M.M.n.M.V.M.n.n.n.b.n.n.n.m.m.k.$ X % ;.*X=X7X*X=XOXOX&.o o O > !.!.!.!././././.(.U.H.H.M.M.M.M.",
"M.M.M.M.M.M.n.n.m.n.n.n.n.c.J.J.J.N.$ $ $ ;.=XwX=XwXgX8XOX1 $ $ O X.!.!.!.!.!.!./.!.U.P.m.M.m.m.M.n.",
"n.M.M.M.m.m.n.n.n.n.m.L.L.I.J.W.W.J.N.l.l.#.9XjXgXkXjXqXoXx.J.J.F.!.!.!.!.!.!.!././.(.(.I.L.L.M.n.M.",
"M.H.M.M.M.M.n.m.m.H.L.Q.!.!././.!.I.M.m.L.Z.OXkXkXbXjXOXC.H.c.J.!.W.W.W.W.Q.!.!.!./.'.'.!.Q.K.m.M.M.",
"M.M.V.M.M.M.M.P.Q.Q.Q./.!./.'.].'.!.Q.W.).(.oXqXxXjX&XZ.n.n.1.L.B.B.B.B.B.B.P.L.V.I.^.^.L.L.B.m.M.V.",
"H.M.M.M.M.M.m.P.U.Q.K.U.W./.`.].'.).!.!.'.'.F.G._.V.m.c.n.n.H.>.n.c.n.n.n.n.n.M.n.M.n.M.P.M.M.m.M.M.",
"M.M.V.M.m.M.M.M.m.H.m.H.J./.!./.!.!.!.!.!.!.Q.!.F.x.c.c.x.H.H.H.m.n.m.n.m.m.M.M.M.M.M.m.M.M.M.M.M.M.",
"M.M.M.M.m.M.H.M.M.M.M.M.L.L.L.L.V.I.B.B.B.B.B.L.V.M.b.b.x.1.H.J.Q.Q.Q.K.~.L.M.M.V.M.M.m.M.M.M.M.P.M.",
"M.M.M.M.M.M.M.M.M.M.m.M.m.L.P.L.B.M.n.n.b.n.M.M.M.M.B.M.H.H.H.U.~.!.Q.Q.~.I.M.M.M.M.n.n.n.M.M.M.M.M.",
"n.n.n.M.n.n.m.n.n.M.n.m.I.!.Q.Q.Q.B.M.M.M.M.M.M.M.M.m.B.H.H.H.P.P.P.P.m.P.m.n.n.n.n.n.M.M.H.M.M.M.M.",
"n.n.n.n.M.m.n.m.c.c.c.H.m.J.Q././.J.L.H.H.>.H.H.H.H.H.H.H.P.I.U.I.m.n.M.n.m.n.n.n.M.n.m.M.M.M.M.M.M.",
"n.M.n.n.n.n.n.c.x.c.>.>.>.H.U./././.J.H.H.H.H.H.H.H.H.H.H.L.!./.~.m.M.n.n.n.n.n.n.M.m.m.M.V.M.M.M.n."
};
