/* XPM */
static char *_0154409de624f6086d27ab041bc8498szYXIbR2LWc10NLf[] = {
/* columns rows colors chars-per-pixel */
"50 50 231 2 ",
"   c None",
".  c #760415",
"X  c #6C0115",
"o  c #687B18",
"O  c #63780D",
"+  c #717432",
"@  c #526214",
"#  c #7E664F",
"$  c #797D5B",
"%  c #890918",
"&  c #95001F",
"*  c #8D1813",
"=  c #AE191B",
"-  c #A2001F",
";  c #8D261B",
":  c #B3361B",
">  c #990426",
",  c #980B30",
"<  c #98153B",
"1  c #8A0D24",
"2  c #A4032B",
"3  c #A80A28",
"4  c #B3022D",
"5  c #AC0432",
"6  c #AD0B3B",
"7  c #A80935",
"8  c #B60433",
"9  c #BC033D",
"0  c #B7063A",
"q  c #A9153A",
"w  c #B5193A",
"e  c #AA182B",
"r  c #952629",
"t  c #93262E",
"y  c #A22924",
"u  c #A13728",
"i  c #A42731",
"p  c #B32933",
"a  c #C00339",
"s  c #C22A2A",
"d  c #BD5239",
"f  c #887A3C",
"g  c #CC4836",
"h  c #C75834",
"j  c #C75126",
"k  c #D0723D",
"l  c #9A1841",
"z  c #AE0E43",
"x  c #BD0543",
"c  c #BC0A44",
"v  c #B70B44",
"b  c #A81A48",
"n  c #BD134E",
"m  c #B81749",
"M  c #BB0D52",
"N  c #BB1553",
"B  c #BB1756",
"V  c #953150",
"C  c #A1254D",
"Z  c #AD2454",
"A  c #A52959",
"S  c #B42455",
"D  c #B5235A",
"F  c #B9285C",
"G  c #A9315B",
"H  c #B72F45",
"J  c #BE1F68",
"K  c #B92A66",
"L  c #BA346A",
"P  c #B93976",
"I  c #B13466",
"U  c #C3054C",
"Y  c #C40C4A",
"T  c #C10642",
"R  c #C4124D",
"E  c #C30C52",
"W  c #C70E5C",
"Q  c #C61855",
"!  c #C5225B",
"~  c #C13255",
"^  c #C61D68",
"/  c #C32462",
"(  c #CA2363",
")  c #C2266A",
"_  c #C7296B",
"`  c #C82B74",
"'  c #C43C7D",
"]  c #C83777",
"[  c #D13378",
"{  c #CB356C",
"}  c #944B5B",
"|  c #BE4E46",
" . c #816953",
".. c #96556C",
"X. c #B9477B",
"o. c #AD5576",
"O. c #BA587D",
"+. c #AC466E",
"@. c #9B6D78",
"#. c #977676",
"$. c #966E6C",
"%. c #B57A72",
"&. c #C7554A",
"*. c #D26C50",
"=. c #C8437E",
"-. c #CE506A",
";. c #D76662",
":. c #668816",
">. c #6D8C19",
",. c #769628",
"<. c #728226",
"1. c #7FA329",
"2. c #838C37",
"3. c #89933B",
"4. c #8BAE3C",
"5. c #908B50",
"6. c #93AF4C",
"7. c #A1A95A",
"8. c #9C867C",
"9. c #91916E",
"0. c #A18C7E",
"q. c #9CA671",
"w. c #A9A871",
"e. c #AAB565",
"r. c #A8C35F",
"t. c #C53E82",
"y. c #CA3880",
"u. c #D83C91",
"i. c #BA4C87",
"p. c #BA5685",
"a. c #BD5D91",
"s. c #9F7B83",
"d. c #B96689",
"f. c #BC6793",
"g. c #BD7495",
"h. c #BB7699",
"j. c #A77B87",
"k. c #CC4C8B",
"l. c #C44887",
"z. c #C45286",
"x. c #C3548C",
"c. c #C15C8D",
"v. c #C45881",
"b. c #C55C93",
"n. c #CA5B94",
"m. c #C85795",
"M. c #D25691",
"N. c #CE4A95",
"B. c #C1658A",
"V. c #C6659A",
"C. c #C46C9B",
"Z. c #C76898",
"A. c #D3689A",
"S. c #C2719D",
"D. c #C87B9C",
"F. c #C96DA2",
"G. c #CB6BA7",
"H. c #D469A8",
"J. c #C978A4",
"K. c #D373A2",
"L. c #D47BAD",
"P. c #D376A9",
"I. c #D47EB3",
"U. c #CF78B2",
"Y. c #9F8784",
"T. c #A8878B",
"R. c #BE849A",
"E. c #AC9696",
"W. c #B6959C",
"Q. c #A8938D",
"!. c #9DA386",
"~. c #AAA88A",
"^. c #BBBC9A",
"/. c #B0B092",
"(. c #BD8DA1",
"). c #BE97A6",
"_. c #B7A8A5",
"`. c #BAB6AB",
"'. c #C18499",
"]. c #CE989D",
"[. c #C6818C",
"{. c #C4BA94",
"}. c #CE85AD",
"|. c #C68AA9",
" X c #C496AC",
".X c #CD8BB4",
"XX c #D588B7",
"oX c #CC94B6",
"OX c #CA9AB7",
"+X c #D397B9",
"@X c #D38FAF",
"#X c #CBBDA2",
"$X c #CAA7BA",
"%X c #C5B8B7",
"&X c #D1B4BF",
"*X c #B9C3AB",
"=X c #C3C3A6",
"-X c #C9D5A7",
";X c #C6C5B9",
":X c #CBD1BB",
">X c #D0C6B5",
",X c #DAE1B6",
"<X c #C6CF8F",
"1X c #D99DC2",
"2X c #CEA9C1",
"3X c #D5A3C3",
"4X c #DBACCC",
"5X c #D9A8C8",
"6X c #D5B7C9",
"7X c #DEBAD4",
"8X c #DBB6D0",
"9X c #C9B2C2",
"0X c #E1B9D2",
"qX c #E0B1CC",
"wX c #CCCDC4",
"eX c #D7C6C9",
"rX c #CED1C3",
"tX c #D6D8CA",
"yX c #D5CBD2",
"uX c #DBC8D7",
"iX c #DBDBD5",
"pX c #E3C5DA",
"aX c #E3D4D9",
"sX c #D9E2D4",
"dX c #E4E9D8",
"fX c #E2E8CC",
"gX c #DFDAE2",
"hX c #E5D8E4",
"jX c #ECCEE8",
"kX c #E9E8E9",
"lX c #EAF2E6",
/* pixels */
"                                                                                                    ",
"                                                                                                    ",
"                                                                                                    ",
"                                                                                                    ",
"                                                                                                    ",
"                                                                                                    ",
"                                                    OX|.                                            ",
"                                                  |.$X+X                                            ",
"                                                h.oX2X5X@X      A.                                  ",
"                                  B.X.          J.3X6X4X1X    z.K.D.                                ",
"                                  C.x.X.      f..X4X8X8X5XD.X.Z.@X'.                                ",
"                                '.g.B.l.i.    a.G.}.5X8X1Xn.z.J.@XL.                                ",
"                                g.h.C.b.' K ..m.K _ A.qXK.y.x.J.@XK.                                ",
"                                f.S.a.a.i.L P L m ( ( K.' ' V.A.L.A.]         eXyXyXtX              ",
"                                f.V.z.z.l.] / 0 0 Q Q Q ) l.n.n.M.[ `     6XyXyXaXkXaX              ",
"                                p.a.x.t.' { S 6 v Q R 9 Q ] k._ ( [ y.|.6X6XuXiXkXkX                ",
"          9XOX|.h.            L B P l.) K ) z 6 6 Y T ~ -.` / n { [ y.@X6XuXhXkXkXhX                ",
"          uXeX3XoX|.h.f.      P b z B J n { 6 3 p 4 w ~ { R 0 n ` [ ] $X7XgXkXkXkX                  ",
"          =XhXpX6X1XJ.h.f.d.O.] ) N z 6 m ;.w e *.e &.b R ~ z n Q _ l.6XgXhXhX7X}.a.G.}.+X          ",
"          r.>XkXpX4X+X}.F.B.p.=.` B z , H ;.q u *.y h g &.| q v n R z.7X8XXXb.x.m.F.oX5XOX          ",
"        4.4.7.>XjXjXqX1X.XJ.f.z.^ Y 6 H F -.d % h u : k *.% > 5 2 7 Z.XXN.l.x.V.G..X4XoXh.          ",
"    6.4.1.1.<.%.I.G.H.U.K.K.F.B.] 9 5 w Q ! p r : * * j = u *.i > 7 =.` t.m.n.U.XX4XoXf.            ",
"    ,.:.>.>.2.=.l.P P ^ K ) l.k.k.S 3 w R Q R = * ; r : = g | ; > > B K P m.n.I.1XI.a.              ",
"    ,.,.>.:.5.j.a.F.m.t.` E v N [ ] 3 4 a Q a e y ; r &.s g t . % 7 B K P l.n.U.H.i.                ",
"      <.:.:.:.w.[.A.L.A.y.) M 0 c _ q - 0 R 9 4 3 i L ~ R e . . % m K K K y.N.m.i.                  ",
"        <.@ O 2.<X].A.H.N.` E x 0 c B > 2 a 8 4 m / / F m 7 . . q S Z A J ` l.i.                    ",
"        @ o o >.5.#X].k.u.y.W a 8 9 Y 6 > a 4 c Q ( _ I D , X , S S A J J P P                       ",
"          + + 5.$.R.'.O.[ ` W U 9 a T x 4 4 8 Y R Q _ K Z , 1 S F G I ^ K +.                        ",
"          W.(.). XW.'.g.d.=.( x U U U U v 4 5 9 Y Q ! K Z , b Z C G _ O.T.9.9.                      ",
"        9X9X9X$X$X X XR.R.h.d.{ E U E W M 8 2 5 T c n F b l l C +.O.W.`.`.`.`./.!.9.$               ",
"      yXyXyXyXyXeX9X$X X XR.S.B.l.K B M M 5 2 > 5 9 6 b < < C +.h.W.).`.wXrXrXrX*X*X/./.q.9.        ",
"                aXyXeX$X$X'.S.Z.P.H.H.M.l._ b < 6 6 6 < < A +.p.f.h.(.).9XsXsXsXdXsXsXtXtX-Xw.      ",
"                  pX0X4X+X|.S.Z.L.@X}.C.n.x.z.P L K C < C P i.a.C.J.).OX$X8XaXdXlXlXlXdX-Xe.2.      ",
"                    OX3X+X}.K.Z.Z.|.|.D.Z.v.p.X.P G C A P i.G.V.G.G.oXoX+X+X6XdXfX,X<Xe.4.          ",
"                                      R.'.d.o.+.} V +.P i.m.H.H.G.U.1X1X3X4X0X=X7.5.                ",
"                                      #.#.@.@.$...# ..a.F.XXI.XXU.U.1X3X0XpXpXeX                    ",
"                                      8.s.s.s.s.#.$.$.#.j._.6X8XqX4XqX0X0XpXaXaX                    ",
"                                      T.s.T.j.s.Y.s.#.9.#     9X7XpXaXaXaXaXaXiX                    ",
"                                      Q.Q.T.E.T.E.Y.Y.Y. .                                          ",
"                                      /.E.W._.(.E.E.!.Q.#                                           ",
"                                      /./.%X`.`.`._./.8.                                            ",
"                                      /.`.%X%X;X%X`./.5.                                            ",
"                                        =XrXrXtXrX;X~.                                              ",
"                                        ^.rXtXiXrX^.                                                ",
"                                        w.:XiXtX^.                                                  ",
"                                          q.                                                        ",
"                                                                                                    ",
"                                                                                                    ",
"                                                                                                    ",
"                                                                                                    "
};
