/* XPM */
static char *c00b03d8ffee4139ed3b321bdea287eb6tVJsrBCvsJ9P7hE[] = {
/* columns rows colors chars-per-pixel */
"50 50 10 1 ",
"  c None",
". c black",
"X c #20300A",
"o c #412C1F",
"O c #314B0B",
"+ c #426810",
"@ c #BE622A",
"# c #5C9018",
"$ c #FFBB17",
"% c #8DC044",
/* pixels */
"                                                  ",
"                                                  ",
"                                                  ",
"                                                  ",
"                                                  ",
"                                                  ",
"                                                  ",
"                                                  ",
"                                                  ",
"                  XXXXXXX...                      ",
"                XX+########+..                    ",
"              XX+##%%%%######+..                  ",
"             X++##%%%%%#######++.                 ",
"            X+#%%#%%%%#########+O.                ",
"            X+#%%#############++O.                ",
"           X+#%##++++++++++++#++OX.               ",
"          X+#%#+XXX+XXXXXX+X..+OOXX.              ",
"          X+%#+X+++X#%%%%#X+++.OOXX.              ",
"          X#%+X+@@@+X#%%#X+@@@+.XXX.              ",
"          X%#+X@ooo@X#%%#X@ooo@.XXX.              ",
"          X%#+X@$$$@X+##+X@$$$@.XXX.              ",
"         X+#+XXXXX#XXXXXXXX#XX...XXX.             ",
"         X#+X++++##++####++##++++.XX.             ",
"         X%X+###%%%##%%%%##%%%###+.X.             ",
"         X#X+#%%%%%#%%%%%%#%%%%%#+.X.             ",
"         X+X+#%%%%##++%%++##%%%%#+.X.             ",
"        X%+X+##%%%%##+##+##%%%%##+.OX.            ",
"        X%#+X+X################X+.+OX.            ",
"        X%%#+X+XXXXXXXXXXXXXXXX+.++OX.            ",
"        X%%%#+X++############++.+#+OX.            ",
"        X+####+XX++########++..+#%+XX.            ",
"         X+##X.. ...++##++... XXXOXX.             ",
"          X###++.   ......   X++OOO.              ",
"          X#%%##+..        ..+###+O.              ",
"          X#%%#+XXX.      .XXX+#++X.              ",
"           X+####++X.    .+%%##++X.               ",
"            X+++X..+X.  X+#XX%%XX.                ",
"             XXX++X..    XXX#+X..                 ",
"               XXX          X..                   ",
"                                                  ",
"                                                  ",
"                                                  ",
"                                                  ",
"                                                  ",
"                                                  ",
"                                                  ",
"                                                  ",
"                                                  ",
"                                                  ",
"                                                  "
};
