/* XPM */
static char *_6f4aeca077d455fcabaab83879b34a04JSikWihjXkysW5X[] = {
/* columns rows colors chars-per-pixel */
"50 50 175 2 ",
"   c #030501",
".  c #050B03",
"X  c #090E03",
"o  c #0C1303",
"O  c #0E180C",
"+  c #121C05",
"@  c #101F08",
"#  c #0B1616",
"$  c #162107",
"%  c #172507",
"&  c #1B2907",
"*  c #1D2C09",
"=  c #192919",
"-  c #173B15",
";  c #202C0F",
":  c #22340A",
">  c #253A0B",
",  c #283E0A",
"<  c #233C12",
"1  c #273C15",
"2  c #3B3D12",
"3  c #172D30",
"4  c #22353B",
"5  c #53371F",
"6  c #18471B",
"7  c #1B511F",
"8  c #2B420B",
"9  c #2F480B",
"0  c #314C0C",
"q  c #36540D",
"w  c #3A5B0E",
"e  c #244412",
"r  c #294D1A",
"t  c #21541F",
"y  c #285F1F",
"u  c #3F620F",
"i  c #3F6210",
"p  c #1C4722",
"a  c #1C5420",
"s  c #1F5D24",
"d  c #215421",
"f  c #215D24",
"g  c #255E2E",
"h  c #3A5823",
"j  c #335433",
"k  c #226326",
"l  c #2B6024",
"z  c #22622B",
"x  c #256D2A",
"c  c #3F6B2D",
"v  c #27742D",
"b  c #28772D",
"n  c #266533",
"m  c #2A6739",
"M  c #296C3A",
"N  c #2A7F30",
"B  c #434F0F",
"V  c #44520F",
"C  c #465717",
"Z  c #40640F",
"A  c #416610",
"S  c #446B11",
"D  c #536A13",
"F  c #4A7413",
"G  c #4E7A14",
"H  c #4D7418",
"J  c #5A7311",
"K  c #507E14",
"L  c #1E3C40",
"P  c #294A49",
"I  c #2E5948",
"U  c #335B48",
"Y  c #2E4E55",
"T  c #34525B",
"R  c #2C6B43",
"E  c #2C6E48",
"W  c #316C49",
"Q  c #2E734B",
"!  c #2E7A54",
"~  c #34795A",
"^  c #2C5F62",
"/  c #355C62",
"(  c #3A6566",
")  c #3E7565",
"_  c #357D61",
"`  c #3F7A69",
"'  c #40655D",
"]  c #416661",
"[  c #446B66",
"{  c #417A6B",
"}  c #486D71",
"|  c #487D77",
" . c #4B757C",
".. c #A95C27",
"X. c #AE5C29",
"o. c #B96827",
"O. c #548415",
"+. c #578916",
"@. c #5A8D17",
"#. c #57841A",
"$. c #578818",
"%. c #5B8C1B",
"&. c #5C9017",
"*. c #5D9119",
"=. c #61951D",
"-. c #64981E",
";. c #669526",
":. c #669A21",
">. c #699D23",
",. c #6EA129",
"<. c #72A62C",
"1. c #76AA2E",
"2. c #77A137",
"3. c #77AA31",
"4. c #79AD32",
"5. c #7FAD3E",
"6. c #7DB135",
"7. c #7FB139",
"8. c #34856D",
"9. c #39826C",
"0. c #3C8A7A",
"q. c #478179",
"w. c #82B53A",
"e. c #E7AA19",
"r. c #87BA40",
"t. c #8BBE43",
"y. c #8EC145",
"u. c #90C347",
"i. c #91C448",
"p. c #4F7C84",
"a. c #3E9487",
"s. c #4B8382",
"d. c #4A8787",
"f. c #53848D",
"g. c #45938C",
"h. c #4F8293",
"j. c #4D8C93",
"k. c #538495",
"l. c #588697",
"z. c #548894",
"x. c #578798",
"c. c #598799",
"v. c #568C9B",
"b. c #598B9B",
"n. c #4C9396",
"m. c #419B93",
"M. c #4C939C",
"N. c #469A9C",
"B. c #54919E",
"V. c #58919F",
"C. c #45A29F",
"Z. c #5A8FA0",
"A. c #459DA3",
"S. c #4E9BA4",
"D. c #4E9EA5",
"F. c #5495A2",
"G. c #5991A1",
"H. c #529AA5",
"J. c #529FA9",
"K. c #46A3A6",
"L. c #4CA0A6",
"P. c #46A6A9",
"I. c #4CA4AA",
"U. c #47A8A9",
"Y. c #4AAAAE",
"T. c #51A1A9",
"R. c #4BAEB1",
"E. c #53AAB3",
"W. c #49B1B3",
"Q. c #4EB6B9",
"!. c #4CBBBC",
"~. c #50B1B6",
"^. c #49C0BE",
"/. c #4BC3C2",
"(. c #4AC9C6",
/* pixels */
"c.c.v.c.c.c.v.c.c.b.c.c.v.v.V.b.b.V.b.Z.b.b.b.b.G.Z.Z.Z.Z.Z.Z.Z.b.Z.b.b.b.Z.V.b.b.V.b.b.c.b.b.c.c.c.",
"c.v.b.c.c.b.c.c.c.c.c.c.b.b.b.b.b.b.b.Z.G.b.G.b.b.Z.b.Z.Z.b.Z.b.b.v.b.b.b.b.b.b.b.b.b.b.c.b.b.c.x.b.",
"c.c.c.c.c.c.v.c.b.c.c.c.b.b.b.b.b.Z.Z.b.G.G.G.G.Z.b.b.Z.b.b.b.b.b.v.b.b.b.b.b.b.b.b.b.b.b.c.b.c.c.x.",
"c.v.c.v.c.x.b.b.b.b.b.Z.Z.Z.b.b.b.b.b.b.b.b.b.v.b.Z.b.V.b.b.c.b.x.b.b.b.v.b.b.Z.b.b.b.b.b.c.c.b.b.x.",
"c.b.b.b.v.b.b.V.v.Z.b.Z.G.H.F.F.F.F.H.F.V.b.c.b.b.b.b.b.b.c.b.c.b.c.c.x.b.b.b.Z.Z.b.b.c.b.c.b.b.b.b.",
"b.b.b.b.b.b.b.b.Z.Z.Z.G.H.Y.R.R.Y.E.I.U.H.v.v.c.c.b.c.x.c.c.b.c.c.c.c.b.b.b.Z.Z.G.G.G.v.b.v.b.b.b.b.",
"b.b.Z.Z.V.V.V.b.v.Z.F.T.I.W./.(./.W.U.I.I.D.D.B.c.x.b.c.c.b.b.b.b.b.Z.b.b.F.D.I.T.T.T.J.G.b.G.Z.V.b.",
"b.G.Z.Z.Z.b.b.b.b.b.v.H.I.I.Q./.(.W.U.U.I.I.L.M.z.c.c.c.c.b.b.b.b.Z.b.Z.b.H.I.D.T.T.I.J.G.G.Z.Z.G.G.",
"Z.Z.Z.Z.V.b.V.b.b.b.b.b.v.b.v.H.Y.K.0.8.8.9.s.k.k.x.x.b.v.| { { ` q.V.v.b.v.G.v.b.v.v.v.v.b.v.Z.G.G.",
"Z.Z.G.H.T.T.~.~.T.T.H.V.c.c.c.v.M.j.z s s s ) x.v.F.H.D.N.M 7 k y ! V.l.c.c.v.c.c.c.b.c.b.b.b.b.b.b.",
"Z.V.V.J.I.I.!.!.I.I.T.G.b.b.v.j.s.| x z z k ~ s.j.I.U.m.a.g y 7 7 9.g.d.V.v.v.k.c.x.x.c.b.c.c.x.b.b.",
"b.b.b.v.V.V.V.V.v.V.V.V.G.v.c.s.z k v v v v x k ! Y.C.z t > , , > f k ! U.L.N.j.p.k.x.b.c.c.x.b.b.b.",
"b.b.b.c.c.b.b.b.H.H.H.T.F.v.z.q.k k v v v v x s ! Y.m.d > A S Z V 2 h E n.n.M.v.c.k.c.c.x.x.x.x.c.c.",
"c.b.b.b.c.b.b.V.I.I.I.E.J.{ m x v v v v v x k a Q A.a.d , F O.V ..X.X.c m R h.v.G.G.v.G.v.Z.v.v.c.c.",
"b.b.b.b.b.b.b.V.F.F.F.G.b.[ s k v v x v v r : > < 1 > , S O.V X.5 5 5 j 7 z h.v.F.I.I.I.P.I.D.D.F.c.",
"b.b.b.b.b.b.b.b.b.b.b.c.c.{ s k v v 6 > > q Z H +.H q : q Z B o.e.e.o.9 < > ) F.D.Y.Y.Y.Y.R.Y.R.T.H.",
"v.v.b.b.v.b.c.k.v.v.v.v.v.) s k x e w K $.$.+.@.O.q : : > q Z D J J D 2.5.w.h # ^ D.Y.I.I.Y.Y.I.I.I.",
"b.b.b.v.b.c.x.v.D.D.D.0.9.! k > < G $.@.*.*.@.=.F q w Z Z O.+.+.+.+.+.-.;.w.5.2.h Y F.F.F.F.G.F.F.G.",
"c.b.b.x.v.F.G.S.K.P.P.! f k e F K 4.w.w.:.@.*.*.F S +.+.-.w.w.w.*.6.w.w.w.,.w.<.q = Y F.F.F.H.F.V.V.",
"c.c.x.x.F.D.A.A.A.A.A.E > e F *.w.t.y.u.>.*.*.*.@.+.-.w.w.i.w.u.w.y.y.y.<.*.-.1.C   L Y.I.Y.I.I.F.b.",
"b.b.c.c.Z.F.M.M.M.F.p.r S K 4.6.t.t.u.1.=.F S O.*.&.,.y.u.t.t.u.y.y.y.y.-.&.&.:.#.q 1 ^ F.F.H.F.V.b.",
"v.b.c.b.v.c.x.x.c.b.} 8 =.6.u.y.t.t.1.*.K q w K *.&.-.3.u.t.u.u.y.y.y.y.7.:.&.*.*.#.> 3 c.v.b.v.V.b.",
"v.b.c.c.c.c.c.c.c.p.j H 4.u.y.t.u.u.;.&.F 0 q K *.$.O.:.y.t.<.1.3.y.i.y.6.-.*.+.O.S * 3 v.v.Z.Z.V.b.",
"b.b.b.b.c.v.v.c.c.) 9 ,.u.t.y.y.t.4.*.*.S , 0 K :.;.G &.4.,.G V A ;.1.1.$.O.S 8 * & = ( c.c.c.v.b.b.",
"b.b.b.b.V.b.b.b.p.U w >.u.u.u.y.t.=.*.+.w & 9 G 1.6.G u O.@.S 8 > 9 i i q q 8 % o X 4 b.b.b.b.b.b.b.",
"Z.b.b.Z.G.Z.Z.Z.] 8 F *.4.w.6.4.6.=.O.S 0 X 8 *.1.,.S 8 A +.O.G i 9 8 8 8 8 q w 0 + 4 b.b.b.b.V.V.b.",
"b.b.Z.G.Z.Z.Z.Z.' 8 Z S O.O.O.O.O.O.A u : + u 6.6.O.u , 8 w u $.+.S u S u S i q , ; T b.b.b.b.b.b.b.",
"b.b.b.b.b.b.Z.Z.' : q Z Z S Z S A A u q o 8 O.1.6.*.+.u : & 9 u u u u u i w 9 @ # T G.G.b.b.b.b.b.b.",
"c.b.b.b.b.b.Z.Z.] > 0 q Z u u u S Z 0 0 o 8 O.1.i.4.@.K q . & , 8 , , , 8 $ X - s.b.Z.b.v.b.c.v.b.b.",
"c.b.b.b.b.b.b.Z.[ 8 9 9 9 9 9 0 u 0 0 > X > F <.y.6.$.A 9 * .         . . 7 z f q.Z.b.b.v.c.c.c.x.b.",
"c.b.c.b.b.b.b.b.x.' : : : : : 0 0 9 9 : ; X > K <.t.4.O.S S 0 : *     a k x n m s.b.b.b.c.c.l.l.x.x.",
"c.c.c.c.c.b.b.b.' , 9 0 9 9 9 0 9 : * : X   + 0 K *.%.>.r.6.$.0 * * * o   p q.f.c.b.c.c.c.k.k.k.k.k.",
"c.x.b.b.b.b.l.c.' , q Z Z 0 0 : : .     $ * o + > 9 G &.*.:.7.i o . & * ; X / b.c.c.c.c.c.x.k.k.k.k.",
"x.b.b.b.b.b.b.l.z.' : 9 Z Z Z O.+.G 0 8 o   + + - y 0 S S F *.@.G w o   % * O / c.c.c.b.c.b.l.x.b.b.",
"b.b.b.b.Z.b.b.b.c.z. .[ : o o + + A A u w + - k x N l * o o + $ S 5.i X   . P k.c.b.b.b.b.b.v.c.b.b.",
"b.b.V.b.b.b.Z.b.b.b.Z.l. .( I j 7 + + + + 6 x v b N b k k a a 7 + ; @ p I I p.b.v.v.b.b.b.Z.v.v.V.b.",
"b.b.b.b.b.b.b.b.b.b.v.v.v.v.l.| s 6 7 7 7 x v v v v v v b v v v a 6 6 m v.v.b.v.b.b.b.v.b.Z.Z.Z.b.b.",
"V.b.b.b.b.Z.Z.b.b.b.v.c.l.c.c.p.W E v x x v x x x v x x x x v x v M E _ H.H.H.H.J.J.T.F.Z.b.G.b.Z.b.",
"b.b.b.b.b.b.b.b.b.c.c.c.v.x.v.v.c.f.n a s s f s s s s s s k s k s ~ Y.Y.Y.R.R.R.R.W.E.T.G.Z.b.b.b.b.",
"b.c.b.b.V.b.b.c.c.c.c.c.l.v.M.A.A.N.M n n n n n n n n n n n n n m 8.Y.Y.Y.Y.Y.Y.Y.E.T.G.b.b.b.b.b.c.",
"b.b.b.b.b.b.c.c.b.b.v.F.F.S.K.K.K.D.n.f.f.f.f.f.f.f.f.f.n.N.N.N.C.K.Y.U.Y.Y.Y.Y.Y.W.~.E.G.F.F.V.b.b.",
"b.b.b.V.b.c.b.b.b.v.F.I.Y.Y.R.R.Y.F.v.V.V.v.V.v.v.V.V.b.b.c.c.H.U.I.I.U.I.U.I.U.I.W././.E.I.L.b.b.b.",
"V.b.b.b.v.b.b.G.T.I.I.I.Y.R./.(.(.R.T.I.Q.Q.I.D.L.L.B.v.b.c.c.v.B.B.V.V.V.B.V.V.G.F.T.T.J.F.V.b.Z.b.",
"Z.b.b.b.V.b.b.G.T.T.T.I.I.R.^.(./.W.Y.Y.!.^.Y.U.I.D.B.l.l.c.b.b.l.l.l.x.x.v.b.x.b.b.b.b.b.v.b.b.b.b.",
"b.b.Z.b.V.b.b.V.G.v.Z.v.S.Y.R.I.Y.Y.I.U.I.U.I.I.L.j.h.h.c.b.b.v.b.v.c.c.b.V.b.b.V.b.b.b.b.b.b.b.b.V.",
"b.b.b.b.b.b.b.b.b.b.b.v.F.F.F.F.F.F.F.F.F.B.F.F.B.v.k.v.b.b.v.H.I.T.T.L.I.F.b.b.b.b.b.c.b.b.b.b.b.b.",
"b.b.b.b.v.b.b.b.b.b.b.v.G.F.F.F.G.v.c.c.v.l.c.b.b.v.v.v.b.b.Z.J.I.I.I.I.T.F.b.b.b.b.c.c.b.b.b.b.b.b.",
"c.b.c.b.c.c.c.c.c.b.c.b.H.I.I.I.I.G.v.v.v.c.Z.b.v.b.Z.Z.Z.Z.Z.F.G.V.V.V.V.b.c.b.c.b.c.b.b.V.b.b.b.b.",
"c.b.c.c.c.c.c.c.k.k.k.x.B.S.Y.Y.Y.D.H.Z.v.b.Z.Z.v.Z.Z.Z.b.G.H.H.H.v.b.b.b.c.c.c.c.b.c.v.b.b.b.V.b.b.",
"c.c.b.c.c.c.z.v.k.f.h.p.k.v.D.Y.Y.Y.D.G.v.b.Z.Z.Z.Z.Z.Z.b.H.Y.R.T.v.b.b.c.c.c.c.c.c.v.v.b.V.b.b.b.b."
};
