/* XPM */
static char *_02469b5d36c4c63d3db5bc815874c81ngHkZ2WXh2DXmR6P[] = {
/* columns rows colors chars-per-pixel */
"50 50 186 2 ",
"   c #020301",
".  c #060902",
"X  c #090E03",
"o  c #0D1403",
"O  c #121C06",
"+  c #151D0A",
"@  c #172206",
"#  c #192706",
"$  c #1D2C07",
"%  c #11270D",
"&  c #1A2708",
"*  c #1C2B08",
"=  c #1F3107",
"-  c #1D340B",
";  c #0E2B10",
":  c #132315",
">  c #102E14",
",  c #123213",
"<  c #143B17",
"1  c #23360A",
"2  c #263A0A",
"3  c #293E0B",
"4  c #192729",
"5  c #172B2C",
"6  c #16302C",
"7  c #182D30",
"8  c #153233",
"9  c #2A3F35",
"0  c #17461B",
"q  c #194C1D",
"w  c #1E521D",
"e  c #2C430B",
"r  c #2E480D",
"t  c #324D0C",
"y  c #36530D",
"u  c #38570E",
"i  c #3B5C0E",
"p  c #274A1B",
"a  c #214C1A",
"s  c #334D14",
"d  c #384F17",
"f  c #23541D",
"g  c #265B1F",
"h  c #3C5C11",
"j  c #3E620F",
"k  c #3E6111",
"l  c #1C5320",
"z  c #1F5E24",
"x  c #2F4725",
"c  c #3C4F23",
"v  c #205223",
"b  c #235D22",
"n  c #34542E",
"m  c #334E39",
"M  c #2B563E",
"N  c #2E5E3F",
"B  c #33503E",
"V  c #226225",
"C  c #22622B",
"Z  c #256D2B",
"A  c #376329",
"S  c #27742D",
"D  c #28772E",
"F  c #297B2F",
"G  c #256433",
"H  c #286A39",
"J  c #296C3A",
"K  c #594715",
"L  c #415C1A",
"P  c #575A14",
"I  c #69531D",
"U  c #40650F",
"Y  c #436C0F",
"T  c #416710",
"R  c #446B11",
"E  c #477011",
"W  c #4A7413",
"Q  c #4E7B13",
"!  c #4C7318",
"~  c #517E15",
"^  c #595621",
"/  c #664120",
"(  c #576529",
")  c #577829",
"_  c #2A5849",
"`  c #335543",
"'  c #33524A",
"]  c #39574D",
"[  c #2D6B43",
"{  c #2D6F48",
"}  c #336E4C",
"|  c #2B7146",
" . c #356A54",
".. c #2E7B54",
"X. c #367559",
"o. c #357D61",
"O. c #3C7966",
"+. c #3A6A72",
"@. c #436865",
"#. c #407666",
"$. c #417A6B",
"%. c #486E76",
"&. c #487674",
"*. c #4A7E7B",
"=. c #865C1F",
"-. c #BD7F1F",
";. c #8A5322",
":. c #9B5228",
">. c #2B8132",
",. c #548416",
"<. c #578816",
"1. c #5A8C17",
"2. c #568419",
"3. c #5B8E19",
"4. c #5B9017",
"5. c #5D9119",
"6. c #62961D",
"7. c #65991F",
"8. c #659920",
"9. c #6A9B27",
"0. c #709F2E",
"q. c #6EA127",
"w. c #6FA229",
"e. c #71A52B",
"r. c #75A92E",
"t. c #7EB136",
"y. c #34856D",
"u. c #39836D",
"i. c #448176",
"p. c #81B439",
"a. c #86B93D",
"s. c #88BB3F",
"d. c #CC971A",
"f. c #DDAF14",
"g. c #8CBF43",
"h. c #8DC044",
"j. c #4D7C85",
"k. c #4E7A89",
"l. c #517E8A",
"z. c #3E9788",
"x. c #4A8482",
"c. c #4B8988",
"v. c #53848D",
"b. c #45938C",
"n. c #4F8293",
"m. c #4D8E91",
"M. c #4E8998",
"N. c #538495",
"B. c #588697",
"V. c #538992",
"C. c #578798",
"Z. c #598799",
"A. c #568C9B",
"S. c #598B9B",
"D. c #4C9396",
"F. c #419B93",
"G. c #44959B",
"H. c #4C949C",
"J. c #469A9C",
"K. c #4A9B9D",
"L. c #54919E",
"P. c #58919F",
"I. c #44A39F",
"U. c #5A8FA0",
"Y. c #459DA2",
"T. c #4E9BA4",
"R. c #4E9DA5",
"E. c #5495A1",
"W. c #5991A1",
"Q. c #529AA5",
"!. c #529FA9",
"~. c #46A4A6",
"^. c #4CA0A6",
"/. c #4CA4AA",
"(. c #47A8A9",
"). c #4AAAAE",
"_. c #51A1A9",
"`. c #4BAEB1",
"'. c #53AAB3",
"]. c #49B1B3",
"[. c #4EB6B9",
"{. c #4CBBBC",
"}. c #50B1B6",
"|. c #49C0BE",
" X c #4BC3C2",
".X c #4AC9C6",
/* pixels */
"Z.Z.A.Z.Z.Z.Z.Z.C.Z.S.S.Z.S.S.P.S.S.W.W.S.S.S.S.S.W.W.W.U.U.U.S.S.S.P.S.S.P.S.S.P.S.S.S.Z.S.S.Z.Z.Z.",
"S.S.Z.C.Z.A.Z.A.C.S.C.Z.Z.S.S.S.S.S.U.S.U.S.W.U.U.S.S.W.U.U.U.S.S.S.S.S.S.S.S.S.S.S.S.S.Z.S.A.S.Z.Z.",
"S.S.C.S.Z.Z.Z.Z.Z.S.Z.Z.S.S.S.S.P.S.S.S.U.W.S.U.U.S.S.S.S.S.S.S.S.P.S.S.S.S.S.P.S.S.S.S.S.Z.Z.Z.Z.Z.",
"C.C.B.Z.A.Z.A.A.S.S.S.U.W.S.P.S.S.S.S.S.S.P.S.A.S.S.W.S.S.S.S.S.Z.S.S.S.S.S.S.S.S.S.S.S.Z.S.Z.S.A.Z.",
"S.S.S.S.Z.A.S.P.U.S.U.U.W.Q.Q.E.E.E.E.Q.S.S.S.S.S.A.S.S.S.S.Z.Z.Z.Z.Z.Z.Z.S.S.S.P.U.S.S.Z.Z.S.S.Z.A.",
"S.S.S.S.S.S.S.S.W.W.U.U.!.).).).).'.)./.Q.S.A.S.Z.Z.Z.Z.Z.Z.Z.Z.S.S.Z.Z.S.S.U.W.W.W.W.S.S.S.S.S.S.S.",
"S.S.U.S.U.U.P.S.S.S.W.!./.]. X.X.X].(.(./.Q.R.L.S.Z.Z.Z.S.S.A.S.S.S.S.U.S.Q./._._._./.!.W.U.S.U.W.P.",
"S.U.U.U.U.U.S.S.S.A.A.Q././.[. X.X).(.(.(.(./.A.B.B.S.Z.Z.S.S.S.S.S.U.S.S.Q._./._._./.Q.W.W.W.W.U.W.",
"U.U.U.U.P.S.S.P.S.S.Z.A.S.S.A.Q.).~.y.y.y.u.x.N.N.C.S.S.S.$.$.$.O.x.U.S.S.S.A.A.Z.A.P.A.S.S.S.U.U.W.",
"U.U.P.Q._._.}.}._._.Q.P.Z.Z.Z.A.L.M.G b z b O.C.C.Q.Q.Q.Y.H z b V o.U.Z.Z.S.Z.Z.Z.Z.Z.Z.S.S.S.S.S.S.",
"S.P.P.!./.).{.{.)._._.W.S.S.Z.V.x.i.G a a q H x.m.(.(.F.z.J C V z ..b.c.P.A.A.N.S.C.C.C.S.C.S.C.S.S.",
"S.S.S.S.P.P.P.P.S.P.P.W.W.W.S.x.C z a 2 r e e w ..).F.G C S D D D Z z ..(.Y.Y.M.N.n.C.S.Z.C.S.Z.S.S.",
"S.S.S.Z.S.Z.Z.S.Q.Q.!.!.E.S.V.i.A ^ K P j W j - ..~.F.C z S S S S Z z | D.D.H.A.N.C.C.Z.C.C.C.Z.Z.Z.",
"S.S.S.S.Z.S.S.P././._.).!.$.G H ( :.:.;.P ,.Y e _ z.O.v w b S D S S S Z G [ V.S.A.A.A.A.A.A.A.A.Z.Z.",
"S.S.S.S.S.S.S.P.E.E.E.S.S. .v l c / I ;.:.u ,.i 1 2 r r 3 3 g V V S D Z z G v.Z.E./././././.^.R.E.Z.",
"S.S.S.S.S.S.S.S.S.S.S.k.%.n d d I -.f.d.=.y i e 1 i <.4.W E r e 2 g S S z G D.Q./.).`.).).).].)._.Q.",
"W.S.S.S.S.S.C.C.A.Z.k.9 + ) h.a.9.R R R R R y 2 2 3 k 1.4.5.4.5.Q t g b b G ^.(./.).(.).).).(.).)./.",
"Z.S.S.Z.S.Z.Z.A.Q.G.5 ) h.s.r.7.6.8.6.5.8.8.3.R R R u 1.4.4.4.8.7.7.u 3 f Z o.O.V.E.E.W.E.W.W.W.E.W.",
"Z.S.S.Z.S.L.E.T.~.8 * i e.r.w.s.h.h.t.q.h.h.g.5.8.<.E 1.4.4.4.a.h.h.0.6.u f g b *.A.E.E.E.Q.E.E.P.S.",
"S.S.C.C.L.~.Y.Y.G.6 X ) e.3.6.e.h.h.h.h.g.g.g.g.g.1.1.4.1.1.1.p.h.h.s.e.6.L 1 a *.P.Q.)././.).(.E.S.",
"Z.S.S.C.S.E.H.H.5 e ,.1.4.3.4.r.h.h.g.h.h.h.g.g.p.6.4.3.R y ,.4.p.s.g.g.s.e.1.L ` Z.E.Q.E.Q.Q.E.P.P.",
"S.S.C.S.S.Z.C.Z.4 e ,.1.3.3.e.g.h.h.g.g.g.g.g.g.6.3.4.3.R s T 1.5.p.h.h.g.s.r.U N L.W.A.S.S.S.S.A.S.",
"S.Z.C.Z.C.Z.S.C.4 @ u R ~ 3.5.r.h.g.t.5.5.9.h.a.1.E 3.3.R 2 h 1.4.p.h.h.h.h.g.e.h  .^.T.S.S.S.S.S.S.",
"S.A.S.Z.S.S.C.S.l.5 . . * u R ~ 6.1.h 2 r ! 6.5.E 3.p.3.R 1 t ,.5.6.a.h.h.h.g.r.k ` T.L.C.S.S.S.S.S.",
"P.S.S.S.P.S.S.S.S.7 o 2 e 3 1 2 3 2 2 t R 1.,.Y u 6.s.3.R o 3 R <.5.p.s.h.h.g.p.Q s ] Z.Z.A.Z.P.P.S.",
"S.S.S.W.U.U.U.U.U.5 = h U U i i i i R <.2.W R t 2 E 7.p.<.X = i R <.6.7.7.7.8.~ R y B S.S.S.S.S.S.S.",
"S.S.S.W.U.U.U.U.U.l.4 o 1 U R R R Y R W Y t 2 2 h ,.4.s.6.u o e U R E R W R E R i e ` S.S.S.S.S.S.S.",
"P.S.S.S.S.S.U.U.W.S.j.M % o 1 y y y y y t * o U 1.6.p.g.6.E X 2 y U T U R R R U t 3 ` P.S.P.S.Z.S.P.",
"S.S.S.S.S.S.U.U.U.U.U.X.q q > o o o o o o X $ i W 6.g.g.6.E X $ t t U U y t u t t 3 B S.S.S.S.S.Z.S.",
"Z.S.S.S.S.S.U.U.U.U.S.} b Z V l >   X + O 1 y i ,.p.g.e.W $ + * e t y t 3 2 2 2 2 n l.S.Z.S.S.C.Z.S.",
"Z.Z.Z.Z.Z.S.S.S.S.U.U.X.C Z l ; % + # 1 t 2.e.0.6.w.w.W t   X $ 2 2 e t e e 3 3 3 p @.Z.Z.Z.C.B.Z.Z.",
"Z.Z.S.Z.Z.S.S.Z.S.Q._.Y.K._ O O * # X # ! t.r.e.3.W u r o O O o o X $ 2 e t t U L 3 m B.Z.N.N.N.N.N.",
"Z.Z.Z.A.S.S.B.Z.S.L._._.O.: & & o + 2 h 5.w.Q Q Q r f o o o o @ # e k R T h T h e x &.Z.Z.C.n.N.N.N.",
"A.S.S.S.S.S.S.B.S.P.P.P.+.: o X X T 9.W e e = - r b >.0 f   = i j Q i r 2 * e n ] %.Z.Z.Z.S.C.C.S.S.",
"S.S.S.S.S.U.U.S.S.S.S.S.A.' ; > - s d - < , , < f >.>.>.>.0 1 1 1 1 , , % > ' &.Z.S.S.S.S.S.Z.S.S.S.",
"S.P.S.S.S.S.S.S.S.S.S.S.A.x.#.} l > , 0 S D S S D F F F F D < ; , ; z H X.O.v.S.Z.S.S.S.S.U.S.S.U.S.",
"S.S.S.S.S.S.S.S.S.S.S.A.S.A.Z.i.z V S D S S D D D D D S S D D D S Z b [ S.S.Z.S.S.S.S.S.S.U.W.U.S.P.",
"S.S.S.S.S.P.S.S.S.A.Z.S.Z.Z.Z.v.} [ Z Z Z Z Z Z Z Z Z Z Z Z Z S Z H { o.Q.Q.!.Q.!.!._.E.W.S.W.S.S.S.",
"S.S.S.S.S.S.U.S.Z.Z.C.C.S.S.Z.S.S.c.G b z z b z z b z z z z z z z y.(./.).).`.`.'.].`._.W.U.S.S.S.S.",
"S.S.S.S.U.S.S.Z.A.Z.C.C.C.S.H.J.Y.G.[ C G G G G G G G G G G G G Z y.(.(.).`.).`.).).!.W.S.S.S.S.S.Z.",
"S.S.P.S.S.A.Z.Z.Z.S.A.E.E.T.~.~.~.R.M.v.v.v.v.v.v.v.v.V.D.K.K.K.I.(.).(.).).`.`.].].'.'.E.E.E.P.S.S.",
"S.U.S.S.S.A.Z.A.P.S.E./.).).`.`.`.Q.P.P.A.A.P.A.A.P.P.S.Z.Z.C.Q.^.(.(.~.(./.(././.'. X X'._.^.A.S.P.",
"S.S.S.S.S.S.S.P._././.).).].{..X X`.R./.[.[./.^.^.^.E.Z.Z.Z.Z.A.P.P.P.L.P.P.P.L.L.E._._.E.E.P.A.S.S.",
"S.S.P.S.S.S.S.W._./.Q._.^.]. X.X X].).).{.|.).(.(.R.D.C.C.Z.S.S.B.C.Z.Z.Z.C.Z.S.A.A.S.U.W.S.S.S.S.S.",
"S.S.S.S.S.S.S.P.W.S.A.S.T.).`.`.).).).(.(.).^.).^.M.l.n.Z.S.S.S.S.Z.S.S.P.A.A.S.S.S.S.S.S.S.S.S.P.S.",
"U.S.S.U.S.A.S.S.S.U.S.S.W.E.E.E.E.E.E.L.U.H.E.E.E.S.N.A.S.S.S.Q./.R.R./._.E.S.S.P.S.S.Z.S.S.S.P.S.S.",
"S.S.S.S.Z.A.Z.S.S.S.S.S.A.W.A.W.W.A.Z.Z.C.Z.S.S.S.S.U.S.S.U.S.!./.)././._.E.S.S.S.S.S.Z.S.S.S.S.S.S.",
"Z.Z.S.Z.S.C.S.S.S.Z.S.S.Q.(.).)./.E.S.S.S.S.S.A.S.S.U.U.W.W.S.P.W.W.S.W.P.A.Z.Z.Z.S.Z.S.S.S.S.S.P.S.",
"S.Z.Z.S.Z.B.Z.B.N.N.N.N.A.T./.).)./.E.S.S.S.P.S.S.U.U.U.U.W.!._.Q.S.S.S.Z.Z.A.Z.Z.Z.S.S.S.P.P.S.A.S.",
"S.Z.Z.Z.Z.S.Z.V.n.N.n.n.N.A.^.(.).)./.S.S.P.W.W.U.W.U.U.S.E.).`._.S.Z.S.Z.Z.Z.Z.Z.A.S.S.S.S.S.S.Z.Z."
};
