/* XPM */
static char *d62cacfbdc504f2fb41ac00ac2a287ac2knxFJzfHy31MJiI[] = {
/* columns rows colors chars-per-pixel */
"50 50 117 2 ",
"   c None",
".  c #000100",
"X  c #060902",
"o  c #090E02",
"O  c #0D1303",
"+  c #121C06",
"@  c #161E0B",
"#  c #162206",
"$  c #192706",
"%  c #1C2B06",
"&  c #1A2708",
"*  c #1D2C09",
"=  c #1F3107",
"-  c #1E3309",
";  c #23360A",
":  c #263A0A",
">  c #293E0B",
",  c #4C321B",
"<  c #2C430B",
"1  c #2E480C",
"2  c #324C0C",
"3  c #36530D",
"4  c #38570E",
"5  c #3B5C0E",
"6  c #2D4112",
"7  c #354E15",
"8  c #384F17",
"9  c #3C5C11",
"0  c #3E620F",
"q  c #3E6111",
"w  c #594715",
"e  c #415F17",
"r  c #40591D",
"t  c #575A14",
"y  c #7E4E1D",
"u  c #63551D",
"i  c #6F501C",
"p  c #40650F",
"a  c #436C0F",
"s  c #416710",
"d  c #446B11",
"f  c #477011",
"g  c #4A7413",
"h  c #4E7B13",
"j  c #4C7318",
"k  c #517E15",
"l  c #664120",
"z  c #527225",
"x  c #5A7B2B",
"c  c #865C1F",
"v  c #BD7F1F",
"b  c #8A5322",
"n  c #995227",
"m  c #9C5128",
"M  c #A05C23",
"N  c #548416",
"B  c #578816",
"V  c #5A8C17",
"C  c #568319",
"Z  c #588719",
"A  c #5B8E19",
"S  c #5B9017",
"D  c #5D9119",
"F  c #62961D",
"G  c #65991F",
"H  c #659920",
"J  c #6A9C26",
"K  c #6A9A2A",
"L  c #709F2E",
"P  c #6EA127",
"I  c #6FA229",
"U  c #71A52A",
"Y  c #70A42A",
"T  c #72A52B",
"R  c #72A72B",
"E  c #71A42C",
"W  c #73A72D",
"Q  c #74A72E",
"!  c #70A42A",
"~  c #74A92C",
"^  c #74A82E",
"/  c #76AA2E",
"(  c #77AC2F",
")  c #74A82C",
"_  c #71A030",
"`  c #74A333",
"'  c #7CAF36",
"]  c #7DB136",
"[  c #7FB237",
"{  c #7DB135",
"}  c #80B338",
"|  c #80B339",
" . c #80B439",
".. c #81B439",
"X. c #82B53A",
"o. c #84B73C",
"O. c #84B83C",
"+. c #85B83C",
"@. c #85B83D",
"#. c #87BA3D",
"$. c #86B93E",
"%. c #88BB3F",
"&. c #CC971A",
"*. c #DDAF14",
"=. c #8ABD41",
"-. c #8BBE42",
";. c #8BBF43",
":. c #8CBF43",
">. c #8DBF44",
",. c #8CBF43",
"<. c #8CC043",
"1. c #8EC343",
"2. c #8DC044",
"3. c #8EC144",
"4. c #8EC145",
"5. c #8FC245",
"6. c #8FC246",
/* pixels */
"                                                                                                    ",
"                                                                                                    ",
"                                                                                                    ",
"                                                                                                    ",
"                                                                                                    ",
"                                                                                                    ",
"                                                                                                    ",
"                                                                                                    ",
"                                                                                                    ",
"                                                                                                    ",
"                                                                                                    ",
"                                                                                                    ",
"                                                                                                    ",
"                                                                                                    ",
"                                                                                                    ",
"                                - > < < <                                                           ",
"                              y w t q g 9 *                                                         ",
"                              n m b t h d >                                                         ",
"                            , l i b M 4 N 5 - < 2 < < >                                             ",
"                      6 8 7 u v *.&.c 3 9 > ; 9 Z S g f 2 6 >                                       ",
"                  # @ x 1.$.K a f f f d 3 ; : > 0 V D S D D h 2                                     ",
"                . z >.;./ F F G D D H H D d d d 4 V S D S F H H 9 :                                 ",
"              . % q _ E T =.2.2.[ P <.<.=.F D V f A D S D o.;.;.I D 9                               ",
"              X X x T A A / 4.2.1.<.<.<.;.;.=.D A S V B A | >.>.>.I F 9 ; :                         ",
"            . 1 k A D S S / 4.2.2.2.2.>.2.2.o.D D A d 3 N D X.2.2.:.:.E A 9 *                       ",
"            . < N A A A T :.2.2.2.=.=.=.2.$.D A D V d 2 s Z D X.4.2.2.2.) q *                       ",
"            . # 5 a k A S Q 4.>.' D F J 2.$.Z g S A d : 9 A S [ 3.:.2.2.1.E 9 *                     ",
"              . X X $ 4 d k G Z 9 : < h F A g A X.D d ; 2 N D D X.4.2.>.2./ s *                     ",
"              . + ; 1 < : : > : > 2 d A B d 4 D =.A a O < a B V } >.:.:.4./ k 2 *                   ",
"              . % 5 p 5 9 5 9 5 d Z N d d 2 : f H | B o * 5 d B G G H H H C d 2 *                   ",
"                o O ; p d a a s d g d 2 : : 5 N D %.F 4 O < p f f f f f g d 5 < ;                   ",
"                    o O ; 4 3 4 3 4 2 * + 0 B F | =.F a o > 3 p s d s s d 5 3 > *                   ",
"                        O O O O O O O o % 4 j D <.=.F d o * 1 2 p 5 3 3 4 2 2 < *                   ",
"                            . . X # # ; 4 0 V [ <.P h % # * 1 2 3 2 > ; ; : : ;                     ",
"                          . O + # ; 1 C _ E D T I h 1 . o * : : 1 2 1 > > > > >                     ",
"                        O + & % O # j { W I S j 4 < + + + O O o % ; < 2 4 5 5 > *                   ",
"                      O & & O + > 5 D I h h g 1 % O + + O # $ < p a 0 5 p 5 < ;                     ",
"                      O + X O e J f < < = ; 1       * . * 4 0 h 4 1 : ; < <                         ",
"                        . . + 7 r % . . . .             ; : ; ; O . . . O                           ",
"                              . .                         . . .                                     ",
"                                                                                                    ",
"                                                                                                    ",
"                                                                                                    ",
"                                                                                                    ",
"                                                                                                    ",
"                                                                                                    ",
"                                                                                                    ",
"                                                                                                    ",
"                                                                                                    ",
"                                                                                                    "
};
