/* XPM */
static char *_1cde944d66e487caf596740622236a6ziQjOiKJY1M2829N[] = {
/* columns rows colors chars-per-pixel */
"50 50 108 2 ",
"   c black",
".  c #20300A",
"X  c #412C1F",
"o  c #314B0B",
"O  c #1F5E24",
"+  c #215F27",
"@  c #216326",
"#  c #216129",
"$  c #256D2A",
"%  c #27752D",
"&  c #28772E",
"*  c #297A2F",
"=  c #266533",
"-  c #276833",
";  c #286A3C",
":  c #297C30",
">  c #426810",
",  c #2E6942",
"<  c #346E4E",
"1  c #2B7146",
"2  c #346F50",
"3  c #2E7753",
"4  c #2E7A54",
"5  c #327251",
"6  c #367A5F",
"7  c #3E7665",
"8  c #3E7C6A",
"9  c #417A6B",
"0  c #497E7B",
"q  c #BE622A",
"w  c #2B8232",
"e  c #5C9018",
"r  c #34856E",
"t  c #39826C",
"y  c #388975",
"u  c #3F8B7F",
"i  c #448176",
"p  c #45867F",
"a  c #4A807D",
"s  c #FFBB17",
"d  c #8DC044",
"f  c #3F9286",
"g  c #4A8483",
"h  c #4C8C8C",
"j  c #53848D",
"k  c #45938C",
"l  c #4F8293",
"z  c #4E8E92",
"x  c #4E8998",
"c  c #538495",
"v  c #588697",
"b  c #538992",
"n  c #578798",
"m  c #598799",
"M  c #568C9B",
"N  c #598B9B",
"B  c #4C9396",
"V  c #4C939C",
"C  c #469A9C",
"Z  c #54919E",
"A  c #58919F",
"S  c #44A39F",
"D  c #5A8FA0",
"F  c #4D96A0",
"G  c #459DA3",
"H  c #4E9DA5",
"J  c #4F9FA8",
"K  c #5495A1",
"L  c #5991A1",
"P  c #529AA5",
"I  c #529FA9",
"U  c #45A3A6",
"Y  c #46A4A7",
"T  c #48A1A0",
"R  c #4CA0A6",
"E  c #45A6A9",
"W  c #47A7AA",
"Q  c #4DA3A9",
"!  c #4EA2A9",
"~  c #4AA6A8",
"^  c #4DA4AB",
"/  c #4EA4AB",
"(  c #4BA7AC",
")  c #4CA7AC",
"_  c #4CA7AD",
"`  c #4AA9AC",
"'  c #49AAAD",
"]  c #4AAAAE",
"[  c #4BABAF",
"{  c #4DA8AD",
"}  c #49ACAF",
"|  c #50A1A9",
" . c #52A0A9",
".. c #51A2AA",
"X. c #4BAEB1",
"o. c #54A6B0",
"O. c #51AEB5",
"+. c #49B1B2",
"@. c #49B1B3",
"#. c #4EB7BA",
"$. c #4DBABC",
"%. c #49BDBC",
"&. c #50B1B6",
"*. c #49C0BE",
"=. c #49C2C0",
"-. c #4CC3C3",
";. c #4AC4C2",
":. c #49C9C6",
/* pixels */
"m m N m M m M m m m n M N N N N N N N L D N N N D D D D D D D N N N N N N N N N A N N N m N N m m N ",
"m M N m m m m m m M m m N N L N N A N L N D D N D N D L D D D N N N A N N A N N N N N N m N N m m m ",
"m m m m m m M m N m m N N N N N N D N N L L L L D A N N N N N N N L N N N N N A N N N N N m m N N N ",
"m M m M m n N N N N N N D N N N N N N N N N N N N N N N N N N N m N N m N N N N N N N N m N m N m m ",
"N N N N M N N A D N D D K P K K K K P Z Z m b v N N N N m m m n m N m m N N N N D D m N m N N N N m ",
"N N N N N N N N L L D D P ( X.X.[ O.[ ( P M M M m n m N m N N m N N m m N N N L L A L N N N N N N N ",
"N N D D A A A N N N L J ) @.=.:.;.@.` ` R H H Z m N n m m N N N N N N D N P | Q | ......L N L N L N ",
"N D D D N N N N N N M J J / #.-.;.@.( Y ` ( R Z n n m m N N N N N N D N N P Q Q | | R | L L L D L L ",
"D D D D A N N A N N N N M M N P [ Y y r r t g c c v M m M i 9 9 8 g N N N A A M M N A L N N N L L D ",
"D D N I | | &.&.| | P A m m m M Z b # + + + 9 m M Z P R C ; O + + 6 A n m m v v m m m m N N N m N L ",
"L N L I ) ) $.$./ / | L N N N b g i # @ @ . . . . . . .       @ # 4 k h A M M c c m m m m m N M m N ",
"N N N A A A A A M A A A D D N g # @ % . . > e e e e e e e e >     $ + 4 ( U C x c c c M N m m m m m ",
"N N N m N m m N P P I I K N b i # . . > e e d d d d e e e e e e >     1 B B V M c c n m M c m m m N ",
"m N N N m N N A / ( ( { P 9 = - . > > e e d d d d d e e e e e e e > >   = , j N M A M M M M N M N m ",
"N N N N N N N A K K L L N 7 + . > e d d e d d d d e e e e e e e e e > o   - j N P Q / / Q Q Q J K m ",
"N N N N N A N m N N N m m 7 O . > e d d e e e e e e e e e e e e e > > o   = B P Q [ [ [ } } } [ Q P ",
"N N Z N N N m M M M M n N 9 . > e d e e > > > > > > > > > > > > e > > o .   T { ) { ( ( { ( ( ( { / ",
"N N N m N m m M H H H f 8 . > e d e > . . . > . . . . . . > .     > o o . .   8 z K K K K K K K K A ",
"m N m m M Z V F U E E 3 O . > d e > . > > > . e d d d d e . > > >   o o . .   + 0 N A K K K K K Z N ",
"M m n M Z Q G G G G T 3 O . e d > . > q q q > . e d d e . > q q q >   . . .   + 0 Z P [ ) { { { P N ",
"m N m m M K V Z V V Z 5 @ . d e > . q X X X q . e d d e . q X X X q   . . .   + g n Z P K P P K A N ",
"N N M m m m m m v M N < # . d e > . q s s s q . > e e > . q s s s q   . . .   # f A Z A N M N N N N ",
"N N m m M m m M n m m < . > e > . . . . . e . . . . . . . . e . .       . . .   f [ ~ H M N N N A N ",
"N N N N N m m m m K H 5 . e > . > > > > e e > > e e e e > > e e > > > >   . .   p V Z Z b v N N N N ",
"N N N N L N N N N P | 5 . d . > e e e d d d e e d d d d e e d d d e e e >   .   0 m m N N N N N N N ",
"N N N L L N D L D L K 5 . e . > e d d d d d e d d d d d d e d d d d d e >   .   0 N N N N N N N N N ",
"N L N L D D D D D D D 2 . > . > e d d d d e e > > d d > > e e d d d d e >   .   a N A N N N N N A N ",
"N N N N N N D D D D D . d > . > e e d d d d e e > e e > e e d d d d e e >   o .   L L N A N A N N N ",
"N N N N N N D D L L D . d e > . > . e e e e e e e e e e e e e e e e . >   > o .   A N N m N m N N N ",
"m N N N N N D D N Z D . d d e > . > . . . . . . . . . . . . . . . . >   > > o .   N N N m M m m m N ",
"m m m m N N N N N L L . d d d e > . > > e e e e e e e e e e e e > >   > e > o .   N N N m m m m m n ",
"N m m m m N N N N P / . > e e e e > . . > > e e e e e e e e > >     > e d > . .   N m N m c c c c c ",
"n n N n N N m N N Z | | . > e e .     %       > > e e > >       % . . . o . .   m m m m M n l c c c ",
"m N N N N N N m N A A A A . e e e > >   * * :             : : % . > > o o o   M n N m N m m c M N N ",
"N N A N L N N N N N N N N . e d d e e >     % % * w w w w &     > e e e > o   M m N N N N N N N N A ",
"N N N N N N N N N N N N N . e d d e > . . .   % * * * * :   . . . > e > > .   m m N N N N N N N N N ",
"A N N N N N N N N N N N N N . > e e e e > > .   % % % %   > d d e e > > .   N N N N N A N D D D A N ",
"N N N N L N N N N N N N N v v . > > > .     > .   $ $ . > e . . d d . .   I P I I I | K L D L N N N ",
"N N m N N N N N n N m N n n N N . . . > > .     O + O + . . . e > .     [ [ } } O.{ { | L N N N N N ",
"N N N N N L N N m n n n n N C C C C . . . = = = = = = = = = - .     [ [ ) X.X.[ X.X.I L L N N N N N ",
"N N N A N N m m N m Z A Z H U Y Y H B j j j j j j j j b z C C C S Y W [ ' ` [ [ { @.O...K P L N N N ",
"N N N N N M m N A A A / } [ [ [ { P M Z M M A M A N Z N N m N P Y H [ ~ ( ` ` [ { @.-.-.o.{ Q M N N ",
"N A N N N N N A | | / [ ' X.*.:.;.X.H ( #.#.Q H R R K m m m m N Z Z Z M Z Z A A A P | I P P A N N N ",
"N N N A N N N A P Q Q | ( +.*.:.=.@.[ [ %.*.{ [ ( H B m m N N N n n m m n v m N N N N N N N N N N N ",
"N N N N A N N A N A N A P ' ' X.[ ) [ ` [ E ) { H x l l m N N N N m M m N A N N N A N N N N N N N A ",
"N A N N N N N N N N N N L K K K K K Z Z Z Z Z K Z M b c N N N I Q Q | R R A N N N N N m N N N N N N ",
"N N N N m N N N N N m N Z K L Z K N m m M m N N N N N N N N N I / / / / | P N N N N v m N N N N A N ",
"m N N N M N m m N m M v P / ( [ / K N N N m N N N N L L L L N L L A A A A N m n N N N N N A N N N N ",
"m m m m N m N n c c c c M F ( [ W Q P N N A N L N L N D D L I I P N m N m m m m m m M N N N N A N m ",
"m m m N n n n n c j l l c M R [ ` [ | M N N L L L N L L N P { X.Q Z m N m N m N m N N N N A N N N m "
};
