/* XPM */
static char *f3291a7e00f843e7e36d151cab6c0f07hdCC8stUJpT58ALW[] = {
/* columns rows colors chars-per-pixel */
"50 50 119 2 ",
"   c None",
".  c #020301",
"X  c #060902",
"o  c #090E03",
"O  c #0C1303",
"+  c #121B05",
"@  c #152106",
"#  c #192606",
"$  c #1C2B07",
"%  c #1A2608",
"&  c #1E2C09",
"*  c #202C0F",
"=  c #22340A",
"-  c #263A0A",
";  c #283E0A",
":  c #383A0F",
">  c #3F3C12",
",  c #53371F",
"<  c #4F3320",
"1  c #593A20",
"2  c #2B430B",
"3  c #2F480B",
"4  c #314C0C",
"5  c #36530D",
"6  c #3A5B0E",
"7  c #334618",
"8  c #3C5D11",
"9  c #3D521D",
"0  c #3F620F",
"q  c #3F6210",
"w  c #434F0F",
"e  c #44520F",
"r  c #495111",
"t  c #425C1C",
"y  c #40640F",
"u  c #416610",
"i  c #446B11",
"p  c #536A13",
"a  c #4A7413",
"s  c #4E7A14",
"d  c #4D7418",
"f  c #5A7311",
"g  c #507E14",
"h  c #A75B27",
"j  c #AA5D27",
"k  c #AE5B28",
"l  c #B15C29",
"z  c #B76826",
"x  c #BA6827",
"c  c #548415",
"v  c #578916",
"b  c #5A8D17",
"n  c #57841A",
"m  c #578818",
"M  c #5B8C1B",
"N  c #5C9017",
"B  c #5D9119",
"V  c #61951D",
"C  c #64981E",
"Z  c #649523",
"A  c #669A21",
"S  c #699D23",
"D  c #679429",
"F  c #709E2F",
"G  c #6BA124",
"H  c #6EA129",
"J  c #72A62C",
"K  c #75A82E",
"L  c #76AB2E",
"P  c #76AA2F",
"I  c #77AB2F",
"U  c #75A92D",
"Y  c #76A035",
"T  c #76A931",
"R  c #77AB30",
"E  c #78AC31",
"W  c #79AE30",
"Q  c #78AC32",
"!  c #79AC32",
"~  c #7BAF34",
"^  c #7CAF36",
"/  c #79AC33",
"(  c #77A239",
")  c #7FAE3D",
"_  c #7FAC3E",
"`  c #7CB133",
"'  c #7CB034",
"]  c #7DB135",
"[  c #7EB235",
"{  c #7DB136",
"}  c #7EB236",
"|  c #7FB336",
" . c #7FB237",
".. c #7FB337",
"X. c #7DB136",
"o. c #7FB139",
"O. c #80B338",
"+. c #81B439",
"@. c #82B53A",
"#. c #83B63A",
"$. c #82B73A",
"%. c #83B63B",
"&. c #82B23E",
"*. c #E6A819",
"=. c #E8AB18",
"-. c #87BA40",
";. c #8ABD41",
":. c #8CBF43",
">. c #8CBF44",
",. c #8BBE42",
"<. c #8DC143",
"1. c #8DC044",
"2. c #8EC145",
"3. c #8FC245",
"4. c #8FC246",
"5. c #8DC044",
"6. c #90C347",
"7. c #91C447",
"8. c #91C448",
/* pixels */
"                                                                                                    ",
"                                                                                                    ",
"                                                                                                    ",
"                                                                                                    ",
"                                                                                                    ",
"                                                                                                    ",
"                                                                                                    ",
"                                                                                                    ",
"                                                                                                    ",
"                                                                                                    ",
"                                                                                                    ",
"                                                                                                    ",
"                                                                                                    ",
"                                                            - - - =                                 ",
"                                                          - i i q w >                               ",
"                                                          ; a c r h j l                             ",
"                                            = = = = = = ; a g e j , , <                             ",
"                                      = = = 5 u a M s 4 = 5 q w z *.=.z < = =                       ",
"                                    = 6 g c b b N c 5 = = - 5 u p f f p J o.&.7 .                   ",
"                                & = a m b B b N B a 5 8 6 0 m b v v v v B A $.) ( 9                 ",
"                              = s s ^ %.%.A b B N a i b m V %.%.o.V { %.$.$.H ..F 8 @               ",
"                          $ - a B o.,.2.8.S N B B b b S o.%.2.>.2.o.2.2.2.L B C T t . .             ",
"                        3 i d ' { 2.>.2.K V a i m N b H 8.2.:.>.2.2.<.<.2.A b N S n 5 &             ",
"                        3 V { 2.2.2.2.K B c 5 6 g N B V ! 2.:.6.4.4.>.2.2.o.A N N B c ; .           ",
"                      2 d ' 2.<.<.<.3.A N a 3 5 g B c c S 7.,.K K I <.3.3.' Z N m g i $ .           ",
"                      4 G 2.2.2.<.<.E B N i - 5 g S Z a M K H a 8 u D I I M c i 2 = % o             ",
"                    - 6 G 2.2.2.2.<.V N c 6 $ 2 s K O.g 0 c b a 2 - 3 0 u 5 4 ; % O X .             ",
"                    2 a M o.{ { ' ' B v i 5 o 2 V K H i 3 y c c a 0 3 ; 2 2 2 5 6 4 + .             ",
"                    2 0 i c c c c c c i 0 & + 6 ` I c 6 ; 3 6 0 m c i i i i i y 5 2 @               ",
"                    - 5 0 i 0 i i q i q 5 O 2 c E { C v 0 = $ 3 0 0 0 0 0 0 5 2 + .                 ",
"                    - 3 5 0 0 0 0 i q 5 3 O 2 c I 7.! b c 4 X $ - ; ; ; - 2 O .                     ",
"                    - 3 3 3 3 3 4 0 4 3 = o - s J 2.{ m 0 4 & X X . . . . .                         ",
"                      = = = = = 3 4 4 3 = & o - s J ,./ c i i 4 = & X .                             ",
"                    - 4 4 4 3 3 4 4 = & & O . + 4 g B b S -.&.m 4 & & & X .                         ",
"                    - 5 u y 4 4 = = O . X @ & O + = 4 s M B A o.8 o X % & & o                       ",
"                      = 2 y y y g c s 3 2 O X + + X   3 a i a V M s 8 O X % & O                     ",
"                          = O O + + i i 0 6 + X         * O O + @ a ^ u o . X                       ",
"                                    O + + + O                     O * +                             ",
"                                                                                                    ",
"                                                                                                    ",
"                                                                                                    ",
"                                                                                                    ",
"                                                                                                    ",
"                                                                                                    ",
"                                                                                                    ",
"                                                                                                    ",
"                                                                                                    ",
"                                                                                                    ",
"                                                                                                    ",
"                                                                                                    "
};
