/* XPM */
static char *_3cc49db880546f3b5a7ed7ae26825806YCxP5apxSMapJ2o[] = {
/* columns rows colors chars-per-pixel */
"50 50 104 2 ",
"   c black",
".  c #20300A",
"X  c #314B0B",
"o  c #1F5E24",
"O  c #215F27",
"+  c #216326",
"@  c #216129",
"#  c #256D2A",
"$  c #27752D",
"%  c #266433",
"&  c #266A32",
"*  c #296C3A",
"=  c #426810",
"-  c #2C6B43",
";  c #346E4E",
":  c #2B7146",
">  c #2E764D",
",  c #2E7753",
"<  c #2D7952",
"1  c #327251",
"2  c #367A5F",
"3  c #3E7665",
"4  c #397A60",
"5  c #3E7C6A",
"6  c #417A6B",
"7  c #457D73",
"8  c #4A7E7B",
"9  c #5C9018",
"0  c #34856D",
"q  c #39826C",
"w  c #388975",
"e  c #448176",
"r  c #45867F",
"t  c #4A807C",
"y  c #8DC044",
"u  c #4A8483",
"i  c #448B83",
"p  c #4E868B",
"a  c #4C8C8C",
"s  c #53848D",
"d  c #45938C",
"f  c #4F8293",
"g  c #4E8E92",
"h  c #4E8998",
"j  c #538495",
"k  c #588697",
"l  c #538992",
"z  c #598799",
"x  c #568C9B",
"c  c #598B9B",
"v  c #4C9396",
"b  c #4C939C",
"n  c #469A9C",
"m  c #54919E",
"M  c #58919F",
"N  c #44A39F",
"B  c #5A8FA0",
"V  c #4D96A0",
"C  c #459DA3",
"Z  c #4E9DA5",
"A  c #4F9FA8",
"S  c #5495A1",
"D  c #5991A1",
"F  c #529AA5",
"G  c #529FA9",
"H  c #46A3A6",
"J  c #4CA0A6",
"K  c #46A6A8",
"L  c #4DA0A8",
"P  c #4CA2A8",
"I  c #4FA2AA",
"U  c #4AA6A8",
"Y  c #4DA4AB",
"T  c #4DA5AB",
"R  c #4BA7AC",
"E  c #49A8AB",
"W  c #4AA9AC",
"Q  c #4AA9AD",
"!  c #49AAAD",
"~  c #49ABAF",
"^  c #4AAAAE",
"/  c #4BABAF",
"(  c #4DA8AD",
")  c #49ACAF",
"_  c #50A0A8",
"`  c #52A0A9",
"'  c #51A2AA",
"]  c #4BAEB1",
"[  c #54A6B0",
"{  c #51AEB5",
"}  c #49B0B2",
"|  c #49B1B2",
" . c #49B3B5",
".. c #4EB5B9",
"X. c #4EB7BA",
"o. c #49BDBC",
"O. c #50B1B6",
"+. c #49C0BE",
"@. c #49C2C0",
"#. c #4CC3C3",
"$. c #49C4C2",
"%. c #4AC4C2",
"&. c #49C9C6",
"*. c #4AC9C7",
/* pixels */
"z z x z z x z z z z z z x x c c m c B B c c c c c D B B B B B c c c B c D c c D c B c c z c c z z x ",
"z x x z z z x z z c z c c x c c c c c B D c D B B c B B B B B c c c c c c c c c c c c c z c z z z z ",
"z z z z z z z z z z z z c c c D c c c B D D B D B D c c c c c B x c c x c c c c c c c c c c c z z z ",
"z x z x z z x x c c c B B c c c c c c c c c c m c c c c c c c c c z c c c c c M c c c c c z k c x z ",
"c c c c x x c M B c B B D F S S S F S S m x z z c c c c c k c k z z z z c c c x c c c c z z c c c x ",
"c c c c c c c c D D B D G W ] ] { ( W R S x x l c k k c k c c k z c z c c x B D D D S D c c c c c x ",
"c c c B B B c M x c D A R ] @.*.%.| W W R Z Z m k k c k k c c c c c B c c S Y _ _ ' ' F D c D B c D ",
"B B B B B c c c x z x A A Y X.#.%.| U K ( R Z m k z k k c c c c c B c B c F Z Y ' ' R F D D B B B D ",
"B B B B M x c M c x z x c c x F W H w 0 w q u j j k z z x 7 6 5 5 u x x x c x x x x x M c x D c B B ",
"B B M F _ _ O.O._ _ F D z z z x m g % . . . 3 . . .       *       4 D z c c x z c z z z c z c x c c ",
"c M M G T ( X.X.T T _ D c c k l r 7 . = = X . 9 y y y y 9   = = X   d a x x x l k z z z z z x z c c ",
"c c c c M M M M x M D D B B x u @ . = = = X X . 9 y y 9 . X X = X .   < R Z n h f j k z c x z z c c ",
"c c c c c c c c S F F G S c l e @ . = X X . . . . . . . . . . X . .   : v v b x j k k k j z z z z c ",
"c c c c k c c M T ( ] _ F 7 % & $ . = . . = 9 9 9 9 9 9 9 9 =     .   # % - l x x M x x S x c x c k ",
"c c c c c c c M S S S M c 3 O + $ . . = 9 9 y y y y y 9 9 9 9 9 X     # o % s x S R T Y R A Y J m x ",
"c c c c c c c c c c c c c 3 o + . = = 9 9 y y y y y y y 9 9 9 9 = X .   o % v F A W W ] ] W W W _ S ",
"c c x x x x z x x x x x x 3 o . = 9 9 9 y y y y y y y y y 9 9 9 = = X .   & J W R ( W R W ( R W W T ",
"c c c k c z z x Z Z Z i q > + . 9 9 9 y y y y y y y y y 9 9 9 9 = = X .   & 4 5 g m S S S S m S S D ",
"z c c x c m m V H K K < O + . 9 y 9 9 y y y y y y y 9 9 9 9 9 9 9 = = X .   + O 8 x m S S S S S M z ",
"z z k k S Y C C C C C , + . 9 y y 9 9 9 9 9 9 9 9 9 9 9 9 = = 9 = = 9 X X .   O t x _ ( W ( W [ S x ",
"x c z z x S V b b b S 1 o . 9 y y 9 9 y y y y y y 9 9 9 9 = = 9 = = = X X .   @ u x m S F S F S S c ",
"c c c z z z z z z z c ; O . y y y 9 y y y y y y y 9 9 9 9 9 9 9 9 = = = X .   @ i m m x x x c c x c ",
"c c z z z z z x z z . . . . y y y 9 y y y y y y y 9 9 9 9 9 9 9 9 9 = = X .         R Z x c c c M c ",
"c c c x c x z k k . y y 9 . y y 9 y y y y y y y 9 9 9 9 9 9 9 9 9 9 = = X .   . . .   m z x c c c c ",
"c c c c D c c c x . y y 9 . y y 9 y y y y y y y 9 9 9 9 9 9 = = 9 = = 9 X .   . . .   c c c c c c c ",
"D c c D D B c B . 9 y 9 9 . 9 y 9 y y y y y y y 9 9 9 9 = 9 = = 9 = = = X .   . . . .   c c c c c c ",
"c c M c c B B B . y 9 9 9 = . 9 9 y y y y y y y 9 9 9 9 9 9 9 9 9 = = = .   . . X . .   c c c c M c ",
"c c c c c c B B . y y 9 9 = . 9 9 y y y y y y y 9 9 9 9 9 9 9 9 9 = = X .   . X X X .   c c x x c c ",
"z c c c c B B . 9 y y y 9 = = . 9 y y y y y y y 9 9 9 9 9 9 = 9 = = = X   . X X X X . .   c c c c c ",
"z c c c c c c . 9 y y y 9 = = . 9 9 y y y y y y y 9 9 9 9 9 9 9 = = X X . X X = = X . .   z z z c c ",
"c k z c c c c . 9 y y y 9 9 = = 9 9 y y y y y y y 9 9 = 9 9 9 = = = X X X X X = = X . .   z z k k z ",
"k c k c c c c c . 9 y y 9 = 9 = = 9 9 9 y y y y y y 9 9 9 9 = = = X X X X X X X X . .   z j j j j j ",
"z k z z c c c k . = 9 9 9 9 9 9 = = 9 9 9 9 9 9 9 = 9 9 = = = = X X . X = = X X X . .   z z j j k l ",
"c c c c c c c c c . = = 9 = = = = = = X X = = = = = = = = = X X X . . X = = X X . .   z z z z z c c ",
"c c c c B c c c c c . = = = = = = = = X X X X X X X X X X X X . . . . . X X X . .   c c c c x x B c ",
"c c c M c c c B c c . = = = = = = X X     . . . . . . . . . .     . . . . . . . .   x x c B x x c c ",
"c M c c c c c c M c x . . X X X X     $ $     . . . . . .     $ $     . . . .     c c x c c B B c c ",
"c c c c c c c c c z x x c         - $ # # # #             # $ # $ * :         F G G _ S B B c B c c ",
"c c c c M c c c c z z z z z z c x p @ O O o + O o o o O O o o o o 4 ) E W ] ] ] ] ] { G B c c c c c ",
"c c c c c c c c z z z z z x b C C v - % % % % % % % % % % % & % % 0 ) W W ] W ] ] ] _ D x B c c c c ",
"c c M c c c z z z c c S S Z C K K Z v s s s s s s s s l v v v H H K W ( W W ) ) ] ] { [ F D S D c c ",
"c c c c c x z c M x S R W W ] ] R F x x m x m x M x M x x k x F U H W J U W ( ( R { #.#.[ R Z x c M ",
"c c c c c c c M _ R R ( ] ] @.*.$.] Z Y X.X._ J _ J m z k z z x m m m m m m M m m S _ _ F S m x c c ",
"c B M c c c c M F _ _ _ R ] +.*.$. .W ] o.o.( W K Z b k z x z c k k k k c k c c z c c c c c c x c c ",
"c c c M c m c D c B x D F W W ] ] R ( R W W R Y J h f f z c c c z c x c D x x c c c c c c c c c M c ",
"c B c c c c c c c c x c D S S S S S S m m m m S m x k l c c c G J _ _ Z ' S c c c c c c c c c D c c ",
"z c c c x c c c c c x x m m D S m z z z x k c c c x x M c B c G T T T T _ S c c c c c k c c c c c c ",
"c c c c z z z z c c z z F R R R T S x c c c c c D c c c c D D S D M M m c c c k c c c c c c c c c c ",
"k c c k c k k k j j j j l Z R W W Y S x x D c D c B B B c D F G F x c c c z z z x z z c M c c c c c ",
"c k k k k c z k j j f f j x Z R W W A D x x B D B B B B c F R { _ x x c z z z z z z x c c c M c c c "
};
