/* XPM */
static char *_d3cd72b15cf41e6aa96d5abdd4ead35kpW0L64apLSfnsyq[] = {
/* columns rows colors chars-per-pixel */
"50 50 7 1 ",
"  c None",
". c black",
"X c #20300A",
"o c #314B0B",
"O c #426810",
"+ c #5C9018",
"@ c #8DC044",
/* pixels */
"                                                  ",
"                                                  ",
"                                                  ",
"                                                  ",
"                                                  ",
"                                                  ",
"                                                  ",
"                                                  ",
"                                                  ",
"                                                  ",
"                                                  ",
"                                                  ",
"                  XXX XXX... ...                  ",
"                 XOOoX+@@@@+.OOo.                 ",
"                XOOOooX+@@+XooOoX.                ",
"                XOooXXXXXXXXXXoXX.                ",
"                XOXXO++++++++O..X.                ",
"                XXO++@@@@@+++++o..                ",
"               XOO++@@@@@@@++++OoX.               ",
"              XO+++@@@@@@@@@+++OOoX.              ",
"              X+++@@@@@@@@@++++OOoX.              ",
"             X+@++@@@@@@@+++++++OOoX.             ",
"            X+@@++++++++++++OO+OO+ooX.            ",
"            X+@@++@@@@@@++++OO+OOOooX.            ",
"            X@@@+@@@@@@@++++++++OOOoX.            ",
"         XXXX@@@+@@@@@@@+++++++++OOoX....         ",
"        X@@+X@@+@@@@@@@++++++++++OOoX.XXX.        ",
"        X@@+X@@+@@@@@@@++++++OO+OO+oX.XXX.        ",
"       X+@++X+@+@@@@@@@++++O+OO+OOOoX.XXXX.       ",
"       X@+++OX++@@@@@@@+++++++++OOOX.XXoXX.       ",
"       X@@++OX++@@@@@@@+++++++++OOoX.XoooX.       ",
"      X+@@@+OOX+@@@@@@@++++++O+OOOo.XooooXX.      ",
"      X+@@@+OOX++@@@@@@@+++++++OOooXooOOoXX.      ",
"      X+@@@++OO++@@@@@@@++O+++OOOoooooOOoXX.      ",
"       X+@@+O+OO+++@@@@@@++++OOOooooooooXX.       ",
"       XO++++++OO+++++++O++OOOOooXoOOoooXX.       ",
"        XOO+OOOOOOooOOOOOOOOOoooXXoOOooXX.        ",
"         XOOOOOOOOooooooooooooXXXXXoooXX.         ",
"         XOOOOOOoo..XXXXXXXXXX..XXXXXXXX.         ",
"          XXoooo..  ..XXXXXX..  ..XXXX..          ",
"            ....      ......      ....            ",
"                                                  ",
"                                                  ",
"                                                  ",
"                                                  ",
"                                                  ",
"                                                  ",
"                                                  ",
"                                                  ",
"                                                  "
};
