/* XPM */
static char *_74ea9044aa24e1ed519eea28e31aecbIIAxrr2LA5Km07Ua[] = {
/* columns rows colors chars-per-pixel */
"50 50 213 2 ",
"   c #070E0F",
".  c #090E10",
"X  c #0C1516",
"o  c #111A1C",
"O  c #15250D",
"+  c #122916",
"@  c #141E21",
"#  c #0F2223",
"$  c #132324",
"%  c #142729",
"&  c #172E30",
"*  c #1D2D33",
"=  c #22353B",
"-  c #1E441F",
";  c #2E4C1A",
":  c #35561D",
">  c #265728",
",  c #2C5F3F",
"<  c #377434",
"1  c #426822",
"2  c #47792B",
"3  c #767E32",
"4  c #263B42",
"5  c #283E46",
"6  c #1C4143",
"7  c #27444A",
"8  c #2E4B53",
"9  c #324E57",
"0  c #2A5459",
"q  c #35525D",
"w  c #356D4D",
"e  c #2A5F61",
"r  c #375D66",
"t  c #3C5F6A",
"y  c #2B6466",
"u  c #3C626B",
"i  c #386B72",
"p  c #347578",
"a  c #44796C",
"s  c #456B78",
"d  c #46717D",
"f  c #7B7B7B",
"g  c #FD3F36",
"h  c #827731",
"j  c #AA6735",
"k  c #DE4D35",
"l  c #D45135",
"z  c #E94939",
"x  c #F54337",
"c  c #AD6C68",
"v  c #B06A67",
"b  c #A17160",
"n  c #C1615E",
"m  c #3D863D",
"M  c #54872D",
"N  c #558B2E",
"B  c #498734",
"V  c #558D31",
"C  c #5A8C37",
"Z  c #4E983B",
"A  c #549235",
"S  c #599332",
"D  c #529639",
"F  c #529A3D",
"G  c #658834",
"H  c #56A03E",
"J  c #3D8F55",
"K  c #3C8973",
"L  c #459A47",
"P  c #509E41",
"I  c #559D4B",
"U  c #559E55",
"Y  c #618E41",
"T  c #6E904D",
"R  c #4FA346",
"E  c #4EA74B",
"W  c #4DAA4B",
"Q  c #50A143",
"!  c #51A84D",
"~  c #4DA554",
"^  c #4DAC53",
"/  c #4CAC5A",
"(  c #52AE55",
")  c #519F6A",
"_  c #4B8F76",
"`  c #529D77",
"'  c #76926E",
"]  c #4FA566",
"[  c #4CAB65",
"{  c #4CAD6B",
"}  c #50A261",
"|  c #51A46D",
" . c #4DB669",
".. c #4CA779",
"X. c #52A273",
"o. c #54A57A",
"O. c #51B273",
"+. c #7AA97B",
"@. c #829773",
"#. c #487884",
"$. c #4E7B89",
"%. c #517E8E",
"&. c #757F8A",
"*. c #3C8588",
"=. c #3C898C",
"-. c #399393",
";. c #498E8B",
":. c #558D8E",
">. c #569788",
",. c #4F8292",
"<. c #4F8A98",
"1. c #548495",
"2. c #568C95",
"3. c #598E96",
"4. c #578798",
"5. c #598799",
"6. c #568C9B",
"7. c #598B9B",
"8. c #489896",
"9. c #4D939D",
"0. c #559495",
"q. c #599296",
"w. c #57979B",
"e. c #54929E",
"r. c #768789",
"t. c #658D9A",
"y. c #66959D",
"u. c #7A9690",
"i. c #74929C",
"p. c #7B979D",
"a. c #4AA788",
"s. c #57A285",
"d. c #4AAC94",
"f. c #4EAF98",
"g. c #5A8FA0",
"h. c #449DA2",
"j. c #4E9BA4",
"k. c #4D9DA4",
"l. c #5495A1",
"z. c #5991A0",
"x. c #529BA5",
"c. c #529FA9",
"v. c #6C95A1",
"b. c #689EA4",
"n. c #7298A4",
"m. c #7C9CA5",
"M. c #7E9FA9",
"N. c #45A2A6",
"B. c #4CA0A6",
"V. c #46A6A9",
"C. c #4DA4AA",
"Z. c #4AAAAE",
"A. c #53A3A9",
"S. c #57A5A9",
"D. c #51B3AD",
"F. c #4BADB1",
"G. c #4AB2B4",
"H. c #4ABDBD",
"J. c #78A6A7",
"K. c #70AAAD",
"L. c #49C1BA",
"P. c #78BAC0",
"I. c #4BC3C3",
"U. c #4BC9C7",
"Y. c #5DCACA",
"T. c #6EC8C7",
"R. c #858687",
"E. c #8A8A8A",
"W. c #8F9E85",
"Q. c #829599",
"!. c #83999E",
"~. c #949794",
"^. c #949B9C",
"/. c #9C9D9E",
"(. c #9CA49D",
"). c #899CA1",
"_. c #9C9FA0",
"`. c #88A3A9",
"'. c #9DA1A2",
"]. c #99A5A9",
"[. c #84ACB1",
"{. c #94AAB1",
"}. c #98B4B5",
"|. c #A2A4A4",
" X c #A4A9A7",
".X c #A4AAAD",
"XX c #ABABAC",
"oX c #A6BAA9",
"OX c #A5ADB1",
"+X c #ABAEB1",
"@X c #A5B3B6",
"#X c #ABB3B6",
"$X c #ACB5B9",
"%X c #AABABA",
"&X c #B3B4B5",
"*X c #B2B8B7",
"=X c #B3BABC",
"-X c #BABCBD",
";X c #B1BDC3",
":X c #BCBEC0",
">X c #BBC4C8",
",X c #B9C5CB",
"<X c #C3C8CC",
"1X c #C4CFD4",
"2X c #C9D2D7",
"3X c #CAD4D9",
"4X c #D6D8DA",
"5X c #D4DADD",
"6X c #D6DDE2",
"7X c #DBDEE0",
"8X c #DBE1E4",
"9X c #E4E9EB",
"0X c #EBEFF2",
/* pixels */
"5.5.5.7.4.4.4.4.4.4.4.4.7.7.7.7.g.7.7.g.7.7.7.7.7.z.z.g.g.g.g.7.7.z.7.7.e.7.t.7.7.7.7.5.5.7.7.5.7.4.",
"7.7.7.7.7.4.5.5.4.g.7.7.7.g.7.7.7.g.7.g.g.7.g.g.7.g.z.z.t.g.7.g.7.7.7.7.7.7.e.7.g.7.7.7.7.7.7.4.7.5.",
"7.7.4.5.3.5.3.5.v.m.m.M.M.M.M.M.M.M.).b.g.g.g.g.g.g.7.7.7.7.7.7.7.7.7.7.7.7.7.7.7.7.7.7.7.4.7.4.4.5.",
"4.4.4.5.7.5.7.7.).#X$X$X$X$X#X$X$X$X@X`.l.7.7.g.7.7.7.7.7.7.7.7.7.5.7.7.7.7.g.7.7.7.7.7.7.5.4.5.4.5.",
"4.7.7.4.7.7.7.z.{.-X*X@X+XXXXXXX@X#XXX{.n.v.i.t.5.7.7.5.4.7.4.4.5.5.5.5.5.7.7.7.z.7.7.7.4.7.4.7.7.7.",
"g.7.7.4.7.7.7.g.{.=X{.m.Q.E.E.p.K.m.E./.}.@X{.n.7.7.7.4.7.7.5.4.7.7.5.7.7.7.z.7.z.z.z.g.g.7.7.7.7.7.",
"7.7.g.g.g.t.t.v.].#X`.w.r.f f u.D.l.r.~.&X=X@XJ.t.7.7.7.7.7.5.7.7.7.7.7.7.x.A.C.A.C.A.c.z.g.7.g.g.7.",
"7.g.g.g.v.m.Q.Q.(.|.`.p.E.R.R.Q.J.b.q.u.~.`.[.[.`.t.5.5.5.7.7.7.7.7.g.g.7.x.C.C.C.C.k.x.z.g.g.g.z.z.",
"g.g.g.z.n.^./._.'.|.|./._._./._.(.J.x.t.r.t.v.].OXn.5.7.7.g.g.g.e.t.z.7.7.7.7.6.7.3.e.7.7.7.7.z.g.g.",
"g.g.g.x.b._.|.+X=X:X#X+X-X:X&X&X-X@Xp.r.R.r.i.^._.`.[.[.K.S.c.c.B.B.e.5.5.7.4.5.7.5.5.5.7.7.7.7.7.g.",
"g.g.z.k.b.'..X;X3X7X<X>X5X5X,X,X7X<X'.~.~.^.~.R.E..X;X%X}.D.G.G.G.G.D.w.e.6.7.1.4.4.4.4.7.7.5.5.7.7.",
"7.7.7.z.t.).].$X2X6X3X2X6X6X,X1X9X7X-X&X-X-X&XE.R.|.&X&X%XK.T.T.Y.I.L.f.d.a.a.;.<.%.4.4.4.7.5.5.5.5.",
"7.7.3.7.7.t.!. X=X1X6X7X3X>X;X1X9X9X7X4X5X8X4XXX~./.|.|.@X@X>X}.P.D.a.[ [ / } _ ,.1.g.%.5.5.5.5.7.4.",
"4.7.5.6.7.7.i.).].;X2X5X,X;X,X3X9X9X9X9X9X0X9X-XXXXXXX(. X&X%XoXJ.>.[ ( W E E U ' &.&.t.3.e.6.6.7.7.",
"7.5.7.7.7.7.t.n.`..X&X:X;X,X6X6X2X1X2X1X2X9X0X<X=X<X<X X XOX(.+.O.O./ W Q D Z T b n n R.B.A.B.B.e.7.",
"7.7.7.7.7.7.7.t.Q._.^.'.$X,X6X5X,X%X,X=X>X3X8X<X<X4X4X X~.W.+.( W ^ ^ W D N M 3 k g z c S.Z.Z.Z.C.l.",
"7.7.7.7.7.5.7.4.y.u.i.p.].#X>X-XOX.X.XOX#X:X<X=X&X<X&X@.' ' T D F P E W D N N h k g x c A.Z.Z.Z.Z.C.",
"7.5.6.7.5.5.4.6.x.x.x.b.).|. X'.'._.'._.'.'.(./._._.W.T S S S V V V R W D N N h l g x v t.z.e.e.l.l.",
"7.7.7.4.6.l.e.j.V.V.V.C.K.p.m.p.p.).p.u.W.@.@.' @.@.' C M N N N N N D P F Z A G j l x v e.z.l.l.7.7.",
"4.7.7.7.e.B.h.h.h.h.N.V.S.S.D.S.S.S.b.s.( I C S Y Y C M N N N N V N V D R R A N M j k c A.C.Z.C.x.7.",
"7.7.4.7.7.l.9.9.9.e.9.w.8.>.d.d.d.D.L.{ F Z N N N N N N N N N N N N V D W W D N N 3 j b l.x.x.x.z.7.",
"5.3.4.4.7.5.4.5.5.5.5.0.X.[ { {  . . ./ Z A N N N N N N N N N N N V F E ^ W D M N G T ' 3.7.7.5.7.7.",
"7.7.5.7.4.4.5.5.5.5.7.:.] W W E W W W F A V N N N N N V V N N N V D E / L L Z C A F / ..7.7.7.7.7.e.",
"7.7.7.7.7.7.7.7.3.l.x.8.{ W P F Z Z Z R Z Z N N N N V V N N V S D P | _ , > B P Q ~ ..0.7.7.7.7.7.7.",
"7.7.7.g.7.7.7.7.5.x.C.f.[ E A V N N V F W F V N N M M M N N M M P ^ >.d * O L ( ^ | 2.5.7.7.7.7.7.7.",
"7.7.7.z.z.g.g.g.g.w.>.X.I F V M N N N D F H D S M : : 2 N N 1 ; < / s.,.* X w o.o.>.3.7.7.7.7.7.e.7.",
"7.7.7.z.7.g.g.g.e.t.X.~ F V V V N N N N D H W H 1 O O 2 N N : O > ~ >.#.* + s q.3.3.z.7.7.7.7.7.t.g.",
"g.7.7.7.7.7.7.g.e.0.| W D N M N V N N N V R W W m O O 2 F V < - > < _ %.9 = 9 r t d 7.g.7.7.g.7.7.7.",
"7.7.7.7.7.7.z.z.g.q.X.W A N N N N V N N N R W W m + + B W W Z m - + i 5.$.s * X o 8 1.6.7.7.7.4.5.7.",
"5.7.7.7.7.g.7.g.g.q.| W D N V V N N N N N R ^  .J # + J  . . .[ w & 0 #.5.$.4 o @ = u $.7.4.4.5.5.5.",
"5.5.5.5.7.7.7.7.7.w.| E D V N N N N N N N R ^ o.a + + K f.d.d.a._ t 7 4 d 5.s t t 8 * 9 1.7.4.4.7.4.",
"5.5.5.5.5.7.7.7.7.w.{ E D N V V V V A V A I } >.#.% % d w.A.Z.Z.A.9.= X r 7.7.5.$.q @ 7 %.1.1.,.1.1.",
"7.7.7.7.7.5.7.4.7.w.{ W D M M S F R Q Q Q } s.x.#.% $ #.z.c.F.F.F.V.6   r l.e.#.9 5 8 u 5.%.4.%.4.1.",
"5.7.6.7.g.7.7.4.7.0.X.! D V V D ~ ^ ~ W ^ a.C.C.=.% % =.F.F.F.F.Z.8.6 # p k.k.i @ * #.5.5.5.5.7.7.7.",
"7.7.7.7.7.7.7.7.7.2.>.} I P P I ) X.X.| o.d.F.Z.-.# # =.H.I.I.I.-.y 7 8 #.j.l.t . * %.7.7.7.g.7.7.7.",
"7.7.7.7.7.7.g.7.7.6.2.>.} W E } >.0.0.0.0.w.Z.Z.=.% % =.I.U.I.H.y # 8 #.1.5.4.t X * $.7.7.7.g.7.z.7.",
"7.e.7.7.7.z.7.7.7.7.3.3.` ] ] ` 2.k.C.C.B.=.p p y 6 8 -.G.Z.l.e.5   9 5.7.7.7.d 4 8 %.7.7.7.g.g.7.7.",
"7.7.7.7.7.7.7.7.7.5.7.6.:.>.:.:.7.e.j.9.9.0 @ o & y ;.l.x.z.7.%.7   e j.x.x.x.9.*.,.x.x.g.g.7.g.7.7.",
"7.7.5.7.7.7.t.7.7.5.4.5.7.4.4.2.7.6.4.$.s 4 o . * d 7.e.z.z.z.<.7 X y Z.F.F.F.F.Z.F.F.c.g.g.7.7.7.7.",
"7.7.7.7.7.e.7.7.7.5.4.4.4.6.9.h.h.k.9.r = 5 r q t %.5.7.k.Z.C.k.6   e V.Z.Z.Z.Z.Z.F.x.g.7.7.7.g.7.7.",
"7.7.7.z.7.7.5.5.5.5.7.l.l.j.h.N.N.k.e.9 @ 9 4.5.5.7.5.6.x.k.c.h.0 $ y V.Z.V.Z.Z.F.F.D.S.c.c.z.g.7.7.",
"7.7.7.7.7.5.5.7.7.e.l.C.F.Z.F.F.F.x.6.i 9 d 6.e.e.7.6.7.7.5.6.j.p y *.V.C.C.Z.Z.Z.F.I.I.Z.c.j.4.7.7.",
"7.e.7.7.7.7.7.l.A.C.C.F.Z.F.I.U.I.F.k.h.C.G.C.k.B.A.e.7.5.5.4.6.9.<.2.6.e.e.z.l.z.x.c.c.x.l.l.g.7.z.",
"7.t.7.7.e.7.7.l.k.C.A.k.V.F.H.U.I.G.Z.Z.H.L.Z.C.V.k.9.4.7.5.5.7.5.5.5.5.4.7.5.7.5.7.7.7.g.g.4.7.7.7.",
"g.7.7.7.7.7.7.7.z.7.z.7.x.F.Z.F.F.Z.Z.C.Z.C.C.Z.k.<.,.,.4.7.7.7.7.7.4.7.7.6.7.7.g.7.7.7.7.7.7.7.7.7.",
"7.7.7.g.7.7.g.7.7.7.7.7.z.l.l.l.l.l.e.e.e.9.e.l.l.1.1.7.4.7.6.x.k.C.A.k.C.l.7.7.7.7.7.5.7.7.7.7.e.7.",
"7.7.7.7.7.7.7.7.7.7.7.7.z.l.z.l.e.6.5.5.4.7.5.7.7.7.z.7.7.g.z.x.C.Z.C.C.C.l.7.7.7.7.7.4.4.7.7.7.7.7.",
"3.5.5.5.4.7.5.5.4.4.4.7.j.C.Z.C.C.z.7.7.7.7.7.g.6.7.g.g.g.g.g.z.g.z.z.z.z.7.7.5.5.5.4.7.7.g.7.7.7.7.",
"7.7.7.4.5.5.7.4.1.1.1.<.z.j.Z.Z.Z.C.x.g.4.g.7.g.g.7.g.g.7.l.x.c.l.7.7.7.5.5.7.7.4.5.7.7.7.7.7.7.7.7.",
"5.4.5.4.7.4.4.4.,.%.,.%.%.6.k.Z.Z.Z.k.g.g.7.g.g.g.g.g.g.g.l.Z.F.C.z.5.4.5.5.4.4.7.5.5.7.e.7.7.7.7.7."
};
