/* XPM */
static char *e2e52059d5ed4b99a8ee4ce471ec0b500ATOMgUSj6L5SiS5[] = {
/* columns rows colors chars-per-pixel */
"50 50 148 2 ",
"   c None",
".  c #000000",
"X  c #060E07",
"o  c #0E210F",
"O  c #11210D",
"+  c #1B2C0F",
"@  c #112711",
"#  c #1E441F",
"$  c #2E4C1A",
"%  c #35551D",
"&  c #36581E",
"*  c #235326",
"=  c #285727",
"-  c #2A5F2B",
";  c #396F2D",
":  c #2F6D32",
">  c #3C7D36",
",  c #426822",
"<  c #467327",
"1  c #417A2F",
"2  c #4D7D2A",
"3  c #6F7F30",
"4  c #7D7C34",
"5  c #7B7B7B",
"6  c #FD3F36",
"7  c #847530",
"8  c #817831",
"9  c #A56732",
"0  c #A26832",
"q  c #B8663C",
"w  c #DC4E35",
"e  c #CC5837",
"r  c #CC5F3E",
"t  c #D35235",
"y  c #E64935",
"u  c #F44336",
"i  c #FA4036",
"p  c #3B853C",
"a  c #3C893F",
"s  c #4F832D",
"d  c #51842C",
"f  c #558B2E",
"g  c #598B2F",
"h  c #438A3A",
"j  c #558D31",
"k  c #598C35",
"l  c #5C8D3A",
"z  c #4F9138",
"x  c #4E9A3C",
"c  c #539235",
"v  c #529639",
"b  c #529A3D",
"n  c #599332",
"m  c #698230",
"M  c #618E38",
"N  c #72873A",
"B  c #56A03E",
"V  c #449240",
"C  c #489F47",
"Z  c #429B48",
"A  c #509F41",
"S  c #5D9B4C",
"D  c #618E41",
"F  c #68914B",
"G  c #789349",
"H  c #659752",
"J  c #73915E",
"K  c #4EA344",
"L  c #4AAA47",
"P  c #4BA74A",
"I  c #4DAB4C",
"U  c #50A143",
"Y  c #59A148",
"T  c #51AE4C",
"R  c #4AB14F",
"E  c #50B14F",
"W  c #4CAF50",
"Q  c #57AB58",
"!  c #4CB152",
"~  c #4FB855",
"^  c #50BD58",
"/  c #769362",
"(  c #7F9470",
")  c #7D9B76",
"_  c #63AC68",
"`  c #63B468",
"'  c #7EA37F",
"]  c #79A376",
"[  c #78B47C",
"{  c #809471",
"}  c #879E78",
"|  c #868686",
" . c #8B8A8A",
".. c #8F9E85",
"X. c #939393",
"o. c #969B92",
"O. c #9D9D9D",
"+. c #A09B9F",
"@. c #8AA28C",
"#. c #9EA29F",
"$. c #95AF98",
"%. c #9BBA9D",
"&. c #9F9FA0",
"*. c #A39BA1",
"=. c #9FA0A1",
"-. c #A3A3A4",
";. c #A8A8A7",
":. c #A4AAAD",
">. c #ABABAC",
",. c #A5AAA3",
"<. c #A8BAA9",
"1. c #A7ADB0",
"2. c #ABAEB2",
"3. c #ADB2B6",
"4. c #ADB7BB",
"5. c #B3B3B4",
"6. c #B3BBB3",
"7. c #B2B5BC",
"8. c #B3BABD",
"9. c #BCBCBD",
"0. c #AEBBC1",
"q. c #B1BDC3",
"w. c #BCBEC0",
"e. c #C0BEC0",
"r. c #B7C2C7",
"t. c #BEC0C2",
"y. c #B9C5CB",
"u. c #BEC8CD",
"i. c #C2C2C3",
"p. c #C4C5C9",
"a. c #C1C9CE",
"s. c #CACDCF",
"d. c #C4CFD4",
"f. c #C6D1D7",
"g. c #CBD2D6",
"h. c #C7D2D8",
"j. c #CAD4D9",
"k. c #D1D3D3",
"l. c #D0D6DA",
"z. c #D4DADD",
"x. c #DBDDDE",
"c. c #D6DDE2",
"v. c #DBDEE0",
"b. c #DBE1E4",
"n. c #E2E7EA",
"m. c #E4E9EC",
"M. c #E8ECED",
"N. c #EBEFF2",
/* pixels */
"                                                                                                    ",
"                                                                                                    ",
"                                                                                                    ",
"                                                                                                    ",
"                                                                                                    ",
"                                                                                                    ",
"                                                                                                    ",
"                9.9.9.e.9.9.9.9.e.e.                                                                ",
"              e.9.9.9.2.>.>.5.9.9.>.>.                                                              ",
"              e.e.i.  X. . .X.  O. .-.9.i.9.                                                        ",
"              5.9.    5 5 5 5     5 X.5.9.9.                                                        ",
"        O.O.O.-.;.-.X. . . . .X.     .X.-.  i.                                                      ",
"        O.#.-.-.-.=.=.=.=.O.=.-.-.  5 5     9.9.                                                    ",
"        O.-.1.8.9.5.1.9.t.3.3.9.9.  | | |   O.&.5.                                                  ",
"        &.:.8.g.v.u.r.z.z.r.u.b.s.;.X.O.O.o.|  .>.9.e.e.                                            ",
"        &.:.4.d.b.l.j.c.z.y.d.m.x.9.5.8.9.>.X. .-.5.5.5.                                            ",
"          =.:.8.d.c.b.h.y.q.d.m.M.x.x.x.b.k.>.X.O.;.;.>.9.9.e.      W ! ! ! !                       ",
"            &.:.0.g.c.u.q.y.j.b.n.n.n.n.N.n.w.;.>.>.=.;.5.6.<.%.  R I I I P Y                       ",
"              -.:.5.w.0.u.z.c.j.f.f.f.j.m.M.a.8.s.p.>.*.>.$.[ ` ~ W I A v x N e 6 u                 ",
"              &.&.O.=.4.y.c.z.r.0.q.q.q.l.b.a.r.z.g.,.o.o.] Q I I I I v f j 4 w i u u               ",
"                    &.:.3.w.9.1.:.:.:.1.w.t.8.7.p.6.} J J H b x x I I v f f 7 y 6 u u               ",
"                      &.-.-.-.-.=.=.O.#.=.=.#.=.-...F g k k c j c K I b f f 4 t u u u               ",
"                        +.O.O.+.*.&.@.@.) ( ( { { J k f f f f f c v x x v j m 9 t u 6               ",
"                                    _ Q S D D D D l f f f f f f f f b K K c f m 0 y 6               ",
"                                    L B c f f f f f f f f g j f f k b T I c f f 4 q r               ",
"                      R R ! R I R R K v f f f f f f f j j f f f j A K ! T c f f M G G               ",
"                      ! I I I I I I x v j f f f f f f f f f j j c U P Z V z c c b I                 ",
"                      ! I K v b x b K x c f f f f n f f j g n v U W   * = h U U P                   ",
"                      I P c f j f f b I b c f f d d f f f d d x I     . @ p E ! I                   ",
"                    I U b j d f f f v B b b c 2 & & 2 g f , $ > ~     . X :                         ",
"                  ! I b k g f f f f f c U I b < + + < n j % O - P     . .                           ",
"                  I I c f f j f f f f j K I Y 1 O O 1 A v ; # * :       .                           ",
"                  ! T c f f f f f f f j A W ! p @ @ h T P C a * @         . . . .                   ",
"                  ! P v d k f f f j f j A W ~ p @ o p ~ ! ~ I * .         . . . .                   ",
"                  ! I v f f f f f f f j A W ^   X X               . .             .                 ",
"                  ! I v f g j c j c k c U W     . .               . .             . .               ",
"                  ! I c g d c b U A U A P       . .               . .           .                   ",
"                  W T c f f c T W W I W         . .               . .         . .                   ",
"                    I A A b U W ! ! ! !         . .               .           . .                   ",
"                      I I I I                   . .             .             . .                   ",
"                        ! !                     . .           . .             .                     ",
"                                          . . .               . .                                   ",
"                                        . . . .               . .                                   ",
"                                      . .                     . .                                   ",
"                                      .                         .                                   ",
"                                                                                                    ",
"                                                                                                    ",
"                                                                                                    ",
"                                                                                                    ",
"                                                                                                    "
};
