/* XPM */
static char *b36186b59a5745818ddbb155bfe41a8aow29owqM3WPtAs5M[] = {
/* columns rows colors chars-per-pixel */
"50 50 125 2 ",
"   c #1F5E24",
".  c #215F26",
"X  c #206226",
"o  c #21622A",
"O  c #246C2A",
"+  c #27752D",
"@  c #28772E",
"#  c #287A2F",
"$  c #256533",
"%  c #266A32",
"&  c #296C37",
"*  c #296C3A",
"=  c #297D30",
"-  c #287239",
";  c #2D6B43",
":  c #336E4D",
">  c #2B7146",
",  c #2E764D",
"<  c #346F50",
"1  c #2E7753",
"2  c #2D7A54",
"3  c #2D7F58",
"4  c #337252",
"5  c #307957",
"6  c #377759",
"7  c #3A735B",
"8  c #3E7664",
"9  c #357D62",
"0  c #3C7A64",
"q  c #3E7C6A",
"w  c #407666",
"e  c #417A6B",
"r  c #457D73",
"t  c #4A7E7B",
"y  c #2B8533",
"u  c #2C8834",
"i  c #2E845E",
"p  c #34856D",
"a  c #39836C",
"s  c #388975",
"d  c #3F8B7F",
"f  c #448176",
"g  c #45867F",
"h  c #4A817D",
"j  c #4E7F83",
"k  c #3F9286",
"l  c #3E9788",
"z  c #4B8382",
"x  c #448A82",
"c  c #4E868B",
"v  c #4C8C8C",
"b  c #53848D",
"n  c #45938C",
"m  c #4F8293",
"M  c #4D8E91",
"N  c #4E8998",
"B  c #538495",
"V  c #588697",
"C  c #548993",
"Z  c #578798",
"A  c #598799",
"S  c #568C9B",
"D  c #598B9B",
"F  c #4C9396",
"G  c #419C93",
"H  c #489897",
"J  c #4C939C",
"K  c #469A9C",
"L  c #4A9B9D",
"P  c #54919E",
"I  c #58919F",
"U  c #44A39F",
"Y  c #5A8FA0",
"T  c #4D96A0",
"R  c #459DA3",
"E  c #4E9DA5",
"W  c #4F9FA8",
"Q  c #5495A1",
"!  c #5991A1",
"~  c #529AA4",
"^  c #509CA6",
"/  c #529CA6",
"(  c #549FA9",
")  c #45A3A6",
"_  c #47A4A4",
"`  c #4CA1A5",
"'  c #4CA0A7",
"]  c #47A7AA",
"[  c #4DA0A8",
"{  c #4DA2A9",
"}  c #48A6A9",
"|  c #4AA6A8",
" . c #4CA4AA",
".. c #4DA4AB",
"X. c #4EA4AB",
"o. c #4BA7AC",
"O. c #4DA6AC",
"+. c #4CA7AD",
"@. c #47A8A9",
"#. c #49A8AB",
"$. c #49A8AC",
"%. c #4AA9AE",
"&. c #4AAAAE",
"*. c #4BABAF",
"=. c #4DA8AD",
"-. c #49ADAF",
";. c #50A1A9",
":. c #52A0A9",
">. c #51A2AA",
",. c #42B4A7",
"<. c #4BAEB1",
"1. c #54A6B0",
"2. c #51AEB5",
"3. c #49B0B2",
"4. c #49B1B2",
"5. c #49B3B5",
"6. c #4EB5B9",
"7. c #4DBABC",
"8. c #49BDBC",
"9. c #50B1B6",
"0. c #4BC2C2",
"q. c #4CC3C3",
"w. c #4AC4C2",
"e. c #49C9C6",
"r. c #4AC9C7",
/* pixels */
"A A D A S A S A S A A A A D I D D I D ! ! D D D D ! Y Y Y Y Y D ! D D D P D I D D I D D A D D A D A ",
"A S D A A A A A A D A S D D D D D D D Y D Y D ! D Y Y Y Y Y Y D D D D D D D D D D D D D A D D A A A ",
"A A A A A A S A A A A A D D D D D I D D D ! I ! Y ! D Y D D D D D D D D D D D D D D D D D D A A D A ",
"A S A S A Z D D D D D Y Y D Y D D D D D D I D D D D D D D D A D D D D A D D I D D D D D A A A D A S ",
"D D D D S D D I D Y D Y ! ~ ~ Q Q Q ~ Q I A A A D D D D D D A A A D A A Z D D D D D D D A A D D D A ",
"D D D D D D D D Y ! ! ! ( %.%.%.2.<.%.#.~ D S S Z D A A A A D Z A D A D D D Y Y ! ! ! ! D D D D D D ",
"D D Y Y I I I D D Y Q ( o.<.0.e.0.4.#.%.' E E P A A D Z A D D D D D D D D ~ ( O.;.>.O./ ! Y Y Y I I ",
"D Y Y Y D D D D D A S E [ O.6.0.w.4.} ) #.#.' P V Z A A A D D D D D Y Y D ~ O.[ ;.:.O./ ! ! D ! Y Y ",
"Y Y Y Y D D I D I D A D D D Y / } ) s p p a z B C C A A S r q e q z D D D S S S D S S D D D D ! Y ! ",
"Y Y D ( ;.;.9.9.;.;.~ I A A A S P M $       q Z S ~ / E E *       5 S S A A A Z A A A A D D D D D D ",
"I D ! ( ..=.7.7.=...;.Q D A D C z f $ X o X 6 z v O.] G l * X X X i n v ! S S Z S V V S A S A A D D ",
"D D D I I I Q I S ! ! D Y Y D x O X + + + + O X 5 %.G $ X + + + + O . 2 } ) K N j B S A A A A A A A ",
"D A D D D A A D ~ ~ ( ( Q D C f   X + + + + O   1 %.G o   O + + + O   > F F J S Z B Z Z A S V A A A ",
"A D Z D A D D I ....<.>./ e $ % % + + + + + o   2 <.G o . + + + + + + O $ ; V D ! ! Y S S S S S D D ",
"D D D D D D D I Q Q Q D D 8 . X + + + + + + O   i e.,.O X + + + + + + +   $ b D ~ %.[ ..[ O.[ ` Q A ",
"D I D D D D D D D D D D A w   X + + = y + + + O - 3 2 O O + + = y # + O   $ F ~ E %.%.%.-.-.-.%.[ / ",
"I D D D D D A D S D C S Z w   X + # y y # + + + O   X + + + + y u = + O   $ ) ......%.#.o.o.o.O.O...",
"A D D A D A A S ~ ' ;.d a , X O + # y u # + + + O   X + + = = y y = + + O % 9 q M Q Q Q Q Q Q Q Q Q ",
"A D D S Z Q J J _ @.@.2 . O + + + @ y u # + + + O   o O + y y y y y + + + + X   h D I Q Q Q Q Q Z D ",
"A A Z Z Q ` ) R R ) ) , X . + @ @ # y u = # @ + +   o + + y u u y y # + + + X   h D ;.=.=.=.=.../ D ",
"D D A S S Q J P J J Q 4   X @ @ = = y u u u = @ O   X + + y y u u y # # @ O X . g S Q Q ~ Q ~ ~ ! D ",
"D D A A S A A A Z Z V :   O @ @ = = u y u u # + O   X # # y y u y = = = + + X . n I Q S S Z D D D D ",
"D D A S A A A A S Z D :   X + @ = = y u u u # @ O   X y y u u y y y y = + + X . k | | E S A D D D I ",
"D D D A A A S V A P / 1 . O + @ = = y u u u # @ O   o y y u y y y y u y + + X . g P F P S D D D D D ",
"D I D D D D D D A ~ O.5 . X + # y y u y y y y = y # = y u y y y y = # # + + X . t A A D D Z D D D D ",
"D D D ! ! Y Y Y Y ! Q 4 . O + # y u u u = y y y y u u u y y = y y = @ @ + + X . t D D D D D D D D I ",
"D D D ! Y Y Y Y Y Y Y < . O @ @ y y y u y y y y y u y y y y y y y # + @ + + X . h Y D D D D D D D I ",
"D I D D D D Y Y Y Y Y < . X + + # = y u y y y y y u y y = y = y u # + + + O . . z Y Y Y D Y D Y D D ",
"D D D D D D Y Y ! ! Y < X X + + # = y y y y y y y y y y y y = y u = @ + + + X X h D D P D D A A D D ",
"A D D D D Y D Y D Y Y <   O + + + + = = y y y y = y = y y y u y u = @ + + + X X t D D D Y Z Z D V D ",
"A Z A A A D D D D ! D 7 $ O + + + + # = y y y y y y y y y y y y y # @ + + O $ $ z D A A Z A V V V D ",
"A A D A A D D D D ~ ;.R K 9   O + + + + y y y = y y u y y u u = @ @ + O . $ h C Z Z A A Y Z j B B B ",
"A Z D Z D D D A D I ;.;.' a X X + + @ @ y y y y y y y y y u y # + + + +   $ v S A A A A D Z B m C V ",
"D D I D D D D V D I I I ! w X X + + # = # # # @ # y y y y # # # + + + O   $ L S A A D A A A S V D D ",
"A D D D D D D D D D D D D 8 . X + @ y y # + + + # y y = y + + + + + + + X $ M D S A D D D D Z D D D ",
"D I D D D D D D S D D D D h 0 4 O O # # @ @ + + @ # # # # + + + + + X & 7 8 C A A D D D D I D D I D ",
"D I D Y D D D Y D D I D D V D t   . + + + # + + @ + + + + + + + + O X ; Z D A D D D D D D D ! ! D D ",
"D D D D D D D D D A D A D D A h : ; O O O O O O O O O O O O + O + & > 9 ~ ~ / ( ( ( :.Q ! D ! D I D ",
"D D D D D D D Y A D A A A A D D S c o . .       . . . . X . .     a @.#.=.-.<.<.<.4.<.:.! ! D D D D ",
"D A D D D D I A S A S A A A L K R H ; $ $ $ $ $ $ $ $ $ $ % $ $ o p #.%.-.%.%.-.=.<.( ! D D D D D A ",
"D D D I D D A A A A S Q Q T ) } ) ' F b b b b b b b b C F K L K U ) %.#.#.%.=.-.<.4.2.1.Q ~ P D A D ",
"D D D D D S A D D I Q O.%.%.<.<.=.~ D I I D I D I I D D V A S E } } | } } #.=.=.=.2.q.q.1.=.E ! D I ",
"D I D D D D D I ' ....=.<.<.0.e.w.<.' ' 6.6...E E ` / D A A A S I P I I I P P P P ~ ;.( ~ ~ I S D D ",
"D D D I D D D I ;...;.' ..<.8.e.w.5.%.-.8.8.-.@.] E N Z A A D D V V V Z A Z D A A D D D D D D D D D ",
"D D D D I D D I D I D I E %.%.%.%.=.%.%.%.} } o.E N m m Z A D D D D D D D I D D D I I D D D D D I D ",
"D I I D D D D D D D D D ! Q Q Q Q Q Q P P P Q Q P S Z C A D S / [ [ ;.' ;.Q D D D D A A A D D I D D ",
"D D D D A D D D D D A D P Q Q Q Q A A A S V D D D D S D D Y D / ..........~ D D D D D A A D D D D D ",
"A A A D S D A A D A S A ~ O.O...O.Q D D D A D D D D Y ! Y Y Y Q Q I I I I D A A A D A D D D D D I D ",
"A D A D A Z Z Z B B B V ! E o.%.%.W T Y Y Z ! S Y Y Y Y Y Q ( ( Q D D D A D A A A A D D D D D I D A ",
"A A A A A D Z Z V b m j j S W <.%.3.W Y Z Y Y Y Y Y Y D D Q o.<.[ I A A A A A D S A D D D I D D D A "
};
