/* XPM */
static char *_e375d91f1f64c61d2f8f103bca8e1a40TiLEJKUMxOKrAgG[] = {
/* columns rows colors chars-per-pixel */
"50 50 45 1 ",
"  c #4F7E91",
". c #4F8294",
"X c #4D8897",
"o c #4D8B99",
"O c #538495",
"+ c #598697",
"@ c #578798",
"# c #598798",
"$ c #568C9B",
"% c #598B9B",
"& c #4D929E",
"* c #46989F",
"= c #54919E",
"- c #58919F",
"; c #5A8FA0",
": c #4E97A1",
"> c #459DA3",
", c #4E9DA5",
"< c #4F9FA8",
"1 c #5495A2",
"2 c #5991A1",
"3 c #529AA5",
"4 c #529FA9",
"5 c #45A2A6",
"6 c #4CA0A6",
"7 c #46A6A9",
"8 c #4CA4AA",
"9 c #4AAAAE",
"0 c #51A1AA",
"q c #50A8AF",
"w c #4BADB1",
"e c #54A6B0",
"r c #51ACB3",
"t c #47B7B7",
"y c #4AB2B4",
"u c #4DB6B9",
"i c #4BBCBC",
"p c #50B0B6",
"a c #51B5B9",
"s c #50BABD",
"d c #4AC0BF",
"f c #4DBFC0",
"g c #4BC3C3",
"h c #4AC9C7",
"j c #4ACCCA",
/* pixels */
"##%%%##%##%#$$-%%-;;%%%%%;;;;;;%%%-%%-;%%%%%#%%##%",
"%%%#@@#@####%%%%%%%;-%-%%;;;%;;%%%%%%%%%%%%%#%%###",
"%#%#%#@#%##%%%%%%%%%----;%%%-%%;%%%%%%%;%%%%%##%%%",
"@@@@@@%%%%%%;;%%%%;%%%%%-;;%##%#%$##%%%--%#%#%#%##",
"%%%%%%%-%;;;2311113=-%%%%%%%%#%##%##%%$%%;%%##%%#$",
"%%%%%%%%22;249w99q993%$@#%####%#%%#%%$%2-;--%-%%%%",
"%%;;---%$%248yghhy8786,=##%##%%%%%%;%308000322;;-$",
"%%;2%%%%$#$<<8iggy87786=+####%%%%%2%-2060083-%%;22",
";;;;%%--%#%$%%$3975586=OO@@%%%---$-$%%%%%$%-%%%-;;",
";;2400pp003%####==&===##=&30000303-#%%%####%%%%%%;",
";--488is8801%%#%===$=3===89w9yyyyy01$$$X@@###%#@%%",
"%%%%----$---;;$18888id8899999thjjhhi9,*X..O$##%##%",
"%%%##%#-134422%2330yii9799999ydduqr96=&$OO########",
"#%%%#%%-89893$%%%=49y9999999yw99,=$$%%%%%--$%=$$##",
"%%%%%%%-1222$%%%$389999ijjhjjd988880-#%%=88888881$",
"%%%%%%%%%%%%####$303000pidgggi9tdiy833338999999963",
"%%$$$$$@$%$$$%$$##%%%--;2qr9w9wgjji9wwq98898998998",
"%%%%%#+=&666,,6=#####%%%2213q99uiiwww81==3-1=--11=",
"#%%@%==&777787761==#%%=13324qww9wwww0=%#%%-3=33=-%",
"##%#=6>>>5587899996-%199rwrwyy999998=-%-%-09q9883%",
"$%##$=&&&=&==3899idssigjgy9ydi9999886,,,=%==0==3--",
"%%%#%#%+#%$$==899ihjhhjjhy99sa88668787896==-$--%%%",
"%%##+@+%%%%%=98979yyyuyy99983%$$$$6978798886%%$%%%",
"%%%$%%%++=0&8798999w99803133#@##+@==3&13=&&=%+%%%%",
"%%%-%%%%%1qq88ryyyw99993-=%@@@%@%@@#%@#####%#%#--%",
"-%%;;;%;;;2124gjhy9999986*oO@$%%%%%%%###%%%%%%%%%%",
"%%--;;;;;;;;%2rap0<999775*X O@#@%%%%%%$%%-%%%-%%%%",
"%%%%%%;;;;;;;%%;2$3897975=$oOX$X@#%%#%%-;;--%%%-;%",
"%%-%%%;;2;;;%%%1668w989tgiii8>66001%%;;%%-%;%%##%#",
"##%%%%%;2%;;%%%14064<3,8uuidw996001-;;;%%%%%%##%#%",
"####%%%%%222-%-$$$$$%%%%%%389984-22-%%%-%%%###@@##",
"%####%%%$30600603$%%%%;%%%211090q003;%%#%%##@OOOOO",
"##%#%%##%3000606,$%%--3-3-3310qwwww9===$@@%#@O.OOO",
"#%-%%%%#%%%------%%%0989888q9rww9998888=@###%@@+#%",
"%%%%%%%%%%%%%%%%%-%$-0979999dgggdw0==,=%%%%%%%%%%%",
"%-%%%-%%%%%-%%%%$--===9w997wgjggi8=%##%#%%%%%%%--%",
"%%%-%%%%%%%%%#%#$*08889w9999yq-3-=@#%%#%;%%%%--%%%",
"%%%%%%-%%%%%#%#+$=&3=3*=33330=%#-=3330033303-%;;-%",
"%%#%-%%%%+%###$$$$$#$%#$%%%%--=-=99999wyrwq0-;%%%%",
"%%%%%%%#+$###$**>5=$+####$#-388899999999wr3-;%%%%#",
"%%%%%%%#%+-==,5576=####%%##-=,089999999wwwre33--%%",
"%%-%%%+%%--6wwww93---=%=-%-%=#%3785889889wgdq00%#-",
"%%-%%%%-66q9wwdhh968uu6666=$###-=========-004==%%%",
"%%%%$%%-06068wdhdy9wid988*&@@####++####%%$-%%%%%%%",
"-%%;-%%--%--09www99897986o..##%-=%@%%-%%%-%%%%%%-%",
"%%%%%%%%%%%%$============$@@%%-1060681%%%%%%%%%-%%",
"%%%%%%%%%%%$-===--#%%#%%%%%--%--08880=%%%%%#%##%%%",
"##%###%##+%%389w8=%%%%%%%%%-----------##%###%%-%-%",
"##%#####OOOO$&7996--$%--;%;;%-001-%%#%####%%%%%-%#",
"%####$#@....O-699w6-%%;;;;;;--ww6-#####%$#%%%-%%%#"
};
